<svg width="24" height="16" viewBox="0 0 24 16" fill="none" xmlns="http://www.w3.org/2000/svg">
<path d="M19.3496 6.04002C19.0487 4.51624 18.2818 3.12363 17.1548 2.05485C16.0278 0.986077 14.5965 0.293982 13.0589 0.0743292C11.5214 -0.145324 9.95354 0.118322 8.57237 0.82879C7.19121 1.53926 6.065 2.66142 5.34956 4.04002C3.83177 4.21586 2.43825 4.96412 1.45325 6.13218C0.468241 7.30023 -0.0340301 8.80008 0.0488875 10.3258C0.131805 11.8514 0.793665 13.288 1.89946 14.3424C3.00525 15.3969 4.47166 15.9897 5.99956 16H18.9996C20.2924 16.0011 21.535 15.5001 22.4655 14.6025C23.3959 13.705 23.9414 12.4811 23.9868 11.1891C24.0322 9.89712 23.574 8.638 22.7088 7.67735C21.8437 6.71671 20.6392 6.12965 19.3496 6.04002ZM13.9996 9.00002V13H9.99956V9.00002H6.99956L11.9996 4.00002L16.9996 9.00002H13.9996Z" fill="#FF9248"/>
</svg>
