<svg width="37" height="24" viewBox="0 0 37 24" fill="none" xmlns="http://www.w3.org/2000/svg">
<path d="M29.0248 9.05999C28.5731 6.77471 27.4224 4.68628 25.7319 3.08352C24.0414 1.48077 21.8947 0.442897 19.5886 0.113457C17.2825 -0.215983 14.9311 0.179286 12.8594 1.2446C10.7878 2.30991 9.09838 3.99261 8.02483 6.05999C5.74815 6.32374 3.65786 7.44614 2.18036 9.19822C0.70285 10.9503 -0.0505569 13.2001 0.0738196 15.4886C0.198196 17.7771 1.19099 19.932 2.84967 21.5136C4.50836 23.0953 6.70797 23.9845 8.99983 24H28.4998C30.4441 24.0097 32.3158 23.2619 33.7179 21.9149C35.1201 20.5679 35.9425 18.7278 36.0107 16.7847C36.079 14.8416 35.3878 12.9483 34.0837 11.5062C32.7795 10.0642 30.965 9.18673 29.0248 9.05999ZM25.4998 13.5L17.9998 21L10.4998 13.5H14.9998V7.49999H20.9998V13.5H25.4998Z" fill="#FF9248"/>
</svg>
