<svg width="150" height="150" viewBox="0 0 150 150" fill="none" xmlns="http://www.w3.org/2000/svg">
<path d="M101.25 67.5C107.463 67.5 112.5 62.4632 112.5 56.25C112.5 50.0368 107.463 45 101.25 45C95.0368 45 90 50.0368 90 56.25C90 62.4632 95.0368 67.5 101.25 67.5Z" fill="#C4C4C4"/>
<path d="M48.75 67.5C54.9632 67.5 60 62.4632 60 56.25C60 50.0368 54.9632 45 48.75 45C42.5368 45 37.5 50.0368 37.5 56.25C37.5 62.4632 42.5368 67.5 48.75 67.5Z" fill="#C4C4C4"/>
<path d="M74.925 3.75034e-05C60.0946 0.0148679 45.6015 4.42614 33.2777 12.6763C20.9539 20.9264 11.3526 32.6449 5.68757 46.3507C0.022493 60.0565 -1.45206 75.1341 1.45029 89.6777C4.35265 104.221 11.5016 117.578 21.9935 128.059C32.4854 138.541 45.8493 145.677 60.3958 148.564C74.9423 151.452 90.0185 149.963 103.719 144.284C117.419 138.605 129.128 128.992 137.365 116.66C145.603 104.328 150 89.8304 150 75C150 65.1446 148.058 55.3857 144.284 46.2814C140.51 37.1771 134.979 28.9059 128.007 21.9405C121.034 14.9751 112.757 9.45222 103.649 5.68753C94.5412 1.92284 84.7805 -0.00981795 74.925 3.75034e-05ZM75 135C63.1331 135 51.5328 131.481 41.6658 124.888C31.7989 118.295 24.1085 108.925 19.5673 97.961C15.026 86.9975 13.8378 74.9335 16.1529 63.2946C18.468 51.6557 24.1825 40.9648 32.5736 32.5736C40.9648 24.1825 51.6557 18.468 63.2946 16.1529C74.9335 13.8378 86.9975 15.026 97.961 19.5673C108.925 24.1085 118.295 31.7989 124.888 41.6658C131.481 51.5328 135 63.1331 135 75C135 90.913 128.679 106.174 117.426 117.426C106.174 128.679 90.913 135 75 135ZM75 90C66.7017 90.0053 58.5978 92.5132 51.7472 97.1963C44.8965 101.879 39.6176 108.52 36.6 116.25H49.125C51.7355 111.693 55.503 107.907 60.0465 105.273C64.59 102.64 69.7485 101.253 75 101.253C80.2516 101.253 85.41 102.64 89.9535 105.273C94.4971 107.907 98.2646 111.693 100.875 116.25H113.4C110.382 108.52 105.104 101.879 98.2529 97.1963C91.4022 92.5132 83.2984 90.0053 75 90Z" fill="#C4C4C4"/>
</svg>
