<svg width="80" height="80" viewBox="0 0 80 80" fill="none" xmlns="http://www.w3.org/2000/svg">
<path d="M40 80C62.0914 80 80 62.0914 80 40C80 17.9086 62.0914 0 40 0C17.9086 0 0 17.9086 0 40C0 62.0914 17.9086 80 40 80Z" fill="#00EF8B"/>
<path d="M57.5202 33.7598H46.2402V45.0398H57.5202V33.7598Z" fill="white"/>
<path d="M34.9602 49.2798C34.9602 51.5998 33.0402 53.5198 30.7202 53.5198C28.4002 53.5198 26.4802 51.5998 26.4802 49.2798C26.4802 46.9598 28.4002 45.0398 30.7202 45.0398H34.9602V33.7598H30.7202C22.1602 33.7598 15.2002 40.7198 15.2002 49.2798C15.2002 57.8398 22.1602 64.7998 30.7202 64.7998C39.2802 64.7998 46.2402 57.8398 46.2402 49.2798V45.0398H34.9602V49.2798Z" fill="white"/>
<path d="M50.48 28.0798H63.2V16.7998H50.48C41.92 16.7998 34.96 23.7598 34.96 32.3198V33.7598H46.24V32.3198C46.24 29.9998 48.16 28.0798 50.48 28.0798Z" fill="white"/>
<path d="M46.24 33.7598H34.96V45.0398H46.24V33.7598Z" fill="#16FF99"/>
</svg>
