<svg width="173" height="141" viewBox="0 0 173 141" fill="none" xmlns="http://www.w3.org/2000/svg">
<path d="M135 21H15C11.0348 21.0198 7.23869 22.6057 4.44185 25.4109C1.645 28.2161 0.0749504 32.0125 0.0749999 35.9698L0 125.788C0.0118705 129.755 1.59604 133.556 4.40651 136.36C7.21699 139.165 11.0254 140.746 15 140.758H135C138.975 140.746 142.783 139.165 145.593 136.36C148.404 133.556 149.988 129.755 150 125.788V35.9698C149.988 32.0032 148.404 28.2024 145.593 25.3976C142.783 22.5928 138.975 21.0118 135 21ZM135 125.788H15V50.9395L75 88.3639L135 50.9395V125.788ZM75 73.3942L15 35.9698H135L75 73.3942Z" fill="#E2E2E2"/>
<circle cx="143" cy="30" r="30" fill="white"/>
<path d="M136.547 38.0089L127.887 29.2884L125 32.1952L136.547 43.8226L161.29 18.9068L158.404 16L136.547 38.0089Z" fill="#79D36A"/>
</svg>
