<svg width="29" height="27" viewBox="0 0 29 27" fill="none" xmlns="http://www.w3.org/2000/svg">
<path d="M26.6085 1L16.0957 8.82052L18.0508 4.20513L26.6085 1Z" fill="#E17726" stroke="#E17726" stroke-linecap="round" stroke-linejoin="round"/>
<path d="M2.31348 1L12.7622 8.88462L10.9032 4.20513L2.31348 1Z" fill="#E27625" stroke="#E27625" stroke-linecap="round" stroke-linejoin="round"/>
<path d="M22.8259 19.1089L20.0054 23.4038L26.031 25.0705L27.7297 19.2051L22.8259 19.1089Z" fill="#E27625" stroke="#E27625" stroke-linecap="round" stroke-linejoin="round"/>
<path d="M1.22363 19.2051L2.92235 25.0705L8.91594 23.4038L6.12748 19.1089L1.22363 19.2051Z" fill="#E27625" stroke="#E27625" stroke-linecap="round" stroke-linejoin="round"/>
<path d="M8.59538 11.8654L6.92871 14.3974L12.8582 14.6538L12.6659 8.24359L8.59538 11.8654Z" fill="#E27625" stroke="#E27625" stroke-linecap="round" stroke-linejoin="round"/>
<path d="M20.358 11.8654L16.2234 8.1795L16.0952 14.6539L22.0247 14.3975L20.358 11.8654Z" fill="#E27625" stroke="#E27625" stroke-linecap="round" stroke-linejoin="round"/>
<path d="M8.91602 23.4039L12.5058 21.6731L9.39678 19.2372L8.91602 23.4039Z" fill="#E27625" stroke="#E27625" stroke-linecap="round" stroke-linejoin="round"/>
<path d="M16.4478 21.6731L20.0054 23.4039L19.5247 19.2372L16.4478 21.6731Z" fill="#E27625" stroke="#E27625" stroke-linecap="round" stroke-linejoin="round"/>
<path d="M20.0064 23.4037L16.4487 21.673L16.7372 23.9807L16.7051 24.9743L20.0064 23.4037Z" fill="#D5BFB2" stroke="#D5BFB2" stroke-linecap="round" stroke-linejoin="round"/>
<path d="M8.9165 23.4038L12.2498 24.9743L12.2178 23.9807L12.5062 21.673L8.9165 23.4038Z" fill="#D5BFB2" stroke="#D5BFB2" stroke-linecap="round" stroke-linejoin="round"/>
<path d="M12.3138 17.6987L9.33301 16.8334L11.4163 15.8718L12.3138 17.6987Z" fill="#233447" stroke="#233447" stroke-linecap="round" stroke-linejoin="round"/>
<path d="M16.6406 17.6987L17.506 15.8718L19.6214 16.8334L16.6406 17.6987Z" fill="#233447" stroke="#233447" stroke-linecap="round" stroke-linejoin="round"/>
<path d="M8.9159 23.4039L9.42872 19.109L6.12744 19.2052L8.9159 23.4039Z" fill="#CC6228" stroke="#CC6228" stroke-linecap="round" stroke-linejoin="round"/>
<path d="M19.5249 19.109L20.0057 23.4039L22.8262 19.2052L19.5249 19.109Z" fill="#CC6228" stroke="#CC6228" stroke-linecap="round" stroke-linejoin="round"/>
<path d="M22.0252 14.3975L16.0957 14.6539L16.6406 17.6987L17.506 15.8718L19.6213 16.8334L22.0252 14.3975Z" fill="#CC6228" stroke="#CC6228" stroke-linecap="round" stroke-linejoin="round"/>
<path d="M9.33256 16.8334L11.4159 15.8718L12.3133 17.6987L12.8582 14.6539L6.92871 14.3975L9.33256 16.8334Z" fill="#CC6228" stroke="#CC6228" stroke-linecap="round" stroke-linejoin="round"/>
<path d="M6.92969 14.3975L9.39764 19.2372L9.33353 16.8334L6.92969 14.3975Z" fill="#E27525" stroke="#E27525" stroke-linecap="round" stroke-linejoin="round"/>
<path d="M19.6215 16.8334L19.5254 19.2372L22.0254 14.3975L19.6215 16.8334Z" fill="#E27525" stroke="#E27525" stroke-linecap="round" stroke-linejoin="round"/>
<path d="M12.8588 14.6538L12.314 17.6987L12.987 21.3205L13.1473 16.5448L12.8588 14.6538Z" fill="#E27525" stroke="#E27525" stroke-linecap="round" stroke-linejoin="round"/>
<path d="M16.0961 14.6538L15.8076 16.5448L15.9358 21.3205L16.641 17.6987L16.0961 14.6538Z" fill="#E27525" stroke="#E27525" stroke-linecap="round" stroke-linejoin="round"/>
<path d="M16.6407 17.6987L15.9355 21.3205L16.4484 21.6731L19.5253 19.2372L19.6214 16.8333L16.6407 17.6987Z" fill="#F5841F" stroke="#F5841F" stroke-linecap="round" stroke-linejoin="round"/>
<path d="M9.33301 16.8333L9.39711 19.2372L12.5061 21.6731L12.9869 21.3205L12.3138 17.6987L9.33301 16.8333Z" fill="#F5841F" stroke="#F5841F" stroke-linecap="round" stroke-linejoin="round"/>
<path d="M16.705 24.9744L16.737 23.9808L16.4486 23.7564H12.4742L12.2178 23.9808L12.2498 24.9744L8.9165 23.4039L10.0703 24.3654L12.4421 26H16.4806L18.8524 24.3654L20.0062 23.4039L16.705 24.9744Z" fill="#C0AC9D" stroke="#C0AC9D" stroke-linecap="round" stroke-linejoin="round"/>
<path d="M16.449 21.6731L15.9362 21.3205H12.9875L12.5067 21.6731L12.2183 23.9808L12.4747 23.7564H16.449L16.7375 23.9808L16.449 21.6731Z" fill="#161616" stroke="#161616" stroke-linecap="round" stroke-linejoin="round"/>
<path d="M27.0582 9.33333L27.9556 5.00641L26.6095 1L16.4492 8.56411L20.3595 11.8654L25.8723 13.468L27.0902 12.0577L26.5774 11.6731L27.4108 10.9039L26.7697 10.391L27.6031 9.75L27.0582 9.33333Z" fill="#763E1A" stroke="#763E1A" stroke-linecap="round" stroke-linejoin="round"/>
<path d="M1 5.00641L1.89743 9.33333L1.32051 9.75L2.15385 10.391L1.51282 10.9039L2.3782 11.6731L1.83333 12.0577L3.05128 13.468L8.59615 11.8654L12.5064 8.56411L2.3141 1L1 5.00641Z" fill="#763E1A" stroke="#763E1A" stroke-linecap="round" stroke-linejoin="round"/>
<path d="M25.8715 13.468L20.3587 11.8654L22.0254 14.3975L19.5254 19.2372L22.8267 19.2052H27.7305L25.8715 13.468Z" fill="#F5841F" stroke="#F5841F" stroke-linecap="round" stroke-linejoin="round"/>
<path d="M8.59641 11.8654L3.05153 13.468L1.22461 19.2052H6.12846L9.39769 19.2372L6.92974 14.3975L8.59641 11.8654Z" fill="#F5841F" stroke="#F5841F" stroke-linecap="round" stroke-linejoin="round"/>
<path d="M16.0966 14.6539L16.4492 8.56412L18.0517 4.20514H10.9043L12.5069 8.56412L12.8594 14.6539L12.9876 16.5769V21.3205H15.9363V16.5769L16.0966 14.6539Z" fill="#F5841F" stroke="#F5841F" stroke-linecap="round" stroke-linejoin="round"/>
</svg>
