<svg width="80" height="80" viewBox="0 0 80 80" fill="none" xmlns="http://www.w3.org/2000/svg">
<circle cx="40" cy="40" r="40" fill="#FF9248"/>
<path d="M60 49V25C59.9968 23.9401 59.5744 22.9245 58.8249 22.1751C58.0755 21.4256 57.0599 21.0032 56 21H32C30.9401 21.0032 29.9245 21.4256 29.1751 22.1751C28.4256 22.9245 28.0032 23.9401 28 25V49C28.0032 50.0599 28.4256 51.0755 29.1751 51.8249C29.9245 52.5744 30.9401 52.9968 32 53H56C57.0599 52.9968 58.0755 52.5744 58.8249 51.8249C59.5744 51.0755 59.9968 50.0599 60 49ZM38 41L42.06 46.42L48 39L56 49H32L38 41ZM20 29V57C20.0032 58.0599 20.4256 59.0755 21.1751 59.8249C21.9245 60.5744 22.9401 60.9968 24 61H52V57H24V29H20Z" fill="white"/>
</svg>
