<svg width="76" height="73" viewBox="0 0 76 73" fill="none" xmlns="http://www.w3.org/2000/svg">
<rect width="76" height="73" rx="5" fill="white"/>
<path d="M47.2896 34.2178C51.9987 34.2178 55.835 30.3814 55.835 25.6724C55.835 20.9633 51.9987 17.127 47.2896 17.127C42.5806 17.127 38.7441 20.9633 38.7441 25.6724C38.7441 30.3814 42.5805 34.2178 47.2896 34.2178Z" fill="#8E8E8E"/>
<path d="M47.2896 34.2178C51.9987 34.2178 55.835 30.3814 55.835 25.6724C55.835 20.9633 51.9987 17.127 47.2896 17.127C42.5806 17.127 38.7441 20.9633 38.7441 25.6724C38.7441 30.3814 42.5805 34.2178 47.2896 34.2178Z" fill="white"/>
<path d="M47.2896 34.2178C51.9987 34.2178 55.835 30.3814 55.835 25.6724C55.835 20.9633 51.9987 17.127 47.2896 17.127C42.5806 17.127 38.7441 20.9633 38.7441 25.6724C38.7441 30.3814 42.5805 34.2178 47.2896 34.2178Z" fill="#B6B6B6"/>
<path d="M47.2896 34.2178C51.9987 34.2178 55.835 30.3814 55.835 25.6724C55.835 20.9633 51.9987 17.127 47.2896 17.127C42.5806 17.127 38.7441 20.9633 38.7441 25.6724C38.7441 30.3814 42.5805 34.2178 47.2896 34.2178Z" fill="#FFD15B"/>
<path d="M47.2896 34.2178C51.9987 34.2178 55.835 30.3814 55.835 25.6724C55.835 20.9633 51.9987 17.127 47.2896 17.127C42.5806 17.127 38.7441 20.9633 38.7441 25.6724C38.7441 30.3814 42.5805 34.2178 47.2896 34.2178Z" fill="#FFD15B"/>
<path d="M58.9823 37.9813C58.4733 37.9813 58.0006 38.1814 57.655 38.5268L47.8551 48.3085L55.3459 55.7995C55.9824 56.4358 55.9824 57.4358 55.3459 58.0541C55.0369 58.3631 54.637 58.5268 54.2186 58.5268C53.8187 58.5268 53.4186 58.3631 53.1096 58.0541L44.4914 49.4359L22.8006 27.7632C22.0732 27.036 20.8915 27.036 20.1459 27.7632L4.98242 42.9269V65.6177C4.98242 66.6541 5.8369 67.4905 6.85506 67.4905H69.146C70.1642 67.4905 71.0186 66.6541 71.0186 65.6177V49.236L60.3097 38.5269C59.946 38.1814 59.4733 37.9813 58.9823 37.9813Z" fill="#8E8E8E"/>
<path d="M58.9823 37.9813C58.4733 37.9813 58.0006 38.1814 57.655 38.5268L47.8551 48.3085L55.3459 55.7995C55.9824 56.4358 55.9824 57.4358 55.3459 58.0541C55.0369 58.3631 54.637 58.5268 54.2186 58.5268C53.8187 58.5268 53.4186 58.3631 53.1096 58.0541L44.4914 49.4359L22.8006 27.7632C22.0732 27.036 20.8915 27.036 20.1459 27.7632L4.98242 42.9269V65.6177C4.98242 66.6541 5.8369 67.4905 6.85506 67.4905H69.146C70.1642 67.4905 71.0186 66.6541 71.0186 65.6177V49.236L60.3097 38.5269C59.946 38.1814 59.4733 37.9813 58.9823 37.9813Z" fill="white"/>
<path d="M58.9823 37.9813C58.4733 37.9813 58.0006 38.1814 57.655 38.5268L47.8551 48.3085L55.3459 55.7995C55.9824 56.4358 55.9824 57.4358 55.3459 58.0541C55.0369 58.3631 54.637 58.5268 54.2186 58.5268C53.8187 58.5268 53.4186 58.3631 53.1096 58.0541L44.4914 49.4359L22.8006 27.7632C22.0732 27.036 20.8915 27.036 20.1459 27.7632L4.98242 42.9269V65.6177C4.98242 66.6541 5.8369 67.4905 6.85506 67.4905H69.146C70.1642 67.4905 71.0186 66.6541 71.0186 65.6177V49.236L60.3097 38.5269C59.946 38.1814 59.4733 37.9813 58.9823 37.9813Z" fill="#B6B6B6"/>
<path d="M58.9823 37.9813C58.4733 37.9813 58.0006 38.1814 57.655 38.5268L47.8551 48.3085L55.3459 55.7995C55.9824 56.4358 55.9824 57.4358 55.3459 58.0541C55.0369 58.3631 54.637 58.5268 54.2186 58.5268C53.8187 58.5268 53.4186 58.3631 53.1096 58.0541L44.4914 49.4359L22.8006 27.7632C22.0732 27.036 20.8915 27.036 20.1459 27.7632L4.98242 42.9269V65.6177C4.98242 66.6541 5.8369 67.4905 6.85506 67.4905H69.146C70.1642 67.4905 71.0186 66.6541 71.0186 65.6177V49.236L60.3097 38.5269C59.946 38.1814 59.4733 37.9813 58.9823 37.9813Z" fill="#79D36A"/>
</svg>
