<svg width="80" height="80" viewBox="0 0 80 80" fill="none" xmlns="http://www.w3.org/2000/svg">
<circle cx="40" cy="40" r="40" fill="#8247E5"/>
<g clip-path="url(#clip0_1731_72427)">
<path d="M53.026 31.0066C52.0599 30.4573 50.8177 30.4573 49.7135 31.0066L41.9844 35.5379L36.7396 38.4215L29.1484 42.9528C28.1823 43.5021 26.9401 43.5021 25.8359 42.9528L19.901 39.3827C18.9349 38.8334 18.2448 37.7349 18.2448 36.4991V29.6334C18.2448 28.5349 18.7969 27.4364 19.901 26.7498L25.8359 23.317C26.8021 22.7678 28.0443 22.7678 29.1484 23.317L35.0833 26.8872C36.0495 27.4364 36.7396 28.5349 36.7396 29.7707V34.3021L41.9844 31.2812V26.6125C41.9844 25.514 41.4323 24.4155 40.3281 23.729L29.2865 17.2752C28.3203 16.726 27.0781 16.726 25.974 17.2752L14.6562 23.8663C13.5521 24.4155 13 25.514 13 26.6125V39.52C13 40.6185 13.5521 41.717 14.6562 42.4036L25.8359 48.8573C26.8021 49.4066 28.0443 49.4066 29.1484 48.8573L36.7396 44.4633L41.9844 41.4424L49.5755 37.0484C50.5417 36.4991 51.7839 36.4991 52.888 37.0484L58.8229 40.4812C59.7891 41.0304 60.4792 42.129 60.4792 43.3648V50.2304C60.4792 51.329 59.9271 52.4275 58.8229 53.114L53.026 56.5469C52.0599 57.0961 50.8177 57.0961 49.7135 56.5469L43.7786 53.114C42.8125 52.5648 42.1224 51.4663 42.1224 50.2304V45.8364L36.8776 48.8573V53.3887C36.8776 54.4872 37.4297 55.5857 38.5339 56.2722L49.7135 62.726C50.6797 63.2752 51.9219 63.2752 53.026 62.726L64.2057 56.2722C65.1719 55.723 65.862 54.6245 65.862 53.3887V40.3439C65.862 39.2454 65.3099 38.1469 64.2057 37.4603L53.026 31.0066Z" fill="white"/>
</g>
<defs>
<clipPath id="clip0_1731_72427">
<rect width="53" height="46" fill="white" transform="translate(13 17)"/>
</clipPath>
</defs>
</svg>
