<svg width="320" height="390" viewBox="0 0 320 390" fill="none" xmlns="http://www.w3.org/2000/svg">
<rect x="273.785" y="160.991" width="9.99942" height="9.99942" fill="#FF8A1E"/>
<rect x="289.917" y="240.505" width="9.99942" height="9.99942" transform="rotate(-152.074 289.917 240.505)" fill="#FF8A1E"/>
<rect x="23.5923" y="109.844" width="9.99942" height="9.99942" transform="rotate(15.8854 23.5923 109.844)" fill="#FF8A1E"/>
<rect x="54.8833" y="214.066" width="9.99942" height="9.99942" transform="rotate(137.324 54.8833 214.066)" fill="#FF8A1E"/>
<rect x="209.175" y="29.3735" width="9.99942" height="9.99942" transform="rotate(-75 209.175 29.3735)" fill="#FF8A1E"/>
<rect x="53.7041" y="32.5132" width="9.99942" height="9.99942" transform="rotate(-59.1146 53.7041 32.5132)" fill="#FF8A1E"/>
<rect x="249.563" y="162.069" width="9.77598" height="9.77598" transform="rotate(-64.6246 249.563 162.069)" fill="#FF8A1E"/>
<rect x="71.9604" y="196.854" width="9.77598" height="9.77598" transform="rotate(72.699 71.9604 196.854)" fill="#FF8A1E"/>
<rect x="276.351" y="102.046" width="9.77598" height="9.77598" transform="rotate(-139.625 276.351 102.046)" fill="#FF8A1E"/>
<rect x="293.866" y="330.98" width="9.77598" height="9.77598" transform="rotate(68.3011 293.866 330.98)" fill="#FF8A1E"/>
<rect x="42.1968" y="53.8525" width="9.77598" height="9.77598" transform="rotate(-123.739 42.1968 53.8525)" fill="#FF8A1E"/>
<rect x="292.784" y="151.991" width="8.99948" height="8.99948" fill="#FFD646"/>
<rect x="268.918" y="239.559" width="8.99948" height="8.99948" transform="rotate(-152.074 268.918 239.559)" fill="#FFD646"/>
<rect x="44.3296" y="106.389" width="8.99948" height="8.99948" transform="rotate(15.8854 44.3296 106.389)" fill="#FFD646"/>
<rect x="33.2637" y="312.982" width="8.99948" height="8.99948" transform="rotate(15.8854 33.2637 312.982)" fill="#FFD646"/>
<rect x="47.0127" y="233.562" width="8.99948" height="8.99948" transform="rotate(137.324 47.0127 233.562)" fill="#FFD646"/>
<rect x="205.398" y="8.69287" width="8.99948" height="8.99948" transform="rotate(-75 205.398 8.69287)" fill="#FFD646"/>
<rect x="55.7349" y="11.5884" width="8.99948" height="8.99948" transform="rotate(-59.1146 55.7349 11.5884)" fill="#FFD646"/>
<rect x="248.786" y="140.894" width="9.77598" height="9.77598" transform="rotate(-64.6246 248.786 140.894)" fill="#FFD646"/>
<rect x="37.7983" y="80.5171" width="9.77598" height="9.77598" transform="rotate(-48.7392 37.7983 80.5171)" fill="#FFD646"/>
<rect x="255.696" y="97.3159" width="9.77598" height="9.77598" transform="rotate(-139.625 255.696 97.3159)" fill="#FFD646"/>
<rect x="23.6235" y="43.6499" width="9.77598" height="9.77598" transform="rotate(-123.739 23.6235 43.6499)" fill="#FFD646"/>
<rect x="289.784" y="176.99" width="9.99942" height="9.99942" fill="#FF4646"/>
<rect x="34.6035" y="129.611" width="9.99942" height="9.99942" transform="rotate(15.8854 34.6035 129.611)" fill="#FF4646"/>
<rect x="32.2715" y="213.151" width="9.99942" height="9.99942" transform="rotate(137.324 32.2715 213.151)" fill="#FF4646"/>
<rect x="228.768" y="18.0605" width="9.99942" height="9.99942" transform="rotate(-75 228.768 18.0605)" fill="#FF4646"/>
<rect x="75.6479" y="26.9951" width="9.99942" height="9.99942" transform="rotate(-59.1146 75.6479 26.9951)" fill="#FF4646"/>
<rect x="264.988" y="128.826" width="9.77598" height="9.77598" transform="rotate(-64.6246 264.988 128.826)" fill="#FF4646"/>
<rect x="282.624" y="273.044" width="9.77598" height="9.77598" transform="rotate(143.301 282.624 273.044)" fill="#FF4646"/>
<rect x="56.6841" y="73.3447" width="9.77598" height="9.77598" transform="rotate(-48.7392 56.6841 73.3447)" fill="#FF4646"/>
<rect x="248.235" y="78.5425" width="9.77598" height="9.77598" transform="rotate(-139.625 248.235 78.5425)" fill="#FF4646"/>
<rect x="268.785" y="188.989" width="8.99948" height="9.99942" fill="#FF469F"/>
<rect x="11.1206" y="135.405" width="8.99948" height="9.99942" transform="rotate(15.8854 11.1206 135.405)" fill="#FF469F"/>
<rect x="39.5796" y="190.093" width="8.99948" height="9.99942" transform="rotate(137.324 39.5796 190.093)" fill="#FF469F"/>
<rect x="37.252" y="283.794" width="8.99948" height="9.99942" transform="rotate(132.926 37.252 283.794)" fill="#FF469F"/>
<rect x="75.1675" y="51.1758" width="8.99948" height="9.99942" transform="rotate(-59.1146 75.1675 51.1758)" fill="#FF469F"/>
<rect x="266.516" y="153.687" width="9.77598" height="9.77598" transform="rotate(-64.6246 266.516 153.687)" fill="#FF469F"/>
<rect x="279.785" y="385.811" width="9.77598" height="9.77598" transform="rotate(-64.6246 279.785 385.811)" fill="#FF469F"/>
<rect x="292.92" y="250.363" width="9.77598" height="9.77598" transform="rotate(143.301 292.92 250.363)" fill="#FF469F"/>
<rect x="18.6006" y="100.829" width="9.77598" height="9.77598" transform="rotate(-48.7392 18.6006 100.829)" fill="#FF469F"/>
<rect x="65.1758" y="214.509" width="9.77598" height="9.77598" transform="rotate(72.699 65.1758 214.509)" fill="#FF469F"/>
<rect x="200.238" y="34.5044" width="9.77598" height="9.77598" transform="rotate(-139.625 200.238 34.5044)" fill="#FF469F"/>
<rect x="43.7046" y="35.002" width="9.77598" height="9.77598" transform="rotate(-123.739 43.7046 35.002)" fill="#FF469F"/>
</svg>
