<svg width="237" height="176" viewBox="0 0 237 176" fill="none" xmlns="http://www.w3.org/2000/svg">
<path d="M137.072 105.145C125.873 111.611 114.631 117.524 103.646 122.712C95.3822 121.478 84.3845 122.692 71.8394 126.221C69.2407 126.948 66.5725 127.781 63.9116 128.69L52.9266 109.663C55.1796 107.697 57.3493 105.69 59.3809 103.694C68.9025 94.3463 75.4503 85.2335 78.3184 77.3411C88.1174 70.5774 98.6486 63.936 109.622 57.6005C123.096 49.8215 136.524 42.9067 149.535 37.0453C160.784 31.887 172.36 27.4737 184.188 23.8339C188.861 22.416 193.604 21.2421 198.399 20.3169C202.2 19.5635 206.058 19.1381 209.931 19.0454C212.77 18.934 215.607 19.3084 218.32 20.1526C220.305 20.7361 222.01 22.0228 223.115 23.7719C224.076 25.6033 224.338 27.7223 223.851 29.7325C223.225 32.5037 222.131 35.1479 220.616 37.5515C218.599 40.8597 216.301 43.9887 213.749 46.9039C210.551 50.595 207.163 54.1167 203.599 57.4547C194.534 65.8798 184.924 73.6982 174.831 80.8593C163.239 89.2027 150.534 97.3728 137.072 105.145Z" fill="#E2E2E2"/>
<path d="M184.314 63.0821C191.228 59.0902 193.555 50.1773 189.512 43.1746C185.469 36.172 176.587 33.7313 169.673 37.7232C162.758 41.7151 160.431 50.628 164.474 57.6306C168.517 64.6333 177.399 67.074 184.314 63.0821Z" fill="white"/>
<path d="M78.8569 99.8155C80.853 96.847 82.3066 93.5479 83.15 90.0715C83.8146 87.4994 83.4979 84.772 82.2616 82.4207C80.5616 79.4762 77.1514 77.6276 72.1299 76.938C67.2801 76.2739 61.1392 76.7017 53.8802 78.2207C38.9425 81.3498 20.9414 88.715 3.19139 98.963C2.37819 99.4325 1.51726 99.9354 0.564341 100.503L0.179841 99.8369C4.44863 97.0986 8.90828 94.383 13.4367 91.7685C23.0956 86.1649 33.0509 81.0886 43.259 76.5621C51.6951 72.7718 60.3898 69.5856 69.2774 67.0274C77.1314 64.8428 83.6771 63.7945 88.7399 63.9234C90.9257 63.9171 93.0962 64.2892 95.1552 65.023C96.7092 65.5649 98.0307 66.6227 98.8995 68.0204C99.7999 69.7653 99.9962 71.7892 99.4482 73.6747C98.7381 76.3338 97.5797 78.8523 96.0229 81.122C93.9421 84.2628 91.6001 87.2226 89.0219 89.9699C85.8085 93.4277 82.4154 96.7141 78.8569 99.8155Z" fill="#E2E2E2"/>
<path d="M82.8442 106.722C86.4128 106.478 89.9966 106.868 93.4288 107.876C95.9886 108.586 98.1922 110.224 99.6104 112.47C101.31 115.415 101.206 119.292 99.2927 123.986C97.4429 128.518 94.002 133.622 89.057 139.149C78.8797 150.522 63.4984 162.428 45.7483 172.676C44.9351 173.146 44.0692 173.64 43.1026 174.182L43.4866 174.847C47.9929 172.52 52.5741 170.015 57.1025 167.401C66.7848 161.838 76.1588 155.754 85.1833 149.178C92.6837 143.767 99.7904 137.83 106.45 131.412C112.269 125.703 116.449 120.558 118.869 116.11C119.968 114.22 120.731 112.155 121.124 110.005C121.432 108.388 121.177 106.714 120.401 105.262C119.34 103.61 117.685 102.428 115.778 101.96C113.121 101.246 110.361 100.989 107.617 101.202C103.857 101.434 100.122 101.982 96.4541 102.841C91.8526 103.896 87.3096 105.191 82.8442 106.722V106.722Z" fill="#E2E2E2"/>
<path d="M179.351 39.3533C180.102 39.756 180.958 40.415 181.879 41.3013C182.665 42.0888 183.349 42.9824 183.912 43.9574C184.709 45.3386 185.237 46.825 185.475 48.3712C185.705 49.8635 185.66 51.352 185.339 52.7905C184.678 55.7503 182.931 58.1786 180.42 59.6287C180.305 59.6952 180.182 59.7634 180.042 59.8364L180.222 60.1484C180.899 59.8869 181.567 59.5665 182.208 59.1965C183.631 58.3747 184.872 57.3405 185.896 56.1241C186.803 55.0951 187.548 53.805 188.127 52.262C188.617 50.8768 188.821 49.4782 188.731 48.0984C188.71 47.5321 188.588 46.841 188.369 46.0546C188.215 45.4881 187.919 44.7987 187.535 44.1153C187.296 43.7173 187.04 43.341 186.783 43.0087C186.525 42.6764 186.27 42.3949 186.034 42.181C185.33 41.5206 184.678 41.0302 184.103 40.7298C183.292 40.2845 182.536 39.9673 181.841 39.7812C181.043 39.5508 180.205 39.4067 179.351 39.3533Z" fill="#E2E2E2"/>
<path d="M83.9339 79.9456C84.4518 78.9699 84.79 77.8419 84.9337 76.6113C85.0161 75.5597 84.828 74.6257 84.3725 73.8369C83.7273 72.7194 82.5828 71.9313 80.9695 71.5007C79.4128 71.0846 77.4867 71.0134 75.2484 71.2916C70.6415 71.8653 65.2219 73.8456 59.9876 76.8677C59.7476 77.0063 59.4949 77.1543 59.2135 77.3229L59.0678 77.0705C60.3155 76.2458 61.6266 75.4358 62.9621 74.6648C65.9287 72.952 68.9124 71.4866 71.8303 70.3077C74.3534 69.2599 76.9837 68.437 79.7043 67.8442C82.1065 67.3491 84.1359 67.2139 85.7423 67.4447C86.4234 67.5194 87.1226 67.732 87.8099 68.0737C88.311 68.3143 88.7713 68.7448 89.1046 69.2848C89.2787 69.6177 89.4021 69.9704 89.4674 70.322C89.5328 70.6735 89.5389 71.0167 89.4853 71.3312C89.3549 72.2695 89.0813 73.1289 88.6757 73.8746C88.13 74.9288 87.4981 75.9035 86.7862 76.7895C85.9891 77.8089 85.0292 78.871 83.9339 79.9456Z" fill="white"/>
<path d="M123.217 56.9995C126.311 57.0119 129.503 57.648 132.652 58.8797C135.284 60.0287 137.235 61.673 138.446 63.7695C140.161 66.7396 140.352 70.4799 138.998 74.8817C137.692 79.1295 135.018 83.818 131.049 88.8048C122.878 99.0666 110.149 109.468 95.2076 118.095C94.5225 118.491 93.7959 118.904 92.9782 119.36L93.3656 120.031C97.1763 118.108 101.045 116.015 104.857 113.814C113.326 108.925 121.229 103.678 128.351 98.2223C134.577 93.5408 140.425 88.3155 145.857 82.5803C150.586 77.4802 153.905 72.8092 155.726 68.6795C156.553 66.9583 157.078 65.0173 157.277 62.9396C157.443 61.4357 157.095 59.7862 156.298 58.2996C155.76 57.4581 155.101 56.7123 154.358 56.1064C153.616 55.5004 152.805 55.0468 151.976 54.7723C149.543 53.8829 147.088 53.4361 144.71 53.45C141.387 53.4036 138.128 53.6645 134.962 54.2301C131.352 54.8282 127.399 55.7602 123.217 56.9995Z" fill="white"/>
<path d="M55.1794 127.814C51.454 130.052 47.3896 131.671 43.1452 132.606C41.7082 132.921 40.2273 132.985 38.7686 132.794C38.2749 132.755 37.7963 132.605 37.3681 132.357C36.9398 132.108 36.5727 131.767 36.294 131.357C36.0791 130.911 35.967 130.423 35.9659 129.928C35.9649 129.433 36.075 128.944 36.2881 128.497C36.8514 127.138 37.6468 125.887 38.6387 124.801C41.5712 121.593 45.005 118.882 48.8059 116.775C50.2461 115.943 51.7038 115.194 53.1383 114.543C50.4346 116.39 48.0383 118.651 46.037 121.243C45.368 122.127 44.8619 123.123 44.5425 124.184C44.4177 124.562 44.3692 124.96 44.3999 125.357C44.4305 125.753 44.5397 126.139 44.7209 126.493C44.9367 126.827 45.2168 127.115 45.5449 127.34C45.873 127.565 46.2425 127.723 46.632 127.803C47.7109 128.058 48.8266 128.117 49.9265 127.98C53.1732 127.542 56.3306 126.595 59.2831 125.176C57.9888 126.102 56.6093 126.988 55.1794 127.814Z" fill="#FF9248"/>
<path d="M47.411 136.142C41.7109 139.566 35.4952 142.048 29.004 143.49C26.8085 143.975 24.5456 144.076 22.3155 143.789C21.5629 143.733 20.8327 143.508 20.179 143.131C19.5253 142.753 18.9649 142.234 18.5392 141.611C18.2123 140.93 18.0426 140.185 18.0429 139.431C18.0431 138.676 18.2132 137.931 18.5405 137.251C19.4066 135.176 20.6258 133.267 22.144 131.608C26.6387 126.708 31.8955 122.565 37.711 119.341C39.9133 118.07 42.1437 116.923 44.3392 115.926C40.2025 118.748 36.5334 122.201 33.4654 126.16C32.4404 127.507 31.6625 129.025 31.1679 130.644C30.9779 131.219 30.9043 131.826 30.9516 132.43C30.9988 133.034 31.1659 133.622 31.443 134.161C31.7715 134.669 32.198 135.107 32.6975 135.449C33.197 135.791 33.7595 136.03 34.3523 136.152C36.0017 136.534 37.7059 136.62 39.3853 136.405C44.3476 135.727 49.173 134.276 53.686 132.105C51.7082 133.519 49.5969 134.88 47.411 136.142Z" fill="#FF9248"/>
</svg>
