<svg width="397" height="350" viewBox="0 0 397 350" fill="none" xmlns="http://www.w3.org/2000/svg">
<path fill-rule="evenodd" clip-rule="evenodd" d="M191.916 298.636V154.826C191.916 151.369 191.52 148.163 190.693 145.076C189.866 141.985 188.605 139.009 186.881 136.021H186.879L149.85 71.8851L150.83 71.3174L187.86 135.454V135.457C189.639 138.537 190.937 141.602 191.789 144.784C192.643 147.973 193.052 151.276 193.052 154.827V298.638H191.916V298.636Z" fill="#57A8DD"/>
<path fill-rule="evenodd" clip-rule="evenodd" d="M206.494 319.568V228.378C206.494 224.825 206.905 221.522 207.757 218.334C208.61 215.153 209.907 212.088 211.686 209.007L259.12 126.849L260.099 127.412L212.665 209.57C210.94 212.558 209.68 215.535 208.851 218.627C208.024 221.712 207.628 224.92 207.628 228.378V319.568H206.494Z" fill="#3A5C7F"/>
<path fill-rule="evenodd" clip-rule="evenodd" d="M184.82 250.372V196.05C184.82 192.577 184.421 189.354 183.588 186.251C182.756 183.143 181.49 180.153 179.758 177.15H179.757L155.834 135.714L156.487 135.336L180.409 176.772V176.773C182.18 179.839 183.471 182.89 184.32 186.055C185.17 189.226 185.576 192.513 185.576 196.05V250.372H184.82Z" fill="#E75627"/>
<path fill-rule="evenodd" clip-rule="evenodd" d="M199.016 343.953V197.458C199.016 193.89 199.427 190.571 200.286 187.366C201.143 184.166 202.448 181.085 204.235 177.991L218.084 154.006L219.39 154.756L205.539 178.745V178.747C203.822 181.723 202.569 184.683 201.744 187.755C200.922 190.826 200.528 194.016 200.528 197.457V343.952H199.016V343.953Z" fill="#5BA921"/>
<path fill-rule="evenodd" clip-rule="evenodd" d="M213.97 289.056V239.719C213.97 237.527 214.224 235.49 214.751 233.523C215.276 231.561 216.077 229.671 217.174 227.769L225.71 212.987L226.362 213.362L217.828 228.144C216.767 229.984 215.99 231.815 215.481 233.718C214.972 235.618 214.727 237.591 214.727 239.719V289.056H213.97Z" fill="#F5C908"/>
<path d="M224.953 223.577C229.662 223.577 233.48 219.76 233.48 215.05C233.48 210.341 229.662 206.523 224.953 206.523C220.244 206.523 216.426 210.341 216.426 215.05C216.426 219.76 220.244 223.577 224.953 223.577Z" fill="#E75627"/>
<path d="M214.35 290.226C217.156 290.226 219.432 287.951 219.432 285.144C219.432 282.337 217.156 280.062 214.35 280.062C211.543 280.062 209.268 282.337 209.268 285.144C209.268 287.951 211.543 290.226 214.35 290.226Z" fill="#FF9500"/>
<path d="M207.062 324.649C209.869 324.649 212.144 322.374 212.144 319.567C212.144 316.761 209.869 314.485 207.062 314.485C204.255 314.485 201.98 316.761 201.98 319.567C201.98 322.374 204.255 324.649 207.062 324.649Z" fill="#3A5C7F"/>
<path d="M192.485 301.561C195.291 301.561 197.567 299.286 197.567 296.479C197.567 293.673 195.291 291.397 192.485 291.397C189.678 291.397 187.403 293.673 187.403 296.479C187.403 299.286 189.678 301.561 192.485 301.561Z" fill="#5BA921"/>
<path d="M185.197 255.455C188.004 255.455 190.279 253.18 190.279 250.373C190.279 247.566 188.004 245.291 185.197 245.291C182.39 245.291 180.115 247.566 180.115 250.373C180.115 253.18 182.39 255.455 185.197 255.455Z" fill="#E75627"/>
<path d="M199.773 350C203.113 350 205.82 347.293 205.82 343.953C205.82 340.614 203.113 337.906 199.773 337.906C196.433 337.906 193.726 340.614 193.726 343.953C193.726 347.293 196.433 350 199.773 350Z" fill="#F5C908"/>
<path d="M162.652 91.1672L128.407 30.9316L127.555 31.4162L161.799 91.6518L162.652 91.1672Z" fill="#F5C908"/>
<path d="M159.796 87.4853L99.4569 52.1084L99.171 52.5961L159.51 87.973L159.796 87.4853Z" fill="#E75627"/>
<path d="M106.59 68.0938C112.932 68.0938 118.073 62.9529 118.073 56.6114C118.073 50.2698 112.932 45.1289 106.59 45.1289C100.249 45.1289 95.1079 50.2698 95.1079 56.6114C95.1079 62.9529 100.249 68.0938 106.59 68.0938Z" fill="#E75627"/>
<path fill-rule="evenodd" clip-rule="evenodd" d="M70.0346 86.6318L159.651 87.2291L161.475 87.2421L159.891 88.1456L104.849 119.548L104.365 118.694L157.821 88.1977L70.031 87.6111L70.0346 86.6318Z" fill="#5BA921"/>
<path fill-rule="evenodd" clip-rule="evenodd" d="M194.73 28.85L160.996 86.3888L205.631 61.0136L206.116 61.8663L159.89 88.145L158.299 89.0486L159.225 87.4709L193.884 28.3545L194.73 28.85Z" fill="#E75627"/>
<path d="M160.27 87.5424L160.58 36.7944L160.014 36.791L159.705 87.5389L160.27 87.5424Z" fill="#08843B"/>
<path d="M160.291 49.1241C167.106 49.1241 172.631 43.5993 172.631 36.7842C172.631 29.9691 167.106 24.4443 160.291 24.4443C153.476 24.4443 147.951 29.9691 147.951 36.7842C147.951 43.5993 153.476 49.1241 160.291 49.1241Z" fill="#FF9500"/>
<path d="M84.2668 104.446C93.803 104.446 101.534 96.7152 101.534 87.1789C101.534 77.6427 93.803 69.9121 84.2668 69.9121C74.7306 69.9121 67 77.6427 67 87.1789C67 96.7152 74.7306 104.446 84.2668 104.446Z" fill="#7879F1"/>
<path d="M205.872 75.2554C213.501 75.2554 219.685 69.0709 219.685 61.4419C219.685 53.8129 213.501 47.6284 205.872 47.6284C198.243 47.6284 192.058 53.8129 192.058 61.4419C192.058 69.0709 198.243 75.2554 205.872 75.2554Z" fill="#E75627"/>
<path d="M194.309 41.4728C201.416 41.4728 207.178 35.7108 207.178 28.6031C207.178 21.4954 201.416 15.7334 194.309 15.7334C187.201 15.7334 181.439 21.4954 181.439 28.6031C181.439 35.7108 187.201 41.4728 194.309 41.4728Z" fill="#7BB3F5"/>
<path d="M261.651 124.79L287.757 79.5747L286.909 79.0851L260.803 124.301L261.651 124.79Z" fill="#F5C908"/>
<path d="M251.702 141.541L304.883 110.836L304.6 110.347L251.419 141.052L251.702 141.541Z" fill="#E75627"/>
<path d="M297.716 124.079C302.926 124.079 307.15 119.855 307.15 114.645C307.15 109.434 302.926 105.21 297.716 105.21C292.506 105.21 288.282 109.434 288.282 114.645C288.282 119.855 292.506 124.079 297.716 124.079Z" fill="#E75627"/>
<path fill-rule="evenodd" clip-rule="evenodd" d="M316.636 141.785H253.381L299.154 168.211L298.666 169.062L251.309 141.72L249.726 140.806H251.553H316.636V141.785Z" fill="#57A8DD"/>
<path d="M251.785 140.867L201.185 111.651L200.694 112.501L251.295 141.717L251.785 140.867Z" fill="#08843B"/>
<path d="M226.184 97.9366L251.303 141.443L251.793 141.16L226.673 97.6539L226.184 97.9366Z" fill="#F5C908"/>
<path d="M252.046 75.9287H251.063V141.296H252.046V75.9287Z" fill="#57A8DD"/>
<path d="M251.552 93.8814C259.751 93.8814 266.397 87.2352 266.397 79.0366C266.397 70.8381 259.751 64.1919 251.552 64.1919C243.354 64.1919 236.708 70.8381 236.708 79.0366C236.708 87.2352 243.354 93.8814 251.552 93.8814Z" fill="#FF9500"/>
<path d="M293.887 176.668C299.923 176.668 304.817 171.775 304.817 165.738C304.817 159.702 299.923 154.808 293.887 154.808C287.85 154.808 282.957 159.702 282.957 165.738C282.957 171.775 287.85 176.668 293.887 176.668Z" fill="#FF581E"/>
<path d="M226.435 105.524C230.707 105.524 234.17 102.061 234.17 97.7885C234.17 93.5162 230.707 90.0527 226.435 90.0527C222.162 90.0527 218.699 93.5162 218.699 97.7885C218.699 102.061 222.162 105.524 226.435 105.524Z" fill="#5BA921"/>
<path d="M285.8 95.1212C293.059 95.1212 298.943 89.237 298.943 81.9783C298.943 74.7197 293.059 68.8354 285.8 68.8354C278.542 68.8354 272.657 74.7197 272.657 81.9783C272.657 89.237 278.542 95.1212 285.8 95.1212Z" fill="#8E8E8E"/>
<path d="M285.8 95.1212C293.059 95.1212 298.943 89.237 298.943 81.9783C298.943 74.7197 293.059 68.8354 285.8 68.8354C278.542 68.8354 272.657 74.7197 272.657 81.9783C272.657 89.237 278.542 95.1212 285.8 95.1212Z" fill="white"/>
<path d="M285.8 95.1212C293.059 95.1212 298.943 89.237 298.943 81.9783C298.943 74.7197 293.059 68.8354 285.8 68.8354C278.542 68.8354 272.657 74.7197 272.657 81.9783C272.657 89.237 278.542 95.1212 285.8 95.1212Z" fill="#B6B6B6"/>
<path d="M285.8 95.1212C293.059 95.1212 298.943 89.237 298.943 81.9783C298.943 74.7197 293.059 68.8354 285.8 68.8354C278.542 68.8354 272.657 74.7197 272.657 81.9783C272.657 89.237 278.542 95.1212 285.8 95.1212Z" fill="#7BB3F5"/>
<path fill-rule="evenodd" clip-rule="evenodd" d="M139.376 122.273L159.736 87.0093L159.82 86.8662H159.981H196.46V87.4339H160.144L139.867 122.554L139.376 122.273Z" fill="#08843B"/>
<path d="M159.978 114.681C174.972 114.681 187.128 102.525 187.128 87.5302C187.128 72.5355 174.972 60.3799 159.978 60.3799C144.983 60.3799 132.827 72.5355 132.827 87.5302C132.827 102.525 144.983 114.681 159.978 114.681Z" fill="#8E8E8E"/>
<path d="M159.978 114.681C174.972 114.681 187.128 102.525 187.128 87.5302C187.128 72.5355 174.972 60.3799 159.978 60.3799C144.983 60.3799 132.827 72.5355 132.827 87.5302C132.827 102.525 144.983 114.681 159.978 114.681Z" fill="white"/>
<path d="M159.978 114.681C174.972 114.681 187.128 102.525 187.128 87.5302C187.128 72.5355 174.972 60.3799 159.978 60.3799C144.983 60.3799 132.827 72.5355 132.827 87.5302C132.827 102.525 144.983 114.681 159.978 114.681Z" fill="#B6B6B6"/>
<path d="M159.978 114.681C174.972 114.681 187.128 102.525 187.128 87.5302C187.128 72.5355 174.972 60.3799 159.978 60.3799C144.983 60.3799 132.827 72.5355 132.827 87.5302C132.827 102.525 144.983 114.681 159.978 114.681Z" fill="#7BB3F5"/>
<path d="M196.463 92.2312C199.269 92.2312 201.544 89.9559 201.544 87.1493C201.544 84.3426 199.269 82.0674 196.463 82.0674C193.656 82.0674 191.381 84.3426 191.381 87.1493C191.381 89.9559 193.656 92.2312 196.463 92.2312Z" fill="#FF9500"/>
<path fill-rule="evenodd" clip-rule="evenodd" d="M270.591 174.836L251.39 141.58H220.365V141.013H251.554H251.716L251.798 141.157L271.08 174.554L270.591 174.836Z" fill="#FF9500"/>
<path d="M251.554 160.556C262.19 160.556 270.813 151.934 270.813 141.297C270.813 130.66 262.19 122.037 251.554 122.037C240.917 122.037 232.294 130.66 232.294 141.297C232.294 151.934 240.917 160.556 251.554 160.556Z" fill="#343D4E"/>
<path d="M220.367 146.378C223.173 146.378 225.448 144.102 225.448 141.296C225.448 138.489 223.173 136.214 220.367 136.214C217.56 136.214 215.285 138.489 215.285 141.296C215.285 144.102 217.56 146.378 220.367 146.378Z" fill="#5BA921"/>
<path d="M270.835 179.777C273.641 179.777 275.916 177.501 275.916 174.695C275.916 171.888 273.641 169.613 270.835 169.613C268.028 169.613 265.753 171.888 265.753 174.695C265.753 177.501 268.028 179.777 270.835 179.777Z" fill="#57A8DD"/>
<path d="M139.622 127.495C142.429 127.495 144.704 125.22 144.704 122.413C144.704 119.607 142.429 117.332 139.622 117.332C136.815 117.332 134.54 119.607 134.54 122.413C134.54 125.22 136.815 127.495 139.622 127.495Z" fill="#E75627"/>
<path d="M162.704 165.255C172.205 165.255 179.907 157.553 179.907 148.052C179.907 138.551 172.205 130.849 162.704 130.849C153.203 130.849 145.501 138.551 145.501 148.052C145.501 157.553 153.203 165.255 162.704 165.255Z" fill="#FF9500"/>
<path d="M251.554 162.111C263.051 162.111 272.37 152.792 272.37 141.295C272.37 129.799 263.051 120.479 251.554 120.479C240.058 120.479 230.738 129.799 230.738 141.295C230.738 152.792 240.058 162.111 251.554 162.111Z" fill="#8E8E8E"/>
<path d="M251.554 162.111C263.051 162.111 272.37 152.792 272.37 141.295C272.37 129.799 263.051 120.479 251.554 120.479C240.058 120.479 230.738 129.799 230.738 141.295C230.738 152.792 240.058 162.111 251.554 162.111Z" fill="white"/>
<path d="M251.554 162.111C263.051 162.111 272.37 152.792 272.37 141.295C272.37 129.799 263.051 120.479 251.554 120.479C240.058 120.479 230.738 129.799 230.738 141.295C230.738 152.792 240.058 162.111 251.554 162.111Z" fill="#B6B6B6"/>
<path d="M251.554 162.111C263.051 162.111 272.37 152.792 272.37 141.295C272.37 129.799 263.051 120.479 251.554 120.479C240.058 120.479 230.738 129.799 230.738 141.295C230.738 152.792 240.058 162.111 251.554 162.111Z" fill="#79D36A"/>
<path d="M122.293 40.6906C133.529 40.6906 142.638 31.5817 142.638 20.3453C142.638 9.1089 133.529 0 122.293 0C111.057 0 101.948 9.1089 101.948 20.3453C101.948 31.5817 111.057 40.6906 122.293 40.6906Z" fill="#57A8DD"/>
<path d="M205.189 128.685C213.008 128.685 219.346 122.347 219.346 114.528C219.346 106.709 213.008 100.37 205.189 100.37C197.37 100.37 191.031 106.709 191.031 114.528C191.031 122.347 197.37 128.685 205.189 128.685Z" fill="#F5C908"/>
<path d="M313.24 158.448C322.713 158.448 330.392 150.769 330.392 141.296C330.392 131.823 322.713 124.144 313.24 124.144C303.767 124.144 296.088 131.823 296.088 141.296C296.088 150.769 303.767 158.448 313.24 158.448Z" fill="#8E8E8E"/>
<path d="M313.24 158.448C322.713 158.448 330.392 150.769 330.392 141.296C330.392 131.823 322.713 124.144 313.24 124.144C303.767 124.144 296.088 131.823 296.088 141.296C296.088 150.769 303.767 158.448 313.24 158.448Z" fill="white"/>
<path d="M313.24 158.448C322.713 158.448 330.392 150.769 330.392 141.296C330.392 131.823 322.713 124.144 313.24 124.144C303.767 124.144 296.088 131.823 296.088 141.296C296.088 150.769 303.767 158.448 313.24 158.448Z" fill="#B6B6B6"/>
<path d="M313.24 158.448C322.713 158.448 330.392 150.769 330.392 141.296C330.392 131.823 322.713 124.144 313.24 124.144C303.767 124.144 296.088 131.823 296.088 141.296C296.088 150.769 303.767 158.448 313.24 158.448Z" fill="#FFD15B"/>
<path d="M313.24 158.448C322.713 158.448 330.392 150.769 330.392 141.296C330.392 131.823 322.713 124.144 313.24 124.144C303.767 124.144 296.088 131.823 296.088 141.296C296.088 150.769 303.767 158.448 313.24 158.448Z" fill="#FFD15B"/>
<path d="M114.147 129.513C122.529 129.513 129.324 122.718 129.324 114.336C129.324 105.954 122.529 99.1592 114.147 99.1592C105.765 99.1592 98.9697 105.954 98.9697 114.336C98.9697 122.718 105.765 129.513 114.147 129.513Z" fill="#5BA921"/>
<path d="M212.421 178.73C219.828 178.73 225.833 172.726 225.833 165.319C225.833 157.912 219.828 151.908 212.421 151.908C205.014 151.908 199.01 157.912 199.01 165.319C199.01 172.726 205.014 178.73 212.421 178.73Z" fill="#A5A6F6"/>
<path fill-rule="evenodd" clip-rule="evenodd" d="M224.356 210.35H225.552H224.356ZM227.433 220.338H222.475C222.072 220.338 221.743 220.01 221.743 219.607L221.745 210.496C221.745 210.092 222.072 209.765 222.474 209.765H227.433C227.836 209.765 228.164 210.092 228.164 210.496V219.607C228.164 220.01 227.835 220.338 227.433 220.338ZM226.862 211.452H223.043V218.145H226.862V211.452ZM224.356 210.596C224.22 210.596 224.109 210.485 224.109 210.35C224.109 210.214 224.22 210.104 224.356 210.104H225.552C225.686 210.104 225.798 210.214 225.798 210.35C225.798 210.485 225.686 210.596 225.552 210.596H224.356ZM227.518 218.508V218.487L227.52 218.473V211.122L227.518 211.108V211.087C227.518 211.07 227.515 211.056 227.509 211.042C227.473 210.9 227.343 210.794 227.19 210.794H222.716C222.562 210.794 222.433 210.9 222.396 211.043C222.392 211.056 222.388 211.07 222.388 211.087V211.108L222.387 211.122V218.473L222.388 218.487V218.508C222.388 218.523 222.392 218.539 222.396 218.552C222.432 218.695 222.562 218.801 222.716 218.801H227.19C227.343 218.801 227.472 218.695 227.509 218.553C227.515 218.54 227.518 218.523 227.518 218.508ZM225.219 219.175C225.151 219.106 225.056 219.065 224.952 219.065C224.848 219.065 224.754 219.106 224.686 219.175C224.616 219.244 224.575 219.337 224.575 219.441C224.575 219.545 224.616 219.64 224.686 219.707C224.754 219.777 224.848 219.818 224.952 219.818C225.056 219.818 225.149 219.777 225.219 219.707C225.287 219.64 225.329 219.545 225.329 219.441C225.329 219.337 225.287 219.242 225.219 219.175Z" fill="white"/>
<path fill-rule="evenodd" clip-rule="evenodd" d="M77.2944 80.5107H91.1966C91.7643 80.5107 92.2279 80.9755 92.2279 81.5432V90.0867C92.2279 90.6544 91.7643 91.1192 91.1966 91.1192H77.2944C76.7279 91.1192 76.2632 90.6544 76.2632 90.0867V81.5432C76.2632 80.9755 76.7279 80.5107 77.2944 80.5107ZM93.556 92.0015H74.9752C74.4691 92.0015 74.054 92.4166 74.054 92.9239C74.054 93.4313 74.4691 93.8464 74.9752 93.8464H93.556C94.0634 93.8464 94.4785 93.4313 94.4785 92.9239C94.4797 92.4166 94.0634 92.0015 93.556 92.0015ZM91.7702 93.3107H85.3862C85.1733 93.3107 84.9995 93.138 84.9995 92.9239C84.9995 92.7111 85.1721 92.5372 85.3862 92.5372H91.7714C91.9854 92.5372 92.1581 92.7111 92.1581 92.9239C92.1569 93.138 91.9831 93.3107 91.7702 93.3107ZM90.5438 82.4042H77.9473V89.3594H90.5438V82.4042ZM77.4849 81.4782C77.2294 81.4782 77.0212 81.6863 77.0212 81.9418V89.8242C77.0212 90.0808 77.2282 90.2878 77.4849 90.2878H91.0074C91.2628 90.2878 91.4722 90.0808 91.4722 89.8242V81.9418C91.4722 81.6863 91.264 81.4782 91.0074 81.4782H77.4849Z" fill="white"/>
<path fill-rule="evenodd" clip-rule="evenodd" d="M188.799 34.4029C187.294 34.4029 186.073 33.1824 186.073 31.6781C186.073 30.3121 187.079 29.1803 188.391 28.984C188.635 27.074 190.266 25.598 192.242 25.598C193.551 25.598 194.71 26.2461 195.412 27.2396C195.658 27.1662 195.919 27.1272 196.188 27.1272C197.384 27.1272 198.4 27.8983 198.768 28.9686C200.135 29.1153 201.202 30.2719 201.202 31.6781C201.202 33.1824 199.981 34.4029 198.476 34.4029H188.799ZM188.071 31.9205C188.071 31.4889 188.228 31.095 188.487 30.7935C188.751 30.4872 189.121 30.2755 189.538 30.2128C189.788 30.1761 189.958 29.9431 189.923 29.696C189.887 29.4464 189.654 29.2749 189.406 29.3104C188.765 29.4062 188.199 29.7326 187.796 30.2021C187.398 30.6646 187.159 31.2653 187.159 31.9205C187.159 32.1724 187.362 32.377 187.614 32.377C187.866 32.377 188.071 32.1724 188.071 31.9205ZM190.864 27.8758C191.108 27.6322 191.401 27.4347 191.725 27.2999C192.036 27.171 192.38 27.1 192.742 27.1C192.994 27.1 193.199 26.8966 193.199 26.6447C193.199 26.3928 192.994 26.1882 192.742 26.1882C192.262 26.1882 191.799 26.2852 191.38 26.459C190.942 26.64 190.548 26.9061 190.219 27.2348C190.043 27.4122 190.043 27.7008 190.221 27.8782C190.398 28.0544 190.685 28.0544 190.864 27.8758ZM198.866 29.3991C198.759 29.3684 198.651 29.3435 198.541 29.3282C198.428 29.3116 198.318 29.3033 198.208 29.3033C197.963 29.3033 197.725 29.3435 197.496 29.4168C197.262 29.4925 197.045 29.6037 196.851 29.7433H196.852C196.775 29.7988 196.703 29.8568 196.64 29.9159C196.573 29.9774 196.509 30.0437 196.448 30.1146C196.353 30.227 196.268 30.3464 196.197 30.4718V30.473C196.123 30.6007 196.063 30.7343 196.017 30.8692C195.945 31.0773 196.056 31.3056 196.265 31.3777C196.474 31.4487 196.702 31.3375 196.774 31.1293C196.806 31.0347 196.846 30.9484 196.891 30.8692H196.892C196.94 30.784 196.996 30.7048 197.056 30.635C197.094 30.5901 197.136 30.5463 197.181 30.5049C197.229 30.4611 197.275 30.4233 197.319 30.3914H197.32C197.449 30.2991 197.591 30.2258 197.74 30.1773C197.885 30.13 198.043 30.1052 198.208 30.1052C198.286 30.1052 198.36 30.1099 198.429 30.1205C198.503 30.1312 198.574 30.1466 198.642 30.1667C198.854 30.2293 199.076 30.1087 199.138 29.897C199.198 29.683 199.078 29.4618 198.866 29.3991ZM201.533 27.1036C201.585 27.2597 201.749 27.3484 201.908 27.3058L202.307 27.1982C202.393 27.1745 202.459 27.1237 202.5 27.0456C202.543 26.9676 202.55 26.8848 202.523 26.8008C201.6 23.9932 198.705 22.3221 195.813 22.9264C195.726 22.9442 195.658 22.9926 195.612 23.0683C195.565 23.144 195.553 23.2256 195.577 23.312L195.683 23.7117C195.726 23.8702 195.884 23.9683 196.046 23.9352C198.411 23.4527 200.77 24.8151 201.533 27.1036ZM199.776 27.5849C199.832 27.7351 199.993 27.8179 200.148 27.7777L200.548 27.6701C200.635 27.6464 200.701 27.5944 200.744 27.514C200.785 27.4335 200.791 27.3496 200.76 27.2644C200.102 25.4325 198.208 24.3397 196.294 24.685C196.205 24.7016 196.134 24.7489 196.085 24.8246C196.038 24.9003 196.024 24.9842 196.049 25.0718L196.156 25.4715C196.198 25.6276 196.349 25.7246 196.508 25.6974C197.907 25.4609 199.282 26.2556 199.776 27.5849Z" fill="white"/>
<path fill-rule="evenodd" clip-rule="evenodd" d="M207.326 112.74V116.151C207.326 116.51 207.03 116.806 206.67 116.806H198.95C198.59 116.806 198.295 116.512 198.295 116.151V112.74C198.295 112.381 198.59 112.086 198.95 112.086H206.67C207.031 112.086 207.326 112.381 207.326 112.74ZM201.518 122.301H210.914C211.555 122.301 212.08 121.777 212.08 121.135V111.55V110.83L208.004 106.753H207.283H201.518C200.875 106.753 200.351 107.277 200.351 107.921V111.266H201.896V108.479C201.896 108.381 201.977 108.299 202.075 108.299H207.283V109.438V109.869C207.283 110.796 208.039 111.553 208.966 111.553H210.536V120.578C210.536 120.676 210.453 120.757 210.356 120.757H202.076C201.978 120.757 201.896 120.677 201.896 120.578V117.627H200.351V121.135C200.351 121.776 200.873 122.301 201.518 122.301ZM209.115 108.491L208.921 108.297H208.926L209.115 108.491Z" fill="white"/>
<path fill-rule="evenodd" clip-rule="evenodd" d="M251.555 86.3868C253.112 86.3868 254.559 85.9019 255.747 85.0753C255.364 85.0256 254.988 84.9605 254.623 84.8789H254.622C254.405 84.8316 254.19 84.7784 253.978 84.7205C254.074 84.5549 254.139 84.3716 254.17 84.1764C254.358 84.2273 254.551 84.2746 254.745 84.3172C255.278 84.4343 255.83 84.5182 256.396 84.5667C256.518 84.4591 256.637 84.3479 256.753 84.2344C257.355 83.63 257.854 82.924 258.218 82.1411C257.997 81.5911 257.608 80.9927 257.085 80.386C256.514 80.6911 255.853 80.9584 255.112 81.1808C254.859 81.7035 254.553 82.2061 254.193 82.6827C254.102 82.8022 254.009 82.9193 253.911 83.0364C253.801 82.8767 253.665 82.7383 253.505 82.6283C253.584 82.5314 253.662 82.4344 253.737 82.3362C253.967 82.0299 254.176 81.7141 254.36 81.3854C253.108 81.6905 251.658 81.8809 250.041 81.9341C250.442 82.3102 250.882 82.6484 251.354 82.95C251.236 83.099 251.143 83.2717 251.084 83.4586C250.403 83.0304 249.784 82.5243 249.244 81.9483C248.094 81.953 246.869 81.8915 245.575 81.7544C245.456 82.1174 245.359 82.4947 245.29 82.8862C245.592 83.377 245.95 83.8276 246.354 84.2332C246.909 84.7879 247.555 85.2538 248.264 85.611C249.347 85.4064 250.308 85.0492 251.15 84.5774C251.227 84.7548 251.341 84.9156 251.476 85.0516C250.786 85.4442 250.017 85.7647 249.172 85.9918C249.922 86.2485 250.722 86.3868 251.555 86.3868ZM255.259 76.2432C255.946 76.2432 256.503 75.6849 256.503 74.9978C256.503 74.3107 255.946 73.7537 255.259 73.7537C254.572 73.7537 254.014 74.3107 254.014 74.9978C254.014 75.6849 254.572 76.2432 255.259 76.2432ZM247.408 79.4162C248.096 79.4162 248.653 78.8592 248.653 78.1721C248.653 77.4838 248.096 76.9267 247.408 76.9267C246.72 76.9267 246.163 77.4849 246.163 78.1721C246.163 78.8592 246.72 79.4162 247.408 79.4162ZM252.602 85.1758C251.916 85.1758 251.357 84.6188 251.357 83.9304C251.359 83.2433 251.916 82.6863 252.602 82.6863C253.29 82.6863 253.847 83.2433 253.847 83.9304C253.847 84.6188 253.29 85.1758 252.602 85.1758ZM244.483 81.0436C244.302 80.4049 244.206 79.732 244.206 79.0354C244.206 77.5914 244.621 76.2467 245.339 75.1114C245.827 75.0901 246.318 75.1019 246.809 75.1445C246.797 75.6731 246.819 76.1864 246.875 76.6784C247.043 76.6192 247.223 76.5861 247.41 76.5861H247.442C247.393 76.1426 247.372 75.6826 247.381 75.2071C248.346 75.3361 249.305 75.5773 250.231 75.9002L250.107 75.9629C249.533 76.2562 248.978 76.5968 248.457 76.9823C248.601 77.1077 248.722 77.2614 248.812 77.4317C249.303 77.0698 249.825 76.7493 250.366 76.4726C250.569 76.3697 250.772 76.2727 250.979 76.1817C251.707 76.4761 252.41 76.8203 253.073 77.1976C253.887 77.66 254.639 78.1709 255.31 78.7031C255.195 79.3808 254.994 80.0549 254.704 80.703C254.556 80.7444 254.405 80.7834 254.25 80.8212C252.896 81.1536 251.297 81.3475 249.497 81.3712C249.426 81.2919 249.359 81.2115 249.292 81.1299C248.89 80.6367 248.544 80.0951 248.262 79.5085C248.1 79.6102 247.921 79.6847 247.729 79.7249C248.012 80.3186 248.355 80.8685 248.751 81.3724C247.811 81.3605 246.82 81.3049 245.785 81.1997C246.024 80.6225 246.326 80.0833 246.681 79.5842C246.508 79.4955 246.355 79.3748 246.227 79.2329C245.837 79.7793 245.506 80.3718 245.243 81.0093L245.192 81.1346C244.959 81.1063 244.721 81.0779 244.483 81.0436ZM255.416 80.483C255.587 80.0371 255.719 79.5818 255.815 79.1229C256.131 79.3961 256.424 79.6741 256.69 79.9508C256.307 80.1459 255.881 80.3233 255.416 80.483ZM257.2 79.667C256.822 79.2637 256.393 78.8604 255.924 78.4689C256.011 77.7853 256.015 77.0994 255.933 76.4336C255.76 76.514 255.571 76.5648 255.371 76.579C255.426 77.0604 255.432 77.5524 255.393 78.0444C254.771 77.5677 254.086 77.1136 253.357 76.6985C252.838 76.404 252.295 76.1284 251.735 75.8789C252.386 75.6436 253.051 75.4673 253.712 75.3503C253.687 75.2367 253.674 75.1173 253.674 74.9966C253.674 74.9209 253.679 74.8452 253.69 74.7731C252.778 74.9269 251.858 75.193 250.972 75.5619C249.827 75.1161 248.624 74.7873 247.406 74.63C247.445 74.0434 247.529 73.4332 247.659 72.8004C248.789 72.0932 250.125 71.684 251.556 71.684C251.765 71.684 251.974 71.6935 252.178 71.71C253.104 72.2067 253.829 72.8915 254.357 73.6933C254.515 73.5822 254.692 73.5017 254.886 73.4544C254.535 72.9033 254.1 72.4007 253.581 71.9667C254.797 72.3144 255.883 72.9672 256.755 73.8376C257.058 74.1404 257.333 74.4704 257.581 74.8228C257.332 74.7672 257.077 74.7211 256.817 74.688C256.837 74.7873 256.846 74.8914 256.846 74.9966C256.846 75.0889 256.838 75.1799 256.822 75.2675C257.241 75.3254 257.641 75.4141 258.022 75.5336C258.433 76.2916 258.715 77.1313 258.837 78.0219C258.53 78.6369 257.976 79.1927 257.2 79.667ZM258.905 78.9585L258.906 79.0354C258.906 79.8727 258.766 80.6758 258.508 81.4256C258.275 80.9951 257.963 80.548 257.582 80.0986C258.123 79.7568 258.567 79.3737 258.905 78.9585ZM244.997 81.6893C244.893 81.6763 244.788 81.6645 244.682 81.6503C244.742 81.8052 244.805 81.9601 244.874 82.1091C244.913 81.9672 244.953 81.8277 244.997 81.6893ZM245.749 74.5259C246.111 74.5247 246.472 74.5389 246.835 74.5697C246.863 74.1498 246.912 73.7182 246.986 73.2782C246.765 73.4521 246.556 73.6401 246.357 73.8388C246.141 74.0552 245.937 74.2847 245.749 74.5259ZM257.565 85.0481C256.028 86.5867 253.902 87.5376 251.555 87.5376C249.207 87.5376 247.082 86.5867 245.542 85.0481C244.005 83.5094 243.053 81.3842 243.053 79.0366C243.053 76.6902 244.005 74.565 245.542 73.0251C247.082 71.4865 249.207 70.5356 251.555 70.5356C253.902 70.5356 256.028 71.4877 257.565 73.0251C259.105 74.5638 260.056 76.689 260.056 79.0366C260.057 81.383 259.105 83.5082 257.565 85.0481Z" fill="white"/>
<path fill-rule="evenodd" clip-rule="evenodd" d="M214.976 158.677C212.407 158.287 210.009 160.054 209.62 162.621C207.958 162.369 206.463 161.696 205.228 160.727C205.117 161.112 205.031 161.508 204.969 161.915C204.448 165.359 205.86 168.647 208.397 170.678C207.614 170.984 206.785 171.188 205.927 171.276C211.575 173.681 218.589 169.936 218.965 163.598C219.645 163.352 220.269 162.989 220.978 162.588L219.535 162.439L221.216 161.256C220.001 161.525 219.2 161.586 218.628 161.559C218.026 160.076 216.678 158.936 214.976 158.677ZM215.916 160.406C216.512 160.497 216.921 161.053 216.83 161.648C216.739 162.243 216.183 162.653 215.589 162.561C214.994 162.47 214.582 161.915 214.674 161.32C214.767 160.725 215.321 160.316 215.916 160.406Z" fill="white"/>
<path fill-rule="evenodd" clip-rule="evenodd" d="M257.105 144.709C259.888 144.849 260.974 146.478 262.746 148.221C262.762 146.961 262.799 145.8 262.478 144.556H262.534C263.172 144.556 263.692 144.034 263.692 143.397C263.692 140.909 263.692 135.652 263.692 133.163C263.692 132.525 263.172 132.004 262.534 132.004C257.729 132.004 252.921 132.004 248.116 132.004C247.479 132.004 246.958 132.525 246.958 133.163V133.416H255.186C256.129 133.416 256.917 134.102 257.078 135.001L257.107 135H260.891C261.153 135 261.367 135.214 261.367 135.475C261.367 135.738 261.15 135.951 260.891 135.951H257.107V137.557H260.891C261.153 137.557 261.367 137.771 261.367 138.034C261.367 138.295 261.15 138.509 260.891 138.509H257.107V140.276H260.891C261.153 140.276 261.367 140.49 261.367 140.75C261.367 141.014 261.15 141.227 260.891 141.227H257.107V144.709H257.105ZM256.149 145.865C256.149 146.19 256.03 146.471 255.799 146.697C255.564 146.921 255.281 147.034 254.957 147.024C250.412 146.898 244.667 146.251 241.745 149.213C241.287 149.677 240.825 150.133 240.359 150.591C240.342 149.328 240.308 148.167 240.627 146.926H240.572C239.932 146.926 239.413 146.404 239.413 145.767V135.533C239.413 134.895 239.932 134.373 240.572 134.373C245.377 134.373 250.183 134.373 254.99 134.373C255.627 134.373 256.147 134.895 256.147 135.533C256.149 138.055 256.149 143.344 256.149 145.865ZM242.216 137.294H253.347C253.607 137.294 253.821 137.51 253.821 137.77C253.821 138.032 253.606 138.246 253.347 138.246H242.216C241.953 138.246 241.739 138.032 241.739 137.77C241.738 137.51 241.952 137.294 242.216 137.294ZM242.216 139.853H253.347C253.607 139.853 253.821 140.067 253.821 140.329C253.821 140.592 253.606 140.806 253.347 140.806L242.216 140.805C241.953 140.805 241.739 140.592 241.739 140.33C241.738 140.067 241.952 139.854 242.216 139.853ZM242.216 142.57H253.347C253.607 142.57 253.821 142.784 253.821 143.046C253.821 143.309 253.606 143.522 253.347 143.522H242.216C241.953 143.522 241.739 143.309 241.739 143.046C241.738 142.784 241.952 142.571 242.216 142.57ZM241.229 148.526C241.297 147.671 241.468 147.051 241.731 146.257H241.095C240.638 146.257 240.267 145.884 240.267 145.429V136.055C240.267 135.599 240.638 135.226 241.095 135.226C245.552 135.226 250.011 135.226 254.468 135.226C254.926 135.226 255.296 135.599 255.296 136.055C255.296 138.254 255.296 143.222 255.296 145.42C255.296 145.65 255.213 145.85 255.049 146.011C254.883 146.171 254.685 146.252 254.453 146.247C250.329 146.175 243.4 145.724 241.229 148.526Z" fill="white"/>
<path fill-rule="evenodd" clip-rule="evenodd" d="M212.844 56.354H198.906C198.651 56.354 198.419 56.4593 198.251 56.6272C198.092 56.7845 197.992 56.9986 197.98 57.2363L205.403 62.8492C205.545 62.9556 205.709 63.01 205.873 63.01C206.037 63.01 206.203 62.9568 206.344 62.8492L213.768 57.2363C213.755 56.9997 213.654 56.7857 213.498 56.6284C213.332 56.4581 213.098 56.354 212.844 56.354ZM213.772 64.6267L209.558 61.4418L213.772 58.2557V64.6267ZM213.499 66.2564C213.331 66.4244 213.098 66.5284 212.842 66.5284H198.905C198.649 66.5284 198.418 66.4244 198.25 66.2564C198.091 66.0991 197.991 65.8851 197.979 65.6473L202.867 61.9515L205.16 63.6853C205.375 63.8473 205.625 63.9289 205.873 63.9289C206.124 63.9289 206.374 63.8485 206.587 63.6853L208.879 61.9515L213.77 65.6473C213.758 65.8851 213.656 66.0991 213.499 66.2564ZM197.979 58.2557L202.193 61.4418L197.979 64.6267V58.2557Z" fill="white"/>
<path fill-rule="evenodd" clip-rule="evenodd" d="M119.281 121.509C118.882 114.897 113.589 109.603 106.974 109.205C106.523 109.178 106.172 108.805 106.172 108.352V107.217C106.172 106.973 106.262 106.765 106.438 106.597C106.615 106.43 106.83 106.352 107.073 106.365C115.178 106.816 121.67 113.309 122.119 121.412C122.133 121.655 122.054 121.87 121.889 122.046C121.721 122.222 121.51 122.313 121.269 122.313H120.134C119.681 122.312 119.308 121.962 119.281 121.509ZM114.277 121.539C114.318 121.979 114.685 122.312 115.127 122.312H116.265C116.512 122.312 116.726 122.219 116.893 122.037C117.061 121.856 117.135 121.634 117.115 121.388C116.672 116.062 112.424 111.814 107.096 111.37C106.85 111.35 106.63 111.426 106.448 111.593C106.266 111.76 106.172 111.973 106.172 112.221V113.359C106.172 113.802 106.506 114.168 106.946 114.21C110.825 114.573 113.91 117.66 114.277 121.539Z" fill="white"/>
<path d="M108.508 122.313C109.8 122.313 110.847 121.267 110.847 119.975C110.847 118.684 109.8 117.637 108.508 117.637C107.217 117.637 106.17 118.684 106.17 119.975C106.17 121.267 107.217 122.313 108.508 122.313Z" fill="white"/>
<path fill-rule="evenodd" clip-rule="evenodd" d="M310.267 137.606L317.492 141.166L310.267 144.727V137.606ZM307.389 136.115V146.217H319.001V136.115H307.389ZM307.035 149.062V147.457H319.448V149.062H323.559V133.532H319.448V134.878H307.035V133.532H302.924V149.062H307.035ZM306.032 136.262C306.032 136.521 305.823 136.73 305.564 136.73H304.378C304.117 136.73 303.909 136.52 303.909 136.262V135.325C303.909 135.067 304.12 134.857 304.378 134.857C304.774 134.857 305.17 134.857 305.565 134.857C305.825 134.857 306.033 135.067 306.033 135.325V136.262H306.032ZM306.032 146.875C306.032 147.132 305.823 147.343 305.564 147.343H304.378C304.117 147.343 303.909 147.133 303.909 146.875V145.937C303.909 145.679 304.12 145.469 304.378 145.469C304.774 145.469 305.17 145.469 305.565 145.469C305.825 145.469 306.033 145.677 306.033 145.937V146.875H306.032ZM306.032 143.336C306.032 143.594 305.823 143.806 305.564 143.806C305.168 143.806 304.771 143.806 304.376 143.806C304.116 143.806 303.908 143.595 303.908 143.338C303.908 143.024 303.908 142.713 303.908 142.4C303.908 142.142 304.119 141.93 304.376 141.93C304.771 141.931 305.168 141.93 305.563 141.93C305.823 141.93 306.031 142.142 306.031 142.4C306.032 142.712 306.032 143.024 306.032 143.336ZM306.032 139.799C306.032 140.058 305.823 140.269 305.564 140.269C305.168 140.269 304.771 140.269 304.376 140.269C304.116 140.269 303.908 140.058 303.908 139.799C303.908 139.488 303.908 139.175 303.908 138.862C303.908 138.605 304.119 138.393 304.376 138.393C304.771 138.393 305.168 138.393 305.563 138.393C305.823 138.393 306.031 138.603 306.031 138.862C306.032 139.175 306.032 139.487 306.032 139.799ZM322.555 146.875C322.555 147.133 322.345 147.343 322.087 147.343L320.899 147.345C320.642 147.343 320.431 147.133 320.431 146.876H320.43V145.938C320.43 145.681 320.64 145.47 320.898 145.47C321.294 145.47 321.689 145.47 322.086 145.47C322.345 145.47 322.554 145.678 322.554 145.938V146.875H322.555ZM322.555 136.262C322.555 136.521 322.345 136.73 322.087 136.73H320.899C320.642 136.73 320.431 136.52 320.431 136.262H320.43V135.325C320.43 135.067 320.64 134.857 320.898 134.857C321.294 134.857 321.689 134.857 322.086 134.857C322.345 134.857 322.554 135.067 322.554 135.325V136.262H322.555ZM322.555 143.336C322.555 143.594 322.345 143.806 322.087 143.806C321.691 143.806 321.296 143.806 320.901 143.806C320.642 143.806 320.432 143.595 320.432 143.338C320.432 143.338 320.432 143.338 320.431 143.338C320.431 143.024 320.431 142.712 320.431 142.4C320.431 142.142 320.642 141.93 320.899 141.93C321.296 141.931 321.691 141.93 322.087 141.93C322.347 141.93 322.555 142.142 322.555 142.4C322.555 142.712 322.555 143.024 322.555 143.336ZM322.555 139.799C322.555 140.058 322.345 140.269 322.087 140.269C321.691 140.269 321.296 140.269 320.901 140.269C320.642 140.269 320.432 140.058 320.432 139.799C320.432 139.799 320.432 139.799 320.431 139.799C320.431 139.487 320.431 139.175 320.431 138.862C320.431 138.605 320.642 138.393 320.899 138.393C321.296 138.393 321.691 138.393 322.087 138.393C322.347 138.393 322.555 138.603 322.555 138.862C322.555 139.175 322.555 139.487 322.555 139.799Z" fill="white"/>
<path fill-rule="evenodd" clip-rule="evenodd" d="M283.33 77.6737L284.31 77.391L291.238 75.4526C291.398 75.4526 291.524 75.5815 291.524 75.7388V77.5128V84.2079V84.6585C291.524 85.6294 290.643 86.4159 289.555 86.4159C288.468 86.4159 287.586 85.6294 287.586 84.6585C287.586 83.6887 288.468 82.9022 289.555 82.9022C289.922 82.9022 290.264 82.9897 290.558 83.1458V78.1645L284.01 79.9858V82.9755V86.4715V86.7459C284.01 87.7168 283.129 88.5033 282.042 88.5033C280.954 88.5033 280.073 87.7168 280.073 86.7459C280.073 85.7761 280.954 84.9896 282.042 84.9896C282.409 84.9896 282.749 85.0783 283.042 85.2344V79.2289V78.8291V77.9587C283.042 77.8026 283.17 77.6737 283.33 77.6737Z" fill="white"/>
<path fill-rule="evenodd" clip-rule="evenodd" d="M105.483 53.3008H107.693C108.367 53.3008 107.962 52.519 108.946 52.519C113.281 52.519 111.922 53.762 113.032 58.5317C113.161 59.084 113.003 59.6067 112.614 60.0408C112.227 60.476 111.702 60.7042 111.094 60.7042H111.061C110.086 60.7042 109.268 60.0597 109.115 59.1656L108.923 58.061C108.85 57.64 108.465 57.3372 108.007 57.3372H105.171C104.71 57.3372 104.327 57.6411 104.254 58.061L104.062 59.1656C103.907 60.0585 103.091 60.7042 102.116 60.7042H102.083C101.474 60.7042 100.95 60.476 100.562 60.0408C100.174 59.6055 100.016 59.0828 100.145 58.5317C101.255 53.762 99.897 52.519 104.231 52.519C105.214 52.5202 104.809 53.3008 105.483 53.3008ZM103.054 54.0033C102.855 54.0033 102.694 54.1641 102.694 54.3628V54.8205H102.236C102.038 54.8205 101.877 54.9813 101.877 55.1788V55.4497C101.877 55.6472 102.038 55.8092 102.236 55.8092H102.694V56.2669C102.694 56.4644 102.855 56.6264 103.054 56.6264H103.324C103.522 56.6264 103.684 56.4644 103.684 56.2669V55.808H104.142C104.339 55.808 104.501 55.646 104.501 55.4485V55.1777C104.501 54.9802 104.34 54.8193 104.142 54.8193H103.684V54.3616C103.684 54.1629 103.522 54.0021 103.324 54.0021H103.054V54.0033ZM106.001 56.2468V56.598H107.302V56.2468H106.001ZM110.372 54.2457C110.139 54.4787 110.139 54.8583 110.372 55.0913C110.605 55.3255 110.984 55.3255 111.217 55.0913C111.45 54.8583 111.45 54.4799 111.217 54.2457C110.984 54.0116 110.605 54.0116 110.372 54.2457ZM109.064 55.471C108.831 55.7039 108.83 56.0836 109.064 56.3177C109.298 56.5507 109.676 56.5507 109.909 56.3177C110.144 56.0836 110.144 55.7039 109.909 55.471C109.676 55.238 109.297 55.238 109.064 55.471Z" fill="white"/>
<path fill-rule="evenodd" clip-rule="evenodd" d="M292.331 160.209C293.427 160.209 294.42 160.654 295.139 161.373C295.855 162.091 296.301 163.085 296.301 164.182C296.301 164.816 296.152 165.414 295.887 165.945C295.968 165.996 296.044 166.058 296.114 166.129L299.038 169.051C299.543 169.556 299.543 170.383 299.038 170.888C298.532 171.393 297.706 171.393 297.2 170.888L294.278 167.965C294.207 167.894 294.148 167.819 294.097 167.738C293.564 168.003 292.965 168.153 292.33 168.153C291.232 168.153 290.239 167.709 289.521 166.991C288.803 166.272 288.358 165.28 288.358 164.183C288.358 163.087 288.803 162.093 289.521 161.374C290.241 160.654 291.233 160.209 292.331 160.209ZM294.275 162.237C293.776 161.739 293.09 161.431 292.33 161.431C291.569 161.431 290.881 161.739 290.383 162.237C289.886 162.733 289.578 163.422 289.578 164.182C289.578 164.941 289.886 165.63 290.383 166.128C290.881 166.624 291.569 166.933 292.33 166.933C293.09 166.933 293.777 166.624 294.275 166.128C294.773 165.63 295.081 164.941 295.081 164.182C295.081 163.422 294.772 162.733 294.275 162.237Z" fill="white"/>
<path fill-rule="evenodd" clip-rule="evenodd" d="M155.704 31.8733H164.879C165.052 31.8733 165.19 32.0128 165.19 32.1831V40.58C165.19 40.7515 165.052 40.8899 164.879 40.8899H155.704C155.532 40.8899 155.394 40.7515 155.394 40.58V32.1831C155.394 32.0128 155.534 31.8733 155.704 31.8733ZM155.192 30.6279C154.61 30.6279 154.135 31.1034 154.135 31.6852C154.135 35.0854 154.135 38.4855 154.135 41.8868C154.135 42.4687 154.61 42.943 155.192 42.943C158.592 42.943 161.993 42.943 165.393 42.943C165.975 42.943 166.451 42.4687 166.451 41.8868C166.451 38.4867 166.451 35.0866 166.451 31.6852C166.451 31.1034 165.976 30.6279 165.393 30.6279C161.992 30.6279 158.592 30.6279 155.192 30.6279ZM165.283 31.4416H155.302C155.108 31.4416 154.949 31.6001 154.949 31.7952V41.7769C154.949 41.9708 155.108 42.1293 155.302 42.1293H165.283C165.477 42.1293 165.636 41.9708 165.636 41.7769L165.637 31.7952C165.637 31.6001 165.477 31.4428 165.283 31.4416ZM164.569 38.3992V32.4942H156.015V36.7849L156.106 36.7174C156.399 36.5022 156.8 36.5093 157.085 36.7328L159.76 38.8285C160.032 39.0426 160.406 39.0591 160.698 38.8723L162.716 37.5796C163.017 37.3868 163.408 37.4117 163.677 37.6423L164.569 38.3992ZM161.823 33.3173C160.944 33.3173 160.232 34.0304 160.232 34.908C160.232 35.7855 160.944 36.4975 161.823 36.4975C162.702 36.4975 163.414 35.7855 163.414 34.908C163.414 34.0304 162.702 33.3173 161.823 33.3173Z" fill="white"/>
<path fill-rule="evenodd" clip-rule="evenodd" d="M223.41 102.017H225.272C225.272 100.833 225.272 99.8914 225.272 98.7064H227.589C227.589 99.8914 227.589 100.833 227.589 102.017H229.458C229.622 102.017 229.756 101.882 229.756 101.719C229.756 100.892 229.756 98.8613 229.756 98.0311C229.756 98.0181 229.756 98.0062 229.755 97.9956H230.462C230.595 97.9956 230.711 97.9353 230.786 97.8241C230.862 97.7129 230.876 97.5829 230.826 97.4587C230.763 97.3026 230.671 97.1677 230.555 97.0625L226.872 93.7475C226.599 93.5015 226.266 93.5015 225.994 93.7475L222.31 97.0625C222.193 97.1677 222.102 97.3026 222.039 97.4587C221.99 97.5829 222.005 97.7129 222.08 97.8241C222.155 97.9353 222.27 97.9956 222.403 97.9956H223.11C223.109 98.0074 223.109 98.0192 223.109 98.0311C223.109 98.8613 223.109 100.892 223.109 101.719C223.11 101.882 223.245 102.017 223.41 102.017Z" fill="white"/>
<path fill-rule="evenodd" clip-rule="evenodd" d="M120.426 26.5143C119.076 24.4317 118.264 22.2425 117.94 19.7992L117.909 19.4988C121.202 17.8336 122.577 13.3182 123.997 10.2102C124.224 9.71109 124.927 8.27652 125.444 9.64012C126.242 11.7429 122.396 16.8792 127.581 16.9348C128.661 16.9454 131.236 16.9289 131.77 17.7555C132.028 18.1541 131.901 18.8649 131.767 19.293C131.382 20.5218 131.868 20.2781 131.758 21.4241C131.66 22.4495 131.053 22.4566 131.184 23.4169C131.407 25.0478 130.114 24.6363 130.141 26.0034C130.157 26.778 129.937 27.0193 129.828 27.1376C128.685 28.3959 121.528 28.1239 120.426 26.5143ZM117.019 18.6579C116.749 18.0583 115.966 17.8253 115.368 18.1056L113.669 18.9618C113.052 19.2729 112.665 19.8488 112.665 20.5419V29.8766C112.665 30.4609 112.927 30.9658 113.404 31.3029C113.883 31.6388 114.445 31.7157 114.997 31.5181L119.691 29.84C119.882 29.7714 120.038 29.6909 120.166 29.5999C120.584 29.2995 120.682 28.9009 120.61 28.4941C118.569 25.6581 117.003 22.5725 117.019 18.6579Z" fill="white"/>
<path fill-rule="evenodd" clip-rule="evenodd" d="M301.651 110.705C302.141 111.195 302.387 111.839 302.387 112.484C302.387 113.126 302.141 113.769 301.65 114.26L301.651 114.262L300.026 115.887L300.025 115.886C299.534 116.378 298.89 116.623 298.248 116.623C297.603 116.623 296.959 116.378 296.468 115.889C296.236 115.656 296.057 115.388 295.936 115.103L296.516 114.523L296.564 114.475C296.64 114.409 296.726 114.358 296.815 114.322C296.904 114.285 297 114.262 297.098 114.255C297.129 114.502 297.239 114.743 297.427 114.931C297.65 115.156 297.948 115.268 298.246 115.268C298.546 115.268 298.844 115.156 299.066 114.933V114.931L300.691 113.306H300.693C300.916 113.083 301.028 112.784 301.028 112.486C301.028 112.188 300.916 111.891 300.691 111.666C300.466 111.442 300.168 111.328 299.871 111.328C299.572 111.328 299.274 111.441 299.049 111.665L299.051 111.666L298.109 112.608C297.808 112.499 297.492 112.445 297.176 112.445C296.854 112.445 296.53 112.501 296.223 112.615C296.296 112.517 296.378 112.421 296.467 112.332L298.092 110.707H298.094C298.584 110.217 299.228 109.972 299.871 109.972C300.517 109.969 301.162 110.214 301.651 110.705Z" fill="white"/>
<path fill-rule="evenodd" clip-rule="evenodd" d="M298.959 113.403C299.191 113.636 299.368 113.903 299.49 114.19L298.91 114.77L298.867 114.813C298.79 114.881 298.702 114.934 298.611 114.971C298.521 115.008 298.425 115.031 298.328 115.039C298.298 114.792 298.188 114.552 298 114.363C297.775 114.139 297.478 114.026 297.18 114.026C296.881 114.026 296.583 114.139 296.359 114.362L296.361 114.363L294.736 115.988C294.511 116.213 294.399 116.51 294.399 116.809C294.399 117.106 294.511 117.404 294.736 117.629C294.96 117.855 295.257 117.967 295.555 117.967C295.856 117.967 296.154 117.855 296.375 117.632V117.629L297.317 116.687L297.342 116.697C297.637 116.8 297.944 116.851 298.25 116.851C298.571 116.851 298.893 116.794 299.2 116.68C299.128 116.778 299.046 116.873 298.958 116.962L298.96 116.963L297.335 118.588L297.334 118.587C296.842 119.078 296.197 119.322 295.555 119.322C294.911 119.322 294.266 119.078 293.776 118.588C293.287 118.098 293.042 117.454 293.042 116.809C293.042 116.165 293.287 115.52 293.776 115.029L295.4 113.404H295.404C295.893 112.915 296.538 112.67 297.18 112.67C297.823 112.669 298.468 112.914 298.959 113.403Z" fill="white"/>
<path fill-rule="evenodd" clip-rule="evenodd" d="M152.318 81.1384L158.294 81.1408C158.535 81.1408 158.734 81.3395 158.734 81.5819L158.732 88.7725C158.732 89.0149 158.533 89.2124 158.291 89.2124L152.315 89.2101C152.073 89.2101 151.876 89.0114 151.876 88.7701L151.878 81.5784C151.878 81.3347 152.077 81.1384 152.318 81.1384ZM157.344 89.8499C156.858 93.9762 157.136 94.849 157.641 97.3456C157.672 97.4982 157.607 97.7158 157.47 97.7276C153.792 98.0268 152.989 92.8018 152.872 89.8002L157.35 89.8014L157.344 89.8499ZM159.411 88.8576C162.219 89.449 163.219 93.0041 168.966 93.0289L168.97 85.1748L168.974 77.3208C163.223 77.3397 162.223 80.8983 159.411 81.4849V88.8576V88.8576ZM169.51 77.3208H170.458C170.959 77.3208 171.368 77.7312 171.367 78.2326L171.361 92.1194C171.361 92.6209 170.952 93.0301 170.449 93.0301H169.502L169.51 77.3208ZM171.953 87.7069C172.579 87.0695 172.97 86.1706 172.97 85.1737C172.971 84.1767 172.581 83.2779 171.955 82.6404C171.927 84.321 171.927 86.0252 171.953 87.7069ZM147.643 82.23L150.274 81.5133C150.6 81.4246 150.908 81.4518 151.215 81.5961L151.276 81.6257L151.258 88.7311L151.222 88.7477C150.929 88.8718 150.641 88.8919 150.332 88.8092C149.59 88.6105 148.253 88.3609 147.658 88.1043C147.217 87.9151 147.007 87.4112 147.004 86.8601L146.99 83.4955C146.989 82.9372 147.196 82.424 147.643 82.23Z" fill="white"/>
<path fill-rule="evenodd" clip-rule="evenodd" d="M165.313 147.81C166.019 146.822 166.938 145.666 166.938 144.208C166.938 143.892 166.944 143.62 166.947 143.354C166.993 140.699 167.188 138.67 163.107 138.67C159.026 138.67 159.221 140.699 159.267 143.354C159.27 143.62 159.275 143.892 159.275 144.208C159.275 145.666 160.194 146.821 160.901 147.81C161.29 148.354 161.288 148.835 161.259 149.423C161.23 150 160.188 150.239 159.12 150.537V151.376H160.925V151.373C161.357 151.373 161.752 151.551 162.039 151.837L162.04 151.838L162.041 151.841C162.326 152.127 162.505 152.522 162.505 152.953L162.501 152.956V153.21H162.504C162.504 153.644 162.326 154.038 162.041 154.325C161.754 154.614 161.359 154.792 160.926 154.792H159.12V156.648C159.12 156.804 159.097 156.956 159.054 157.099H163.108H169.213C169.881 157.099 170.426 156.555 170.426 155.886C170.426 155.063 170.426 154.241 170.426 153.418C170.426 152.467 169.715 151.705 168.677 151.13C167.561 150.512 165.002 150.292 164.957 149.423C164.926 148.835 164.924 148.354 165.313 147.81ZM156.355 156.649V153.995H153.791C153.358 153.995 153.007 153.643 153.007 153.21V152.955C153.007 152.524 153.36 152.17 153.791 152.17H156.355V149.517C156.355 149.086 156.711 148.734 157.14 148.734H157.538C157.971 148.734 158.323 149.085 158.323 149.515V152.169H160.925C161.355 152.169 161.708 152.522 161.708 152.952L161.707 153.209C161.707 153.641 161.355 153.993 160.926 153.993H158.323V156.647C158.323 157.077 157.972 157.431 157.538 157.431L157.14 157.432C156.711 157.434 156.355 157.08 156.355 156.649Z" fill="white"/>
</svg>
