<svg width="80" height="80" viewBox="0 0 80 80" fill="none" xmlns="http://www.w3.org/2000/svg">
<circle cx="40" cy="40" r="40" fill="#FFD15B"/>
<path d="M61 56.5556V25.4444C60.9965 24.2668 60.5271 23.1384 59.6944 22.3056C58.8616 21.4729 57.7332 21.0035 56.5556 21H25.4444C24.2668 21.0035 23.1384 21.4729 22.3056 22.3056C21.4729 23.1384 21.0035 24.2668 21 25.4444V56.5556C21.0035 57.7332 21.4729 58.8616 22.3056 59.6944C23.1384 60.5271 24.2668 60.9965 25.4444 61H56.5556C57.7332 60.9965 58.8616 60.5271 59.6944 59.6944C60.5271 58.8616 60.9965 57.7332 61 56.5556ZM33.2222 44.3333L38.7778 51.0222L46.5556 41L56.5556 54.3333H25.4444L33.2222 44.3333Z" fill="white"/>
</svg>
