<svg width="140" height="23" viewBox="0 0 140 23" fill="none" xmlns="http://www.w3.org/2000/svg">
<path d="M6.30139 21.2262C5.03508 21.2262 3.91952 21.1005 2.95472 20.8493C1.99996 20.588 1.26631 20.2714 0.753754 19.8996C0.251251 19.5277 0 19.176 0 18.8443C0 18.583 0.0954755 18.2614 0.286427 17.8795C0.487428 17.4976 0.723604 17.171 0.994956 16.8996C1.26631 16.6182 1.49243 16.4775 1.67333 16.4775C1.78388 16.4775 2.02006 16.573 2.38186 16.7639C2.92457 17.0453 3.43712 17.2715 3.91952 17.4423C4.41197 17.6132 4.97478 17.6986 5.60793 17.6986C6.31144 17.6986 6.90439 17.5629 7.38679 17.2916C7.87924 17.0102 8.12547 16.5227 8.12547 15.8293C8.12547 15.4273 7.99985 15.0806 7.74859 14.7891C7.49734 14.4977 7.17574 14.2514 6.78379 14.0504C6.39184 13.8494 5.85918 13.6132 5.18583 13.3419L3.9949 12.8293C3.27129 12.4776 2.64819 12.0907 2.12559 11.6686C1.61303 11.2465 1.19093 10.6887 0.85928 9.99523C0.537678 9.30177 0.376877 8.45254 0.376877 7.44754C0.376877 6.22143 0.678379 5.20135 1.28138 4.3873C1.88439 3.57324 2.66829 2.97526 3.6331 2.59336C4.5979 2.21146 5.63306 2.02051 6.73856 2.02051C7.64307 2.02051 8.46215 2.11598 9.1958 2.30693C9.92945 2.48784 10.5023 2.72401 10.9144 3.01546C11.3365 3.30692 11.5475 3.59837 11.5475 3.88982C11.5475 4.13102 11.4671 4.44257 11.3063 4.82447C11.1556 5.19633 10.9646 5.52295 10.7335 5.80435C10.5023 6.08576 10.2862 6.22646 10.0852 6.22646C9.99478 6.22646 9.83398 6.17621 9.60283 6.07571C9.23098 5.92496 8.8541 5.80435 8.4722 5.7139C8.10035 5.6134 7.64307 5.56315 7.10037 5.56315C6.16571 5.56315 5.51748 5.7139 5.15568 6.01541C4.79388 6.30686 4.61298 6.65358 4.61298 7.05559C4.61298 7.51789 4.73358 7.90482 4.97478 8.21637C5.22603 8.52792 5.53758 8.7842 5.90943 8.9852C6.29134 9.1862 6.81896 9.41735 7.49232 9.67865C8.50737 10.1108 9.3365 10.5229 9.97971 10.9148C10.6229 11.2967 11.1757 11.8495 11.638 12.5731C12.1103 13.2967 12.3465 14.2213 12.3465 15.3469C12.3465 16.7237 12.055 17.8544 11.4721 18.7388C10.8993 19.6131 10.1556 20.2463 9.24103 20.6382C8.33652 21.0302 7.35664 21.2262 6.30139 21.2262Z" fill="#A3A3A3"/>
<path d="M19.7182 21.0453C18.6429 21.0453 18.1052 20.7639 18.1052 20.2011V5.74405H13.854C13.5726 5.74405 13.3666 5.63853 13.2359 5.42748C13.1153 5.21643 13.055 4.87473 13.055 4.40237V3.58832C13.055 3.11597 13.1153 2.77426 13.2359 2.56321C13.3666 2.35216 13.5726 2.24664 13.854 2.24664H26.5321C26.8135 2.24664 27.0146 2.35216 27.1352 2.56321C27.2658 2.77426 27.3311 3.11597 27.3311 3.58832V4.40237C27.3311 4.87473 27.2658 5.21643 27.1352 5.42748C27.0146 5.63853 26.8135 5.74405 26.5321 5.74405H22.2659V20.2011C22.2659 20.7639 21.7282 21.0453 20.6529 21.0453H19.7182Z" fill="#A3A3A3"/>
<path d="M28.1 21.0453C27.0045 21.0453 26.4568 20.8493 26.4568 20.4573C26.4568 20.3468 26.4919 20.186 26.5623 19.9749L32.4717 2.74411C32.6124 2.36221 33.12 2.17126 33.9943 2.17126H35.3812C36.2556 2.17126 36.7631 2.36221 36.9038 2.74411L42.8132 19.9749C42.8635 20.1759 42.8886 20.3367 42.8886 20.4573C42.8886 20.6583 42.7781 20.8091 42.557 20.9096C42.3459 21 42.0092 21.0453 41.5469 21.0453H40.3711C39.949 21.0453 39.6073 21.0051 39.346 20.9247C39.0947 20.8342 38.9389 20.6885 38.8786 20.4875L37.7932 17.2162H31.4768L30.3914 20.4875C30.2808 20.8593 29.8688 21.0453 29.1552 21.0453H28.1ZM36.6475 13.6735L35.1249 8.90982C35.0345 8.66862 34.9541 8.39224 34.8837 8.08069C34.8234 7.76914 34.7682 7.47266 34.7179 7.19126H34.6124L34.5521 7.52291C34.4516 8.11587 34.336 8.57817 34.2054 8.90982L32.6225 13.6735H36.6475Z" fill="#A3A3A3"/>
<path d="M46.3559 21.0453C45.2805 21.0453 44.7429 20.7639 44.7429 20.2011V3.30189C44.7429 2.93004 44.8283 2.66371 44.9991 2.50291C45.17 2.33206 45.4413 2.24664 45.8132 2.24664H51.0442C55.4864 2.24664 57.7074 3.91997 57.7074 7.26664C57.7074 8.28169 57.421 9.15605 56.8481 9.8897C56.2853 10.6234 55.5266 11.1711 54.5718 11.5329V11.6384C54.9035 11.7791 55.2502 12.0806 55.612 12.5429C55.9838 13.0052 56.2803 13.5278 56.5014 14.1107L58.8682 20.0051C58.9486 20.2463 58.9888 20.4171 58.9888 20.5176C58.9888 20.8694 58.4562 21.0453 57.3908 21.0453H56.2904C55.3959 21.0453 54.8783 20.8593 54.7376 20.4875L52.612 15.2564C52.411 14.8544 52.2151 14.5429 52.0241 14.3218C51.8432 14.1007 51.5869 13.9348 51.2553 13.8243C50.9236 13.7037 50.4764 13.6434 49.9136 13.6434H48.8734V20.2011C48.8734 20.7639 48.3357 21.0453 47.2604 21.0453H46.3559ZM51.406 10.0857C51.7678 10.0857 52.1095 9.98518 52.4311 9.78418C52.7527 9.57313 53.009 9.29172 53.2 8.93997C53.3909 8.58822 53.4864 8.20129 53.4864 7.77919C53.4864 7.15609 53.2804 6.66363 52.8683 6.30183C52.4663 5.92998 51.9186 5.74405 51.2251 5.74405H48.8734V10.0857H51.406Z" fill="#A3A3A3"/>
<path d="M66.1495 21.2262C64.8832 21.2262 63.7676 21.1005 62.8028 20.8493C61.848 20.588 61.1144 20.2714 60.6018 19.8996C60.0993 19.5277 59.8481 19.176 59.8481 18.8443C59.8481 18.583 59.9436 18.2614 60.1345 17.8795C60.3355 17.4976 60.5717 17.171 60.843 16.8996C61.1144 16.6182 61.3405 16.4775 61.5214 16.4775C61.632 16.4775 61.8681 16.573 62.2299 16.7639C62.7727 17.0453 63.2852 17.2715 63.7676 17.4423C64.2601 17.6132 64.8229 17.6986 65.456 17.6986C66.1595 17.6986 66.7525 17.5629 67.2349 17.2916C67.7273 17.0102 67.9736 16.5227 67.9736 15.8293C67.9736 15.4273 67.8479 15.0806 67.5967 14.7891C67.3454 14.4977 67.0238 14.2514 66.6319 14.0504C66.2399 13.8494 65.7073 13.6132 65.0339 13.3419L63.843 12.8293C63.1194 12.4776 62.4963 12.0907 61.9737 11.6686C61.4611 11.2465 61.039 10.6887 60.7074 9.99523C60.3858 9.30177 60.225 8.45254 60.225 7.44754C60.225 6.22143 60.5265 5.20135 61.1295 4.3873C61.7325 3.57324 62.5164 2.97526 63.4812 2.59336C64.446 2.21146 65.4811 2.02051 66.5866 2.02051C67.4912 2.02051 68.3102 2.11598 69.0439 2.30693C69.7775 2.48784 70.3504 2.72401 70.7625 3.01546C71.1846 3.30692 71.3956 3.59837 71.3956 3.88982C71.3956 4.13102 71.3152 4.44257 71.1544 4.82447C71.0037 5.19633 70.8127 5.52295 70.5816 5.80435C70.3504 6.08576 70.1343 6.22646 69.9333 6.22646C69.8429 6.22646 69.6821 6.17621 69.4509 6.07571C69.0791 5.92496 68.7022 5.80435 68.3203 5.7139C67.9484 5.6134 67.4912 5.56315 66.9484 5.56315C66.0138 5.56315 65.3656 5.7139 65.0038 6.01541C64.642 6.30686 64.4611 6.65358 64.4611 7.05559C64.4611 7.51789 64.5817 7.90482 64.8229 8.21637C65.0741 8.52792 65.3857 8.7842 65.7575 8.9852C66.1394 9.1862 66.667 9.41735 67.3404 9.67865C68.3555 10.1108 69.1846 10.5229 69.8278 10.9148C70.471 11.2967 71.0238 11.8495 71.4861 12.5731C71.9584 13.2967 72.1946 14.2213 72.1946 15.3469C72.1946 16.7237 71.9031 17.8544 71.3202 18.7388C70.7474 19.6131 70.0037 20.2463 69.0891 20.6382C68.1846 21.0302 67.2047 21.2262 66.1495 21.2262Z" fill="#A3A3A3"/>
<path d="M93.6766 21.0453C92.5811 21.0453 92.0334 20.8493 92.0334 20.4573C92.0334 20.3468 92.0686 20.186 92.1389 19.9749L98.0484 2.74411C98.1891 2.36221 98.6966 2.17126 99.5709 2.17126H100.958C101.832 2.17126 102.34 2.36221 102.48 2.74411L108.39 19.9749C108.44 20.1759 108.465 20.3367 108.465 20.4573C108.465 20.6583 108.355 20.8091 108.134 20.9096C107.923 21 107.586 21.0453 107.124 21.0453H105.948C105.526 21.0453 105.184 21.0051 104.923 20.9247C104.671 20.8342 104.516 20.6885 104.455 20.4875L103.37 17.2162H97.0534L95.968 20.4875C95.8574 20.8593 95.4454 21.0453 94.7318 21.0453H93.6766ZM102.224 13.6735L100.702 8.90982C100.611 8.66862 100.531 8.39224 100.46 8.08069C100.4 7.76914 100.345 7.47266 100.295 7.19126H100.189L100.129 7.52291C100.028 8.11587 99.9126 8.57817 99.782 8.90982L98.1991 13.6735H102.224Z" fill="#A3A3A3"/>
<path d="M111.933 21.0453C110.857 21.0453 110.319 20.7639 110.319 20.2011V3.30189C110.319 2.93004 110.405 2.66371 110.576 2.50291C110.747 2.33206 111.018 2.24664 111.39 2.24664H116.621C121.063 2.24664 123.284 3.91997 123.284 7.26664C123.284 8.28169 122.998 9.15605 122.425 9.8897C121.862 10.6234 121.103 11.1711 120.148 11.5329V11.6384C120.48 11.7791 120.827 12.0806 121.189 12.5429C121.56 13.0052 121.857 13.5278 122.078 14.1107L124.445 20.0051C124.525 20.2463 124.565 20.4171 124.565 20.5176C124.565 20.8694 124.033 21.0453 122.967 21.0453H121.867C120.973 21.0453 120.455 20.8593 120.314 20.4875L118.189 15.2564C117.988 14.8544 117.792 14.5429 117.601 14.3218C117.42 14.1007 117.164 13.9348 116.832 13.8243C116.5 13.7037 116.053 13.6434 115.49 13.6434H114.45V20.2011C114.45 20.7639 113.912 21.0453 112.837 21.0453H111.933ZM116.983 10.0857C117.344 10.0857 117.686 9.98518 118.008 9.78418C118.329 9.57313 118.586 9.29172 118.777 8.93997C118.968 8.58822 119.063 8.20129 119.063 7.77919C119.063 7.15609 118.857 6.66363 118.445 6.30183C118.043 5.92998 117.495 5.74405 116.802 5.74405H114.45V10.0857H116.983Z" fill="#A3A3A3"/>
<path d="M131.726 21.0453C130.651 21.0453 130.113 20.7639 130.113 20.2011V5.74405H125.862C125.58 5.74405 125.374 5.63853 125.244 5.42748C125.123 5.21643 125.063 4.87473 125.063 4.40237V3.58832C125.063 3.11597 125.123 2.77426 125.244 2.56321C125.374 2.35216 125.58 2.24664 125.862 2.24664H138.54C138.821 2.24664 139.022 2.35216 139.143 2.56321C139.274 2.77426 139.339 3.11597 139.339 3.58832V4.40237C139.339 4.87473 139.274 5.21643 139.143 5.42748C139.022 5.63853 138.821 5.74405 138.54 5.74405H134.274V20.2011C134.274 20.7639 133.736 21.0453 132.661 21.0453H131.726Z" fill="#A3A3A3"/>
<path d="M81.8288 2.29754C82.2027 1.4293 83.4338 1.4293 83.8077 2.29754L85.6493 6.57387C85.8052 6.93602 86.1466 7.18403 86.5392 7.22045L91.1753 7.65043C92.1166 7.73773 92.497 8.90852 91.7868 9.53243L88.2888 12.6053C87.9926 12.8656 87.8622 13.2669 87.9489 13.6515L88.9726 18.1936C89.1805 19.1158 88.1845 19.8394 87.3717 19.3567L83.3683 16.9796C83.0292 16.7782 82.6073 16.7782 82.2682 16.9796L78.2648 19.3567C77.452 19.8394 76.456 19.1158 76.6639 18.1936L77.6876 13.6515C77.7743 13.2669 77.6439 12.8656 77.3477 12.6053L73.8497 9.53243C73.1395 8.90852 73.5199 7.73773 74.4612 7.65043L79.0973 7.22045C79.4899 7.18403 79.8313 6.93602 79.9873 6.57387L81.8288 2.29754Z" fill="#FF9248"/>
</svg>
