<svg width="116" height="116" viewBox="0 0 116 116" fill="none" xmlns="http://www.w3.org/2000/svg">
<circle cx="58" cy="58" r="54" fill="#8E8E8E"/>
<circle cx="58" cy="58" r="54" fill="white"/>
<circle cx="58" cy="58" r="54" fill="#B6B6B6"/>
<circle cx="58" cy="58" r="54" fill="#FFD15B"/>
<circle cx="58" cy="58" r="54" fill="#FF9248"/>
<circle cx="58" cy="58" r="54" stroke="white" stroke-width="8"/>
<path d="M57.0106 26.2975C57.3845 25.4293 58.6155 25.4293 58.9894 26.2975L66.94 44.7595C67.0959 45.1216 67.4373 45.3696 67.8299 45.406L87.8451 47.2624C88.7864 47.3497 89.1668 48.5205 88.4566 49.1444L73.3551 62.4109C73.0589 62.6711 72.9285 63.0724 73.0152 63.457L77.4347 83.0663C77.6425 83.9885 76.6466 84.712 75.8338 84.2294L58.55 73.9666C58.211 73.7653 57.789 73.7653 57.45 73.9666L40.1662 84.2294C39.3534 84.712 38.3575 83.9885 38.5653 83.0663L42.9848 63.457C43.0715 63.0724 42.9411 62.6711 42.6449 62.4109L27.5434 49.1444C26.8332 48.5205 27.2136 47.3497 28.1549 47.2624L48.1701 45.406C48.5627 45.3696 48.9041 45.1216 49.06 44.7595L57.0106 26.2975Z" fill="#8E8E8E"/>
<path d="M57.0106 26.2975C57.3845 25.4293 58.6155 25.4293 58.9894 26.2975L66.94 44.7595C67.0959 45.1216 67.4373 45.3696 67.8299 45.406L87.8451 47.2624C88.7864 47.3497 89.1668 48.5205 88.4566 49.1444L73.3551 62.4109C73.0589 62.6711 72.9285 63.0724 73.0152 63.457L77.4347 83.0663C77.6425 83.9885 76.6466 84.712 75.8338 84.2294L58.55 73.9666C58.211 73.7653 57.789 73.7653 57.45 73.9666L40.1662 84.2294C39.3534 84.712 38.3575 83.9885 38.5653 83.0663L42.9848 63.457C43.0715 63.0724 42.9411 62.6711 42.6449 62.4109L27.5434 49.1444C26.8332 48.5205 27.2136 47.3497 28.1549 47.2624L48.1701 45.406C48.5627 45.3696 48.9041 45.1216 49.06 44.7595L57.0106 26.2975Z" fill="white"/>
<path d="M57.0106 26.2975C57.3845 25.4293 58.6155 25.4293 58.9894 26.2975L66.94 44.7595C67.0959 45.1216 67.4373 45.3696 67.8299 45.406L87.8451 47.2624C88.7864 47.3497 89.1668 48.5205 88.4566 49.1444L73.3551 62.4109C73.0589 62.6711 72.9285 63.0724 73.0152 63.457L77.4347 83.0663C77.6425 83.9885 76.6466 84.712 75.8338 84.2294L58.55 73.9666C58.211 73.7653 57.789 73.7653 57.45 73.9666L40.1662 84.2294C39.3534 84.712 38.3575 83.9885 38.5653 83.0663L42.9848 63.457C43.0715 63.0724 42.9411 62.6711 42.6449 62.4109L27.5434 49.1444C26.8332 48.5205 27.2136 47.3497 28.1549 47.2624L48.1701 45.406C48.5627 45.3696 48.9041 45.1216 49.06 44.7595L57.0106 26.2975Z" fill="white"/>
</svg>
