<svg width="80" height="80" viewBox="0 0 80 80" fill="none" xmlns="http://www.w3.org/2000/svg">
<circle cx="40" cy="40" r="40" fill="#C4C4C4"/>
<path d="M39.98 20C36.0252 20.004 32.1604 21.1803 28.8741 23.3803C25.5877 25.5804 23.0274 28.7053 21.5167 32.3602C20.006 36.0151 19.6128 40.0358 20.3867 43.9141C21.1607 47.7924 23.0671 51.3541 25.8649 54.1492C28.6628 56.9442 32.2265 58.8471 36.1055 59.6172C39.9846 60.3872 44.0049 59.99 47.6583 58.4757C51.3116 56.9613 54.434 54.3979 56.6308 51.1093C58.8275 47.8208 60 43.9548 60 40C60 37.3719 59.482 34.7695 58.4757 32.3417C57.4693 29.9139 55.9944 27.7082 54.1351 25.8508C52.2758 23.9934 50.0686 22.5206 47.6398 21.5167C45.211 20.5128 42.6081 19.9974 39.98 20ZM40 56C36.8355 56 33.7421 55.0616 31.1109 53.3035C28.4797 51.5454 26.4289 49.0466 25.2179 46.1229C24.0069 43.1993 23.6901 39.9823 24.3074 36.8786C24.9248 33.7749 26.4487 30.9239 28.6863 28.6863C30.9239 26.4487 33.7749 24.9248 36.8786 24.3074C39.9823 23.6901 43.1993 24.0069 46.1229 25.2179C49.0466 26.4289 51.5454 28.4797 53.3035 31.1109C55.0616 33.7421 56 36.8355 56 40C56 44.2435 54.3143 48.3131 51.3137 51.3137C48.3131 54.3143 44.2435 56 40 56ZM41 30H38V42L48.5 48.3L50 45.84L41 40.5V30Z" fill="white"/>
</svg>
