<svg width="33" height="21" viewBox="0 0 33 21" fill="none" xmlns="http://www.w3.org/2000/svg">
<path d="M6.75973 4.10386C12.1397 -1.36795 20.8603 -1.36795 26.2472 4.10386L26.8945 4.76164C27.1659 5.03631 27.1659 5.47724 26.8945 5.75191L24.6813 8.00714C24.549 8.14448 24.3263 8.14448 24.1941 8.00714L23.3032 7.10361C19.5519 3.28707 13.462 3.28707 9.71069 7.10361L8.7572 8.0722C8.62496 8.20953 8.40225 8.20953 8.27001 8.0722L6.04983 5.81697C5.77839 5.54229 5.77839 5.10137 6.04983 4.82669L6.75973 4.10386ZM30.8268 8.75889L32.7964 10.7611C33.0679 11.0358 33.0679 11.4767 32.7964 11.7514L23.9087 20.794C23.6373 21.0687 23.2058 21.0687 22.9344 20.794L16.6218 14.3753C16.5522 14.3102 16.4478 14.3102 16.3782 14.3753L10.0726 20.794C9.80117 21.0687 9.36966 21.0687 9.09823 20.794L0.203575 11.7586C-0.0678583 11.484 -0.0678583 11.043 0.203575 10.7684L2.1732 8.76611C2.44464 8.49144 2.87615 8.49144 3.14758 8.76611L9.46014 15.1848C9.52974 15.2499 9.63414 15.2499 9.70373 15.1848L16.0093 8.76611C16.2808 8.49144 16.7123 8.49144 16.9837 8.76611L23.2963 15.1848C23.3659 15.2499 23.4703 15.2499 23.5399 15.1848L29.8524 8.76611C30.1169 8.48421 30.5554 8.48421 30.8268 8.75889Z" fill="#3A99FB"/>
</svg>
