<svg width="24" height="24" viewBox="0 0 24 24" fill="none" xmlns="http://www.w3.org/2000/svg">
<path d="M24 21.3333V2.66667C23.9979 1.96007 23.7163 1.28302 23.2166 0.78338C22.717 0.28374 22.0399 0.0021103 21.3333 0H2.66667C1.96007 0.0021103 1.28302 0.28374 0.78338 0.78338C0.28374 1.28302 0.0021103 1.96007 0 2.66667V21.3333C0.0021103 22.0399 0.28374 22.717 0.78338 23.2166C1.28302 23.7163 1.96007 23.9979 2.66667 24H21.3333C22.0399 23.9979 22.717 23.7163 23.2166 23.2166C23.7163 22.717 23.9979 22.0399 24 21.3333V21.3333ZM7.33333 14L10.6667 18.0133L15.3333 12L21.3333 20H2.66667L7.33333 14Z" fill="#8E8E8E"/>
<path d="M24 21.3333V2.66667C23.9979 1.96007 23.7163 1.28302 23.2166 0.78338C22.717 0.28374 22.0399 0.0021103 21.3333 0H2.66667C1.96007 0.0021103 1.28302 0.28374 0.78338 0.78338C0.28374 1.28302 0.0021103 1.96007 0 2.66667V21.3333C0.0021103 22.0399 0.28374 22.717 0.78338 23.2166C1.28302 23.7163 1.96007 23.9979 2.66667 24H21.3333C22.0399 23.9979 22.717 23.7163 23.2166 23.2166C23.7163 22.717 23.9979 22.0399 24 21.3333V21.3333ZM7.33333 14L10.6667 18.0133L15.3333 12L21.3333 20H2.66667L7.33333 14Z" fill="white"/>
<path d="M24 21.3333V2.66667C23.9979 1.96007 23.7163 1.28302 23.2166 0.78338C22.717 0.28374 22.0399 0.0021103 21.3333 0H2.66667C1.96007 0.0021103 1.28302 0.28374 0.78338 0.78338C0.28374 1.28302 0.0021103 1.96007 0 2.66667V21.3333C0.0021103 22.0399 0.28374 22.717 0.78338 23.2166C1.28302 23.7163 1.96007 23.9979 2.66667 24H21.3333C22.0399 23.9979 22.717 23.7163 23.2166 23.2166C23.7163 22.717 23.9979 22.0399 24 21.3333V21.3333ZM7.33333 14L10.6667 18.0133L15.3333 12L21.3333 20H2.66667L7.33333 14Z" fill="#B6B6B6"/>
<path d="M24 21.3333V2.66667C23.9979 1.96007 23.7163 1.28302 23.2166 0.78338C22.717 0.28374 22.0399 0.0021103 21.3333 0H2.66667C1.96007 0.0021103 1.28302 0.28374 0.78338 0.78338C0.28374 1.28302 0.0021103 1.96007 0 2.66667V21.3333C0.0021103 22.0399 0.28374 22.717 0.78338 23.2166C1.28302 23.7163 1.96007 23.9979 2.66667 24H21.3333C22.0399 23.9979 22.717 23.7163 23.2166 23.2166C23.7163 22.717 23.9979 22.0399 24 21.3333V21.3333ZM7.33333 14L10.6667 18.0133L15.3333 12L21.3333 20H2.66667L7.33333 14Z" fill="#FF5A20"/>
</svg>
