<svg width="50" height="50" viewBox="0 0 50 50" fill="none" xmlns="http://www.w3.org/2000/svg">
<path d="M25 50C29.9445 50 34.778 48.5338 38.8893 45.7867C43.0005 43.0397 46.2048 39.1352 48.097 34.5671C49.9892 29.9989 50.4843 24.9723 49.5196 20.1227C48.555 15.2732 46.174 10.8186 42.6777 7.32233C39.1814 3.82602 34.7268 1.445 29.8773 0.480368C25.0277 -0.484263 20.0011 0.0108197 15.4329 1.90301C10.8648 3.7952 6.9603 6.99951 4.21327 11.1107C1.46623 15.222 6.43253e-06 20.0555 6.00027e-06 25C5.42062e-06 31.6304 2.63393 37.9893 7.32233 42.6777C12.0107 47.3661 18.3696 50 25 50V50ZM19.8 13.23C19.5416 12.9912 19.3621 12.6792 19.2855 12.3358C19.209 11.9923 19.239 11.6337 19.3715 11.3077C19.5041 10.9817 19.7329 10.7039 20.0274 10.5114C20.322 10.3188 20.6682 10.2207 21.02 10.23C21.4791 10.2318 21.9198 10.4109 22.25 10.73L35.25 23.73C35.5713 24.0588 35.7512 24.5003 35.7512 24.96C35.7512 25.4197 35.5713 25.8612 35.25 26.19L22.25 39.19C22.0929 39.3694 21.9006 39.5146 21.685 39.6166C21.4694 39.7186 21.2351 39.7752 20.9968 39.7828C20.7584 39.7905 20.521 39.749 20.2993 39.6611C20.0776 39.5731 19.8764 39.4406 19.7081 39.2716C19.5398 39.1026 19.408 38.9008 19.321 38.6788C19.2339 38.4567 19.1935 38.2192 19.2021 37.9808C19.2107 37.7425 19.2682 37.5085 19.3711 37.2933C19.4739 37.0781 19.6199 36.8864 19.8 36.73L31.57 25L19.8 13.23Z" fill="white"/>
</svg>
