<svg width="50" height="50" viewBox="0 0 50 50" fill="none" xmlns="http://www.w3.org/2000/svg">
<path d="M25 0C20.0555 0 15.222 1.46622 11.1108 4.21326C6.99953 6.96029 3.79521 10.8648 1.90302 15.4329C0.0108321 20.0011 -0.484251 25.0277 0.480379 29.8773C1.44501 34.7268 3.82603 39.1814 7.32234 42.6777C10.8187 46.174 15.2732 48.555 20.1228 49.5196C24.9723 50.4843 29.9989 49.9892 34.5671 48.097C39.1353 46.2048 43.0397 43.0005 45.7868 38.8893C48.5338 34.778 50 29.9445 50 25C50 18.3696 47.3661 12.0107 42.6777 7.32233C37.9893 2.63392 31.6304 0 25 0V0ZM30.2 36.77C30.4585 37.0088 30.6379 37.3208 30.7145 37.6642C30.7911 38.0077 30.7611 38.3663 30.6285 38.6923C30.4959 39.0183 30.2671 39.2961 29.9726 39.4886C29.678 39.6812 29.3318 39.7793 28.98 39.77C28.5209 39.7682 28.0802 39.5891 27.75 39.27L14.75 26.27C14.4287 25.9412 14.2489 25.4997 14.2489 25.04C14.2489 24.5803 14.4287 24.1388 14.75 23.81L27.75 10.81C27.9071 10.6306 28.0995 10.4854 28.315 10.3834C28.5306 10.2814 28.7649 10.2248 29.0033 10.2172C29.2416 10.2095 29.479 10.251 29.7007 10.3389C29.9224 10.4269 30.1236 10.5594 30.2919 10.7284C30.4602 10.8974 30.592 11.0992 30.679 11.3212C30.7661 11.5433 30.8066 11.7808 30.7979 12.0192C30.7893 12.2575 30.7318 12.4915 30.6289 12.7067C30.5261 12.9219 30.3801 13.1136 30.2 13.27L18.43 25L30.2 36.77Z" fill="white"/>
</svg>
