<svg width="16" height="22" viewBox="0 0 16 22" fill="none" xmlns="http://www.w3.org/2000/svg">
<path d="M9.50003 0C9.92726 1.5669 10.1755 3.17718 10.24 4.8C10.2756 5.27206 10.2141 5.7464 10.0595 6.19383C9.90484 6.64126 9.66029 7.05231 9.34087 7.40171C9.02145 7.7511 8.63392 8.03144 8.20212 8.22548C7.77032 8.41952 7.30338 8.52315 6.83003 8.53C6.34519 8.52882 5.86548 8.43078 5.41905 8.24166C4.97261 8.05254 4.56846 7.77613 4.23032 7.42867C3.89218 7.08121 3.62685 6.6697 3.44993 6.2183C3.273 5.76689 3.18804 5.28469 3.20003 4.8L3.23003 4.44C1.13731 6.92891 -0.00692811 10.0782 3.15622e-05 13.33C3.15622e-05 15.4517 0.842886 17.4866 2.34318 18.9869C3.84347 20.4871 5.8783 21.33 8.00003 21.33C10.1218 21.33 12.1566 20.4871 13.6569 18.9869C15.1572 17.4866 16 15.4517 16 13.33C15.9857 10.7629 15.394 8.23186 14.2688 5.9244C13.1437 3.61694 11.5138 1.59216 9.50003 0ZM7.71003 18.33C7.29228 18.3358 6.87748 18.2591 6.48941 18.1044C6.10133 17.9496 5.7476 17.7198 5.44848 17.4281C5.14937 17.1365 4.91074 16.7886 4.74627 16.4046C4.5818 16.0205 4.49473 15.6078 4.49003 15.19C4.48889 14.4143 4.77565 13.6658 5.29477 13.0894C5.81389 12.513 6.52844 12.1497 7.30003 12.07C9.09611 11.7818 10.7325 10.868 11.92 9.49C12.3137 10.8005 12.5125 12.1617 12.51 13.53C12.51 14.803 12.0043 16.0239 11.1041 16.9241C10.204 17.8243 8.98307 18.33 7.71003 18.33Z" fill="#8E8E8E"/>
</svg>
