<svg width="20" height="20" viewBox="0 0 20 20" fill="none" xmlns="http://www.w3.org/2000/svg">
<path d="M19.41 9.58001L10.41 0.580012C10.2247 0.395266 10.0048 0.248927 9.76284 0.149395C9.52088 0.0498626 9.26164 -0.00090276 9 1.21497e-05H2C1.47005 0.00159488 0.962266 0.212817 0.587536 0.587547C0.212805 0.962277 0.00158335 1.47007 6.2793e-07 2.00001V9.00001C-0.000208492 9.26392 0.0518167 9.52527 0.153078 9.76898C0.254338 10.0127 0.402832 10.234 0.590001 10.42L9.59 19.42C9.77527 19.6048 9.99519 19.7511 10.2372 19.8506C10.4791 19.9502 10.7384 20.0009 11 20C11.2626 20.0014 11.5228 19.9499 11.765 19.8485C12.0073 19.7471 12.2267 19.598 12.41 19.41L19.41 12.41C19.598 12.2267 19.7471 12.0073 19.8485 11.7651C19.9499 11.5228 20.0014 11.2626 20 11C19.9982 10.4674 19.7862 9.95705 19.41 9.58001ZM3.5 5.00001C3.20333 5.00001 2.91332 4.91204 2.66665 4.74722C2.41997 4.58239 2.22771 4.34813 2.11418 4.07404C2.00065 3.79995 1.97094 3.49835 2.02882 3.20738C2.0867 2.91641 2.22956 2.64913 2.43934 2.43935C2.64912 2.22957 2.91639 2.08671 3.20737 2.02883C3.49834 1.97096 3.79994 2.00066 4.07403 2.11419C4.34811 2.22772 4.58238 2.41998 4.7472 2.66666C4.91203 2.91333 5 3.20334 5 3.50001C5 3.89784 4.84197 4.27937 4.56066 4.56067C4.27936 4.84198 3.89783 5.00001 3.5 5.00001ZM15.27 13.27L11 17.54L6.73 13.27C6.37947 12.9204 6.14064 12.4745 6.04381 11.989C5.94698 11.5034 5.99649 11.0001 6.18608 10.5427C6.37567 10.0853 6.69679 9.69455 7.10873 9.41991C7.52068 9.14527 8.0049 8.99913 8.5 9.00001C8.82948 8.99902 9.15583 9.06398 9.45981 9.19107C9.7638 9.31816 10.0393 9.5048 10.27 9.74001L11 10.46L11.73 9.73001C12.1994 9.26058 12.8361 8.99685 13.5 8.99685C14.1639 8.99685 14.8006 9.26058 15.27 9.73001C15.7394 10.1994 16.0032 10.8361 16.0032 11.5C16.0032 12.1639 15.7394 12.8006 15.27 13.27Z" fill="#FF9248"/>
</svg>
