<svg width="50" height="50" viewBox="0 0 50 50" fill="none" xmlns="http://www.w3.org/2000/svg">
<path d="M50 25C50 20.0555 48.5338 15.222 45.7867 11.1108C43.0397 6.99953 39.1352 3.79521 34.5671 1.90302C29.9989 0.0108323 24.9723 -0.484251 20.1227 0.48038C15.2732 1.44501 10.8186 3.82603 7.32233 7.32234C3.82602 10.8187 1.445 15.2732 0.480374 20.1228C-0.484256 24.9723 0.0108227 29.9989 1.90302 34.5671C3.7952 39.1352 6.99952 43.0397 11.1107 45.7867C15.222 48.5338 20.0555 50 25 50C31.6304 50 37.9893 47.3661 42.6777 42.6777C47.3661 37.9893 50 31.6304 50 25V25ZM13.23 30.2C12.9912 30.4585 12.6792 30.6379 12.3358 30.7145C11.9923 30.7911 11.6337 30.761 11.3077 30.6285C10.9817 30.4959 10.7039 30.2671 10.5114 29.9726C10.3188 29.678 10.2207 29.3318 10.23 28.98C10.2318 28.5209 10.4109 28.0802 10.73 27.75L23.73 14.75C24.0588 14.4287 24.5003 14.2489 24.96 14.2489C25.4197 14.2489 25.8612 14.4287 26.19 14.75L39.19 27.75C39.3694 27.9071 39.5146 28.0994 39.6166 28.315C39.7186 28.5306 39.7752 28.7649 39.7828 29.0033C39.7905 29.2416 39.749 29.479 39.6611 29.7007C39.5731 29.9224 39.4406 30.1236 39.2716 30.2919C39.1026 30.4602 38.9008 30.592 38.6788 30.679C38.4567 30.7661 38.2192 30.8066 37.9808 30.7979C37.7425 30.7893 37.5085 30.7318 37.2933 30.6289C37.0781 30.5261 36.8864 30.3801 36.73 30.2L25 18.43L13.23 30.2Z" fill="white"/>
</svg>
