<svg width="19" height="22" viewBox="0 0 19 22" xmlns="http://www.w3.org/2000/svg">
<path d="M14 0H2C1.47005 0.00158273 0.962265 0.212805 0.587535 0.587535C0.212805 0.962265 0.00158273 1.47005 0 2V16H2V2H14V0ZM17 4H6C5.47005 4.00158 4.96227 4.2128 4.58753 4.58753C4.2128 4.96227 4.00158 5.47005 4 6V20C4.00158 20.5299 4.2128 21.0377 4.58753 21.4125C4.96227 21.7872 5.47005 21.9984 6 22H17C17.5299 21.9984 18.0377 21.7872 18.4125 21.4125C18.7872 21.0377 18.9984 20.5299 19 20V6C18.9984 5.47005 18.7872 4.96227 18.4125 4.58753C18.0377 4.2128 17.5299 4.00158 17 4ZM17 20H6V6H17V20Z" />
</svg>
