<svg width="21" height="24" viewBox="0 0 21 24" fill="none" xmlns="http://www.w3.org/2000/svg">
<path d="M16.375 3V3.5H16.875H17.9992C18.463 3.50163 18.9074 3.6866 19.2354 4.0146C19.5634 4.34263 19.7484 4.78708 19.75 5.25096C19.75 5.25116 19.75 5.25135 19.75 5.25155V20.9985C19.75 20.9986 19.75 20.9988 19.75 20.999C19.7484 21.4629 19.5634 21.9074 19.2354 22.2354C18.9074 22.5634 18.4629 22.7484 17.999 22.75C17.9988 22.75 17.9986 22.75 17.9985 22.75L2.25 22.75H2.24978C2.01997 22.7501 1.79239 22.7049 1.58004 22.617C1.36771 22.5291 1.17477 22.4002 1.01227 22.2377C0.849768 22.0752 0.720884 21.8823 0.632986 21.67C0.545103 21.4577 0.499914 21.2301 0.5 21.0003C0.5 21.0003 0.5 21.0003 0.5 21.0002L0.511007 5.25035L0.510995 5.24777C0.509972 5.01868 0.554198 4.79165 0.641135 4.57969C0.728072 4.36774 0.856008 4.17504 1.0176 4.01265C1.17919 3.85027 1.37126 3.72139 1.58279 3.63341C1.79425 3.54547 2.02098 3.50013 2.25 3.5C2.25007 3.5 2.25015 3.5 2.25022 3.5H3.375H3.875V3V1.25H5.125V3V3.5H5.625H14.625H15.125V3V1.25H16.375V3ZM18 21.5H18.5V21V8.625V8.125H18H2.25H1.75V8.625V21V21.5H2.25H18ZM5 12.625V11.375H6.25V12.625H5ZM9.5 12.625V11.375H10.75V12.625H9.5ZM14 12.625V11.375H15.25V12.625H14Z" fill="#8E8E8E" stroke="#8E8E8E"/>
</svg>
