<svg width="80" height="80" viewBox="0 0 80 80" fill="none" xmlns="http://www.w3.org/2000/svg">
<path d="M22.7985 50.3483H26.4079L27.6871 49.1147C22.6771 43.2775 20.1234 35.7262 20.5622 28.0463C21.0011 20.3664 24.3983 13.1552 30.0407 7.92666C35.6831 2.69816 43.1317 -0.140963 50.8228 0.00538962C58.5138 0.151742 65.8491 3.27218 71.2884 8.71156C76.7278 14.1509 79.8483 21.4862 79.9946 29.1772C80.141 36.8683 77.3018 44.3169 72.0733 49.9593C66.8448 55.6017 59.6336 58.9989 51.9537 59.4378C44.2738 59.8766 36.7225 57.3229 30.8853 52.3129L29.6517 53.5921V57.2015L6.80756 80L0 73.1924L22.7985 50.3483ZM50.2115 50.3483C54.2778 50.3483 58.2528 49.1425 61.6339 46.8833C65.0149 44.6242 67.6501 41.4132 69.2062 37.6564C70.7623 33.8996 71.1695 29.7657 70.3762 25.7775C69.5829 21.7893 67.6247 18.1259 64.7494 15.2506C61.8741 12.3753 58.2107 10.4171 54.2225 9.62383C50.2343 8.83052 46.1004 9.23768 42.3436 10.7938C38.5868 12.3499 35.3758 14.9851 33.1167 18.3661C30.8575 21.7472 29.6517 25.7222 29.6517 29.7885C29.6481 32.4895 30.1774 35.1646 31.2094 37.6607C32.2413 40.1567 33.7556 42.4246 35.6655 44.3345C37.5754 46.2444 39.8433 47.7587 42.3393 48.7906C44.8354 49.8226 47.5105 50.3519 50.2115 50.3483Z" fill="#E2E2E2"/>
</svg>
