<svg width="20" height="25" viewBox="0 0 20 25" fill="none" xmlns="http://www.w3.org/2000/svg">
<path d="M16.1787 9.40744C16.7762 8.08471 18.7662 7.94597 19.144 9.34733C19.9371 12.2887 20.0776 15.2867 18.9847 18.3667C16.5627 25.193 8.78946 25.655 4.23615 23.2191C0.397641 21.1733 -1.12159 16.5985 0.889477 13.0408C1.52559 11.915 2.24476 10.8262 2.94207 9.72953C5.22203 6.15247 5.91994 4.93311 6.52537 2.25331C6.85698 0.78553 8.56742 0.124797 9.58966 1.22904C10.6539 2.3787 11.5612 3.64088 12.2891 4.98975C12.9887 6.25666 13.4738 7.56981 13.7912 8.92528C14.0832 10.1725 15.6514 10.5748 16.1787 9.40744Z" fill="#FF4F17"/>
</svg>
