<svg width="18" height="15" viewBox="0 0 18 15" fill="none" xmlns="http://www.w3.org/2000/svg">
<path d="M16.2 1.8H9L7.2 0H1.8C1.32417 0.00237917 0.868643 0.193071 0.533022 0.530379C0.1974 0.867687 0.00899404 1.32417 0.00899999 1.8L0 12.6C0.00142445 13.077 0.191524 13.534 0.528781 13.8712C0.866039 14.2085 1.32305 14.3986 1.8 14.4H16.2C16.677 14.3986 17.134 14.2085 17.4712 13.8712C17.8085 13.534 17.9986 13.077 18 12.6V3.6C17.9986 3.12305 17.8085 2.66604 17.4712 2.32878C17.134 1.99152 16.677 1.80142 16.2 1.8ZM16.2 12.6H1.8V3.6H16.2V12.6Z" fill="#8E8E8E"/>
</svg>
