<svg width="20" height="19" viewBox="0 0 20 19" fill="none" xmlns="http://www.w3.org/2000/svg">
<path d="M14.5003 0.0393229C13.6444 0.0458505 12.7999 0.23578 12.0236 0.596308C11.2473 0.956837 10.5574 1.47959 10.0003 2.12932C9.44312 1.47959 8.75317 0.956837 7.97692 0.596308C7.20066 0.23578 6.35613 0.0458505 5.50026 0.0393229C4.77602 0.032241 4.05764 0.169667 3.38715 0.44356C2.71666 0.717453 2.10753 1.12231 1.59539 1.63445C1.08325 2.14659 0.67839 2.75572 0.404497 3.42621C0.130604 4.0967 -0.00682149 4.81508 0.000260416 5.53932C0.000260416 9.31932 3.40026 12.3993 8.55026 17.0793L10.0003 18.3893L11.4503 17.0693C16.6003 12.3993 20.0003 9.31932 20.0003 5.53932C20.0073 4.81508 19.8699 4.0967 19.596 3.42621C19.3221 2.75572 18.9173 2.14659 18.4051 1.63445C17.893 1.12231 17.2839 0.717453 16.6134 0.44356C15.9429 0.169667 15.2245 0.032241 14.5003 0.0393229ZM10.1003 15.5893L10.0003 15.6893L9.90026 15.5893C5.14026 11.2793 2.00026 8.42932 2.00026 5.53932C1.98902 5.07663 2.07187 4.61647 2.24378 4.18675C2.41569 3.75703 2.67309 3.3667 3.00036 3.03942C3.32763 2.71215 3.71796 2.45476 4.14768 2.28284C4.5774 2.11093 5.03756 2.02808 5.50026 2.03932C6.26033 2.04302 7.00284 2.26823 7.63691 2.68739C8.27097 3.10654 8.76907 3.70146 9.07026 4.39932H10.9403C11.2382 3.70118 11.7342 3.10561 12.3668 2.6862C12.9995 2.26679 13.7412 2.0419 14.5003 2.03932C14.963 2.02808 15.4231 2.11093 15.8528 2.28284C16.2826 2.45476 16.6729 2.71215 17.0002 3.03942C17.3274 3.3667 17.5848 3.75703 17.7567 4.18675C17.9287 4.61647 18.0115 5.07663 18.0003 5.53932C18.0003 8.42932 14.8603 11.2793 10.1003 15.5893Z" fill="#8E8E8E"/>
</svg>
