<svg width="18" height="17" viewBox="0 0 18 17" fill="none" xmlns="http://www.w3.org/2000/svg">
<path d="M9 16.5148L7.69503 15.3268C3.06015 11.1239 0.000234369 8.35202 0.000234369 4.95011C-0.00613918 4.29831 0.117541 3.65178 0.364038 3.04836C0.610535 2.44493 0.9749 1.89673 1.43581 1.43581C1.89673 0.9749 2.44493 0.610535 3.04836 0.364038C3.65178 0.117541 4.29831 -0.00613918 4.95011 0.000234369C5.72037 0.00610902 6.48042 0.177041 7.17904 0.501508C7.87765 0.825976 8.49859 1.29644 9 1.88119C9.50141 1.29644 10.1223 0.825976 10.821 0.501508C11.5196 0.177041 12.2796 0.00610902 13.0499 0.000234369C13.7017 -0.00613918 14.3482 0.117541 14.9516 0.364038C15.5551 0.610535 16.1033 0.9749 16.5642 1.43581C17.0251 1.89673 17.3895 2.44493 17.636 3.04836C17.8825 3.65178 18.0061 4.29831 17.9998 4.95011C17.9998 8.35202 14.9398 11.1239 10.305 15.3358L9 16.5148Z" fill="#8E8E8E"/>
</svg>
