<svg width="24" height="24" viewBox="0 0 24 24" fill="none" xmlns="http://www.w3.org/2000/svg">
<circle cx="12" cy="12" r="11" stroke="#A3A3A3" stroke-width="2"/>
<path fill-rule="evenodd" clip-rule="evenodd" d="M12.2264 8.35904C11.8102 8.28587 11.3822 8.36603 11.0182 8.58532C10.6542 8.80461 10.3776 9.14888 10.2375 9.55715C10.0737 10.0345 9.5633 10.2854 9.09755 10.1175C8.63181 9.94954 8.38706 9.4264 8.5509 8.949C8.83113 8.13245 9.38426 7.44392 10.1123 7.00533C10.8404 6.56675 11.6963 6.40643 12.5287 6.55277C13.361 6.6991 14.1159 7.14265 14.6598 7.80485C15.2035 8.46692 15.5011 9.30483 15.5 10.1702C15.4997 11.1509 14.9966 11.9004 14.4765 12.4111C13.9562 12.922 13.3393 13.2766 12.9038 13.4904C12.869 13.5075 12.8437 13.5319 12.8297 13.553C12.8232 13.5628 12.8203 13.5701 12.8191 13.5739C12.8181 13.5773 12.8181 13.5788 12.8181 13.5788V13.8347C12.8181 14.3408 12.4179 14.751 11.9241 14.751C11.4304 14.751 11.0302 14.3408 11.0302 13.8347V13.5788C11.0302 12.7818 11.5206 12.1376 12.1314 11.8376C12.4858 11.6636 12.9131 11.4084 13.2396 11.0878C13.5661 10.7672 13.7121 10.4636 13.7121 10.1694L13.7121 10.168C13.7127 9.73524 13.5639 9.31618 13.2919 8.98508C13.02 8.65398 12.6426 8.4322 12.2264 8.35904Z" fill="#A3A3A3"/>
<path d="M12.8896 16.5837C12.8896 17.0897 12.4894 17.5 11.9957 17.5C11.5019 17.5 11.1017 17.0897 11.1017 16.5837C11.1017 16.0776 11.5019 15.6673 11.9957 15.6673C12.4894 15.6673 12.8896 16.0776 12.8896 16.5837Z" fill="#A3A3A3"/>
</svg>
