<svg width="20" height="10" viewBox="0 0 20 10" fill="none" xmlns="http://www.w3.org/2000/svg">
<path d="M1.9 5C1.9 4.17783 2.22661 3.38933 2.80797 2.80797C3.38933 2.22661 4.17783 1.9 5 1.9H9V0H5C3.67392 0 2.40215 0.526784 1.46447 1.46447C0.526784 2.40215 0 3.67392 0 5C0 6.32608 0.526784 7.59785 1.46447 8.53553C2.40215 9.47322 3.67392 10 5 10H9V8.1H5C4.17783 8.1 3.38933 7.77339 2.80797 7.19203C2.22661 6.61067 1.9 5.82217 1.9 5ZM6 6H14V4H6V6ZM15 0H11V1.9H15C15.4071 1.9 15.8102 1.98018 16.1863 2.13597C16.5624 2.29176 16.9042 2.52011 17.192 2.80797C17.4799 3.09583 17.7082 3.43757 17.864 3.81368C18.0198 4.18979 18.1 4.5929 18.1 5C18.1 5.4071 18.0198 5.81021 17.864 6.18632C17.7082 6.56243 17.4799 6.90417 17.192 7.19203C16.9042 7.47989 16.5624 7.70824 16.1863 7.86403C15.8102 8.01982 15.4071 8.1 15 8.1H11V10H15C16.3261 10 17.5979 9.47322 18.5355 8.53553C19.4732 7.59785 20 6.32608 20 5C20 3.67392 19.4732 2.40215 18.5355 1.46447C17.5979 0.526784 16.3261 0 15 0Z" fill="#8E8E8E"/>
</svg>
