<svg width="16" height="16" viewBox="0 0 16 16" fill="none" xmlns="http://www.w3.org/2000/svg">
<path d="M8.06838 5.47656C7.56929 5.47656 7.0814 5.62456 6.66642 5.90184C6.25144 6.17912 5.928 6.57323 5.73701 7.03434C5.54602 7.49544 5.49604 8.00282 5.59341 8.49232C5.69078 8.98183 5.93112 9.43146 6.28403 9.78438C6.63694 10.1373 7.08658 10.3776 7.57608 10.475C8.06558 10.5724 8.57297 10.5224 9.03407 10.3314C9.49517 10.1404 9.88928 9.81696 10.1666 9.40198C10.4438 8.987 10.5918 8.49911 10.5918 8.00002C10.5906 7.33113 10.3244 6.68997 9.85142 6.21699C9.37844 5.74401 8.73728 5.47776 8.06838 5.47656Z" fill="#E8E8E8"/>
<path d="M11.1928 0H4.80724C3.53264 0.00119736 2.3106 0.508057 1.40933 1.40933C0.508057 2.3106 0.00119736 3.53264 0 4.80724L0 11.1928C0.00119736 12.4674 0.508057 13.6894 1.40933 14.5907C2.3106 15.4919 3.53264 15.9988 4.80724 16H11.1928C12.4674 15.9988 13.6894 15.4919 14.5907 14.5907C15.4919 13.6894 15.9988 12.4674 16 11.1928V4.80724C15.9988 3.53264 15.4919 2.3106 14.5907 1.40933C13.6894 0.508057 12.4674 0.00119736 11.1928 0V0ZM8.06783 11.9389C7.28878 11.9389 6.52723 11.7079 5.87947 11.2751C5.23172 10.8423 4.72685 10.2271 4.42872 9.50737C4.13059 8.78762 4.05259 7.99563 4.20457 7.23155C4.35656 6.46747 4.73171 5.76561 5.28258 5.21474C5.83345 4.66387 6.5353 4.28872 7.29938 4.13674C8.06347 3.98475 8.85546 4.06276 9.5752 4.36089C10.295 4.65902 10.9101 5.16388 11.343 5.81164C11.7758 6.45939 12.0068 7.22095 12.0068 8C12.0056 9.04431 11.5902 10.0455 10.8518 10.7839C10.1133 11.5224 9.11214 11.9378 8.06783 11.9389ZM12.2374 4.73488C12.0512 4.73577 11.8689 4.68137 11.7136 4.57855C11.5583 4.47574 11.4371 4.32915 11.3652 4.15735C11.2933 3.98555 11.274 3.79628 11.3098 3.61351C11.3456 3.43075 11.4348 3.26272 11.5662 3.13071C11.6975 2.99871 11.8651 2.90867 12.0477 2.87201C12.2303 2.83535 12.4197 2.85371 12.5918 2.92477C12.764 2.99583 12.9111 3.11639 13.0147 3.27117C13.1183 3.42596 13.1735 3.608 13.1735 3.79423C13.1735 4.04293 13.0751 4.2815 12.8996 4.45778C12.7242 4.63405 12.4861 4.73368 12.2374 4.73488Z" fill="#E8E8E8"/>
</svg>
