<svg width="25" height="20" viewBox="0 0 25 20" fill="none" xmlns="http://www.w3.org/2000/svg">
<path d="M22.1 0.400391H2.9C2.26556 0.403563 1.65819 0.657819 1.2107 1.10756C0.763201 1.55731 0.511992 2.16594 0.512 2.80039L0.5 17.2004C0.501899 17.8363 0.755366 18.4457 1.20504 18.8954C1.65472 19.345 2.26406 19.5985 2.9 19.6004H22.1C22.7359 19.5985 23.3453 19.345 23.795 18.8954C24.2446 18.4457 24.4981 17.8363 24.5 17.2004V2.80039C24.4981 2.16446 24.2446 1.55511 23.795 1.10543C23.3453 0.655756 22.7359 0.40229 22.1 0.400391ZM22.1 17.2004H2.9V5.20039L12.5 11.2004L22.1 5.20039V17.2004ZM12.5 8.80039L2.9 2.80039H22.1L12.5 8.80039Z" fill="#8E8E8E"/>
<path d="M22.1 0.400391H2.9C2.26556 0.403563 1.65819 0.657819 1.2107 1.10756C0.763201 1.55731 0.511992 2.16594 0.512 2.80039L0.5 17.2004C0.501899 17.8363 0.755366 18.4457 1.20504 18.8954C1.65472 19.345 2.26406 19.5985 2.9 19.6004H22.1C22.7359 19.5985 23.3453 19.345 23.795 18.8954C24.2446 18.4457 24.4981 17.8363 24.5 17.2004V2.80039C24.4981 2.16446 24.2446 1.55511 23.795 1.10543C23.3453 0.655756 22.7359 0.40229 22.1 0.400391ZM22.1 17.2004H2.9V5.20039L12.5 11.2004L22.1 5.20039V17.2004ZM12.5 8.80039L2.9 2.80039H22.1L12.5 8.80039Z" fill="white"/>
<path d="M22.1 0.400391H2.9C2.26556 0.403563 1.65819 0.657819 1.2107 1.10756C0.763201 1.55731 0.511992 2.16594 0.512 2.80039L0.5 17.2004C0.501899 17.8363 0.755366 18.4457 1.20504 18.8954C1.65472 19.345 2.26406 19.5985 2.9 19.6004H22.1C22.7359 19.5985 23.3453 19.345 23.795 18.8954C24.2446 18.4457 24.4981 17.8363 24.5 17.2004V2.80039C24.4981 2.16446 24.2446 1.55511 23.795 1.10543C23.3453 0.655756 22.7359 0.40229 22.1 0.400391ZM22.1 17.2004H2.9V5.20039L12.5 11.2004L22.1 5.20039V17.2004ZM12.5 8.80039L2.9 2.80039H22.1L12.5 8.80039Z" fill="white"/>
</svg>
