<svg width="20" height="18" viewBox="0 0 20 18" fill="none" xmlns="http://www.w3.org/2000/svg">
<path d="M15.1042 5.28533C14.7396 5.07806 14.2708 5.07806 13.8542 5.28533L10.9375 6.99527L8.95833 8.08342L6.09375 9.79336C5.72917 10.0006 5.26042 10.0006 4.84375 9.79336L2.60417 8.44613C2.23958 8.23886 1.97917 7.82433 1.97917 7.35799V4.76717C1.97917 4.35264 2.1875 3.9381 2.60417 3.67902L4.84375 2.38361C5.20833 2.17635 5.67708 2.17635 6.09375 2.38361L8.33333 3.73084C8.69792 3.9381 8.95833 4.35264 8.95833 4.81898V6.52892L10.9375 5.38896V3.62721C10.9375 3.21267 10.7292 2.79814 10.3125 2.53906L6.14583 0.103691C5.78125 -0.103574 5.3125 -0.103574 4.89583 0.103691L0.625 2.59088C0.208333 2.79814 0 3.21267 0 3.62721V8.49795C0 8.91248 0.208333 9.32701 0.625 9.58609L4.84375 12.0215C5.20833 12.2287 5.67708 12.2287 6.09375 12.0215L8.95833 10.3633L10.9375 9.22338L13.8021 7.56525C14.1667 7.35799 14.6354 7.35799 15.0521 7.56525L17.2917 8.86066C17.6562 9.06793 17.9167 9.48246 17.9167 9.94881V12.5396C17.9167 12.9542 17.7083 13.3687 17.2917 13.6278L15.1042 14.9232C14.7396 15.1304 14.2708 15.1304 13.8542 14.9232L11.6146 13.6278C11.25 13.4205 10.9896 13.006 10.9896 12.5396V10.8815L9.01042 12.0215V13.7314C9.01042 14.1459 9.21875 14.5605 9.63542 14.8195L13.8542 17.2549C14.2187 17.4622 14.6875 17.4622 15.1042 17.2549L19.3229 14.8195C19.6875 14.6123 19.9479 14.1978 19.9479 13.7314V8.80885C19.9479 8.39431 19.7396 7.97978 19.3229 7.7207L15.1042 5.28533Z" fill="#8E8E8E"/>
</svg>
