<svg width="36" height="36" viewBox="0 0 36 36" fill="none" xmlns="http://www.w3.org/2000/svg">
<path d="M18 36C27.9411 36 36 27.9411 36 18C36 8.05887 27.9411 0 18 0C8.05887 0 0 8.05887 0 18C0 27.9411 8.05887 36 18 36Z" fill="#FFD15B"/>
<path d="M18 11.999V14.999L22 10.999L18 6.99902V9.99902C16.5691 9.99652 15.1638 10.3785 13.9311 11.105C12.6984 11.8316 11.6835 12.8759 10.9926 14.129C10.3017 15.382 9.96018 16.7976 10.0037 18.2278C10.0472 19.6581 10.4742 21.0503 11.24 22.259L12.7 20.799C12.2372 19.9385 11.9966 18.9761 12 17.999C12 16.4077 12.6321 14.8816 13.7573 13.7564C14.8825 12.6312 16.4087 11.999 18 11.999ZM24.76 13.739L23.3 15.199C23.7852 16.1125 24.0256 17.1361 23.9978 18.1701C23.97 19.2042 23.6749 20.2133 23.1412 21.0994C22.6075 21.9855 21.8535 22.7183 20.9525 23.2265C20.0516 23.7346 19.0344 24.0008 18 23.999V20.999L14 24.999L18 28.999V25.999C19.4308 26.0015 20.8361 25.6195 22.0688 24.893C23.3015 24.1665 24.3164 23.1221 25.0073 21.8691C25.6982 20.6161 26.0397 19.2004 25.9962 17.7702C25.9527 16.34 25.5258 14.9477 24.76 13.739Z" fill="white"/>
</svg>
