<svg width="23" height="21" viewBox="0 0 23 21" fill="none" xmlns="http://www.w3.org/2000/svg">
<path d="M3 3V0H5V3H8V5H5V8H3V5H0V3H3ZM6 9V6H9V3H16L17.83 5H21C21.5299 5.00158 22.0377 5.2128 22.4125 5.58753C22.7872 5.96227 22.9984 6.47005 23 7V19C22.9984 19.5299 22.7872 20.0377 22.4125 20.4125C22.0377 20.7872 21.5299 20.9984 21 21H5C4.47005 20.9984 3.96227 20.7872 3.58753 20.4125C3.2128 20.0377 3.00158 19.5299 3 19V9H6ZM13 18C13.9889 18 14.9556 17.7068 15.7779 17.1573C16.6001 16.6079 17.241 15.827 17.6194 14.9134C17.9978 13.9998 18.0969 12.9945 17.9039 12.0245C17.711 11.0546 17.2348 10.1637 16.5355 9.46447C15.8363 8.7652 14.9454 8.289 13.9755 8.09607C13.0055 7.90315 12.0002 8.00216 11.0866 8.3806C10.173 8.75904 9.39206 9.3999 8.84265 10.2221C8.29325 11.0444 8 12.0111 8 13C8 14.3261 8.52678 15.5979 9.46447 16.5355C10.4021 17.4732 11.6739 18 13 18ZM9.8 13C9.8 13.6329 9.98768 14.2516 10.3393 14.7778C10.6909 15.3041 11.1907 15.7142 11.7754 15.9564C12.3601 16.1986 13.0035 16.262 13.6243 16.1385C14.245 16.015 14.8152 15.7103 15.2627 15.2627C15.7103 14.8152 16.015 14.245 16.1385 13.6243C16.262 13.0035 16.1986 12.3601 15.9564 11.7754C15.7142 11.1907 15.3041 10.6909 14.7778 10.3393C14.2516 9.98768 13.6329 9.8 13 9.8C12.1513 9.8 11.3374 10.1371 10.7373 10.7373C10.1371 11.3374 9.8 12.1513 9.8 13Z" fill="#8E8E8E"/>
</svg>
