<svg width="16" height="22" viewBox="0 0 16 22" fill="none" xmlns="http://www.w3.org/2000/svg">
<path d="M7.99996 5V8L12 4L7.99996 0V3C6.56909 2.9975 5.16382 3.37948 3.93111 4.10601C2.69841 4.83254 1.68354 5.87692 0.992639 7.12994C0.301739 8.38297 -0.0398151 9.7986 0.00369352 11.2288C0.0472021 12.659 0.474175 14.0513 1.23996 15.26L2.69996 13.8C2.23724 12.9395 1.99663 11.977 1.99996 11C1.99996 9.4087 2.6321 7.88258 3.75732 6.75736C4.88254 5.63214 6.40866 5 7.99996 5ZM14.76 6.74L13.3 8.2C13.7852 9.11351 14.0256 10.1371 13.9978 11.1711C13.97 12.2051 13.6749 13.2143 13.1412 14.1004C12.6075 14.9865 11.8535 15.7193 10.9525 16.2274C10.0516 16.7356 9.03435 17.0017 7.99996 17V14L3.99996 18L7.99996 22V19C9.43084 19.0025 10.8361 18.6205 12.0688 17.894C13.3015 17.1675 14.3164 16.1231 15.0073 14.8701C15.6982 13.617 16.0397 12.2014 15.9962 10.7712C15.9527 9.34097 15.5258 7.94871 14.76 6.74Z" fill="#8E8E8E"/>
</svg>
