<svg width="82" height="45" viewBox="0 0 82 45" fill="none" xmlns="http://www.w3.org/2000/svg">
<path d="M14 18V14L7 21L14 28V23.9C19 23.9 22.5 25.5 25 29C24 24 21 19 14 18Z" fill="#8E8E8E"/>
<path d="M82 40V5C81.996 3.67513 81.468 2.40566 80.5312 1.46884C79.5943 0.532012 78.3249 0.00395682 77 0H42C40.6751 0.00395682 39.4057 0.532012 38.4688 1.46884C37.532 2.40566 37.004 3.67513 37 5V40C37.004 41.3249 37.532 42.5943 38.4688 43.5312C39.4057 44.468 40.6751 44.996 42 45H77C78.3249 44.996 79.5943 44.468 80.5312 43.5312C81.468 42.5943 81.996 41.3249 82 40ZM50.75 26.25L57 33.775L65.75 22.5L77 37.5H42L50.75 26.25Z" fill="#A3A3A3"/>
</svg>
