<svg width="20" height="20" viewBox="0 0 20 20" fill="none" xmlns="http://www.w3.org/2000/svg">
<path d="M18 4.01476H15.82C16.0661 3.32526 16.051 2.56945 15.7775 1.89034C15.504 1.21123 14.991 0.655928 14.3357 0.329498C13.6804 0.00306919 12.9281 -0.0718449 12.2213 0.118931C11.5145 0.309706 10.9021 0.752938 10.5 1.36476L10 2.03476L9.50001 1.35476C9.09804 0.740395 8.48433 0.295141 7.77556 0.103642C7.06678 -0.087857 6.31235 -0.0122507 5.65567 0.316089C4.999 0.644428 4.48585 1.20261 4.21379 1.88453C3.94172 2.56645 3.9297 3.32456 4.18001 4.01476H2.00001C1.73765 4.0141 1.47776 4.06544 1.23537 4.16584C0.992974 4.26624 0.772888 4.41369 0.587835 4.59967C0.402783 4.78566 0.256435 5.00648 0.157255 5.24937C0.0580742 5.49226 0.00802889 5.75241 0.0100123 6.01476L1.23375e-05 17.0148C-0.000912688 17.2777 0.0501873 17.5382 0.150369 17.7812C0.250551 18.0243 0.397834 18.2451 0.583736 18.431C0.769638 18.6169 0.990484 18.7642 1.23355 18.8644C1.47662 18.9646 1.73711 19.0157 2.00001 19.0148H18C18.2629 19.0157 18.5234 18.9646 18.7665 18.8644C19.0095 18.7642 19.2304 18.6169 19.4163 18.431C19.6022 18.2451 19.7495 18.0243 19.8497 17.7812C19.9498 17.5382 20.0009 17.2777 20 17.0148V6.01476C20.0009 5.75186 19.9498 5.49137 19.8497 5.2483C19.7495 5.00524 19.6022 4.78439 19.4163 4.59849C19.2304 4.41259 19.0095 4.2653 18.7665 4.16512C18.5234 4.06494 18.2629 4.01384 18 4.01476ZM13 2.01476C13.1978 2.01476 13.3911 2.07341 13.5556 2.1833C13.72 2.29318 13.8482 2.44936 13.9239 2.63208C13.9996 2.81481 14.0194 3.01587 13.9808 3.20985C13.9422 3.40384 13.847 3.58202 13.7071 3.72187C13.5673 3.86172 13.3891 3.95696 13.1951 3.99555C13.0011 4.03414 12.8001 4.01433 12.6173 3.93864C12.4346 3.86296 12.2784 3.73478 12.1685 3.57033C12.0587 3.40589 12 3.21255 12 3.01476C12 2.74955 12.1054 2.49519 12.2929 2.30766C12.4804 2.12012 12.7348 2.01476 13 2.01476ZM7.00001 2.01476C7.19779 2.01476 7.39113 2.07341 7.55558 2.1833C7.72003 2.29318 7.8482 2.44936 7.92389 2.63208C7.99958 2.81481 8.01938 3.01587 7.9808 3.20985C7.94221 3.40384 7.84697 3.58202 7.70712 3.72187C7.56727 3.86172 7.38908 3.95696 7.1951 3.99555C7.00112 4.03414 6.80005 4.01433 6.61733 3.93864C6.4346 3.86296 6.27842 3.73478 6.16854 3.57033C6.05866 3.40589 6.00001 3.21255 6.00001 3.01476C6.00001 2.74955 6.10537 2.49519 6.29291 2.30766C6.48044 2.12012 6.7348 2.01476 7.00001 2.01476ZM18 17.0148H2.00001V15.0148H18V17.0148ZM18 12.0148H2.00001V6.01476H7.08001L5.00001 8.84476L6.62001 10.0148L9.00001 6.77476L10 5.41476L11 6.77476L13.38 10.0148L15 8.84476L12.92 6.01476H18V12.0148Z" fill="#7BB3F5"/>
</svg>
