<svg width="20" height="20" viewBox="0 0 20 20" fill="none" xmlns="http://www.w3.org/2000/svg">
<path d="M17.1591 10.98C17.2031 10.6552 17.2264 10.3279 17.2291 10C17.2264 9.67223 17.2031 9.34492 17.1591 9.02005L19.2691 7.37005C19.3623 7.29528 19.4256 7.18965 19.4476 7.07226C19.4696 6.95487 19.4489 6.83347 19.3891 6.73005L17.3891 3.27005C17.3302 3.16687 17.2364 3.08807 17.1246 3.04775C17.0129 3.00744 16.8904 3.00825 16.7791 3.05005L14.2891 4.05005C13.7722 3.6492 13.2038 3.31958 12.5991 3.07005L12.2191 0.420047C12.2026 0.302388 12.1437 0.194807 12.0535 0.117483C11.9633 0.0401581 11.8479 -0.00159773 11.7291 4.67889e-05H7.72914C7.61034 -0.00159773 7.49501 0.0401581 7.4048 0.117483C7.31459 0.194807 7.25569 0.302388 7.23914 0.420047L6.85914 3.07005C6.2564 3.32347 5.68848 3.6528 5.16914 4.05005L2.67914 3.05005C2.56816 3.00565 2.44475 3.00352 2.33232 3.04408C2.21988 3.08463 2.12623 3.16504 2.06914 3.27005L0.0691406 6.73005C0.00793616 6.83308 -0.0136406 6.95489 0.00844519 7.07268C0.030531 7.19047 0.0947671 7.29618 0.189141 7.37005L2.29914 9.02005C2.25558 9.34495 2.2322 9.67225 2.22914 10C2.2322 10.3278 2.25558 10.6551 2.29914 10.98L0.189141 12.63C0.0959955 12.7048 0.0326894 12.8104 0.0106785 12.9278C-0.0113325 13.0452 0.00940572 13.1666 0.0691406 13.27L2.06914 16.73C2.12809 16.8332 2.22186 16.912 2.33364 16.9523C2.44542 16.9927 2.56791 16.9918 2.67914 16.95L5.16914 15.95C5.68606 16.3509 6.25448 16.6805 6.85914 16.93L7.23914 19.58C7.25569 19.6977 7.31459 19.8053 7.4048 19.8826C7.49501 19.9599 7.61034 20.0017 7.72914 20H11.7291C11.8479 20.0017 11.9633 19.9599 12.0535 19.8826C12.1437 19.8053 12.2026 19.6977 12.2191 19.58L12.5991 16.93C13.2019 16.6766 13.7698 16.3473 14.2891 15.95L16.7791 16.95C16.8901 16.9944 17.0135 16.9966 17.126 16.956C17.2384 16.9155 17.3321 16.8351 17.3891 16.73L19.3891 13.27C19.4489 13.1666 19.4696 13.0452 19.4476 12.9278C19.4256 12.8104 19.3623 12.7048 19.2691 12.63L17.1591 10.98ZM9.72914 13.5C9.03691 13.5 8.36022 13.2948 7.78464 12.9102C7.20907 12.5256 6.76047 11.979 6.49556 11.3394C6.23066 10.6999 6.16134 9.99616 6.29639 9.31723C6.43144 8.6383 6.76478 8.01466 7.25427 7.52517C7.74375 7.03569 8.36739 6.70235 9.04632 6.5673C9.72526 6.43225 10.429 6.50156 11.0685 6.76647C11.7081 7.03137 12.2547 7.47998 12.6393 8.05555C13.0239 8.63112 13.2291 9.30781 13.2291 10C13.2291 10.9283 12.8604 11.8185 12.204 12.4749C11.5476 13.1313 10.6574 13.5 9.72914 13.5Z" fill="#8E8E8E"/>
</svg>
