<svg width="18" height="20" viewBox="0 0 18 20" fill="none" xmlns="http://www.w3.org/2000/svg">
<path d="M15.0103 14.0796C14.2838 14.0828 13.5847 14.3574 13.0503 14.8496L5.92034 10.6996C5.97548 10.4702 6.00565 10.2355 6.01034 9.99959C6.00565 9.7637 5.97548 9.529 5.92034 9.29959L12.9703 5.18959C13.4751 5.65675 14.1253 5.93583 14.8117 5.97986C15.498 6.0239 16.1786 5.83021 16.7389 5.43139C17.2993 5.03256 17.7051 4.45293 17.8883 3.79C18.0714 3.12706 18.0207 2.42129 17.7445 1.79138C17.4684 1.16148 16.9838 0.645895 16.3722 0.331353C15.7605 0.0168113 15.0592 -0.0774914 14.3863 0.0643084C13.7133 0.206108 13.1096 0.575358 12.6769 1.10994C12.2442 1.64453 12.0088 2.31183 12.0103 2.99959C12.015 3.23548 12.0452 3.47018 12.1003 3.69959L5.05034 7.80959C4.62334 7.40982 4.08878 7.1436 3.51244 7.04368C2.93611 6.94376 2.34313 7.01451 1.80648 7.24722C1.26983 7.47994 0.812915 7.86445 0.491957 8.35347C0.170999 8.84248 0 9.41466 0 9.99959C0 10.5845 0.170999 11.1567 0.491957 11.6457C0.812915 12.1347 1.26983 12.5192 1.80648 12.752C2.34313 12.9847 2.93611 13.0554 3.51244 12.9555C4.08878 12.8556 4.62334 12.5894 5.05034 12.1896L12.1703 16.3496C12.1185 16.5624 12.0917 16.7806 12.0903 16.9996C12.0903 17.5771 12.2616 18.1417 12.5824 18.6219C12.9033 19.102 13.3593 19.4763 13.8929 19.6973C14.4265 19.9183 15.0136 19.9762 15.58 19.8635C16.1464 19.7508 16.6667 19.4727 17.0751 19.0643C17.4835 18.656 17.7616 18.1357 17.8742 17.5693C17.9869 17.0028 17.9291 16.4157 17.7081 15.8822C17.4871 15.3486 17.1128 14.8926 16.6326 14.5717C16.1524 14.2508 15.5879 14.0796 15.0103 14.0796Z" fill="#8E8E8E"/>
</svg>
