<svg width="18" height="18" viewBox="0 0 18 18" fill="none" xmlns="http://www.w3.org/2000/svg">
<path d="M2 0H16C16.5304 0 17.0391 0.210714 17.4142 0.585786C17.7893 0.960859 18 1.46957 18 2V6H16V2H2V16H16V12H18V16C18 16.5304 17.7893 17.0391 17.4142 17.4142C17.0391 17.7893 16.5304 18 16 18H2C1.47005 17.9984 0.962264 17.7872 0.587534 17.4125C0.212804 17.0377 0.00158082 16.5299 -1.90735e-06 16V2C0.00158082 1.47005 0.212804 0.962265 0.587534 0.587535C0.962264 0.212805 1.47005 0.00158273 2 0Z" fill="#8E8E8E"/>
<path d="M14.499 9.5L9.49902 5L7.99902 6.5L10.499 8.5H3.49902V10.5H10.499L7.99902 12.5L9.49902 14L14.499 9.5Z" fill="#8E8E8E"/>
</svg>
