<svg width="20" height="18" viewBox="0 0 20 18" fill="none" xmlns="http://www.w3.org/2000/svg">
<path d="M8.76438 0.714777C9.13828 -0.153463 10.3693 -0.153465 10.7432 0.714775L12.5848 4.99111C12.7408 5.35326 13.0821 5.60127 13.4747 5.63768L18.1108 6.06767C19.0521 6.15497 19.4326 7.32576 18.7223 7.94966L15.2244 11.0226C14.9282 11.2828 14.7978 11.6841 14.8845 12.0688L15.9082 16.6108C16.116 17.533 15.1201 18.2566 14.3072 17.774L10.3038 15.3968C9.96477 15.1955 9.54283 15.1955 9.20379 15.3968L5.20036 17.774C4.38753 18.2566 3.39159 17.533 3.59944 16.6108L4.62313 12.0688C4.70983 11.6841 4.57944 11.2828 4.28321 11.0226L0.785255 7.94967C0.075052 7.32576 0.455462 6.15497 1.39675 6.06767L6.03286 5.63768C6.42548 5.60127 6.76684 5.35326 6.9228 4.99111L8.76438 0.714777Z" fill="#A3A3A3"/>
</svg>
