<svg width="62" height="60" viewBox="0 0 62 60" fill="none" xmlns="http://www.w3.org/2000/svg">
<path d="M30.0106 1.29754C30.3845 0.429296 31.6155 0.429299 31.9894 1.29754L39.94 19.7595C40.0959 20.1216 40.4373 20.3696 40.8299 20.406L60.8451 22.2624C61.7864 22.3497 62.1668 23.5205 61.4566 24.1444L46.3551 37.4109C46.0589 37.6711 45.9285 38.0724 46.0152 38.457L50.4347 58.0663C50.6425 58.9885 49.6466 59.712 48.8338 59.2294L31.55 48.9666C31.211 48.7653 30.789 48.7653 30.45 48.9666L13.1662 59.2294C12.3534 59.712 11.3575 58.9885 11.5653 58.0663L15.9848 38.457C16.0715 38.0724 15.9411 37.6711 15.6449 37.4109L0.543416 24.1444C-0.166787 23.5205 0.213627 22.3497 1.15491 22.2624L21.1701 20.406C21.5627 20.3696 21.9041 20.1216 22.06 19.7595L30.0106 1.29754Z" fill="#8E8E8E"/>
<path d="M30.0106 1.29754C30.3845 0.429296 31.6155 0.429299 31.9894 1.29754L39.94 19.7595C40.0959 20.1216 40.4373 20.3696 40.8299 20.406L60.8451 22.2624C61.7864 22.3497 62.1668 23.5205 61.4566 24.1444L46.3551 37.4109C46.0589 37.6711 45.9285 38.0724 46.0152 38.457L50.4347 58.0663C50.6425 58.9885 49.6466 59.712 48.8338 59.2294L31.55 48.9666C31.211 48.7653 30.789 48.7653 30.45 48.9666L13.1662 59.2294C12.3534 59.712 11.3575 58.9885 11.5653 58.0663L15.9848 38.457C16.0715 38.0724 15.9411 37.6711 15.6449 37.4109L0.543416 24.1444C-0.166787 23.5205 0.213627 22.3497 1.15491 22.2624L21.1701 20.406C21.5627 20.3696 21.9041 20.1216 22.06 19.7595L30.0106 1.29754Z" fill="white"/>
<path d="M30.0106 1.29754C30.3845 0.429296 31.6155 0.429299 31.9894 1.29754L39.94 19.7595C40.0959 20.1216 40.4373 20.3696 40.8299 20.406L60.8451 22.2624C61.7864 22.3497 62.1668 23.5205 61.4566 24.1444L46.3551 37.4109C46.0589 37.6711 45.9285 38.0724 46.0152 38.457L50.4347 58.0663C50.6425 58.9885 49.6466 59.712 48.8338 59.2294L31.55 48.9666C31.211 48.7653 30.789 48.7653 30.45 48.9666L13.1662 59.2294C12.3534 59.712 11.3575 58.9885 11.5653 58.0663L15.9848 38.457C16.0715 38.0724 15.9411 37.6711 15.6449 37.4109L0.543416 24.1444C-0.166787 23.5205 0.213627 22.3497 1.15491 22.2624L21.1701 20.406C21.5627 20.3696 21.9041 20.1216 22.06 19.7595L30.0106 1.29754Z" fill="white"/>
</svg>
