<svg width="18" height="15" viewBox="0 0 18 15" fill="none" xmlns="http://www.w3.org/2000/svg">
<path d="M18 1.72002C17.3379 2.01201 16.6268 2.20939 15.8791 2.29812C16.6422 1.84399 17.2268 1.12436 17.5028 0.267873C16.7779 0.695749 15.9846 0.996974 15.1574 1.15846C14.4842 0.445271 13.5241 0 12.462 0C10.4234 0 8.77003 1.64253 8.77003 3.66983C8.77003 3.95708 8.80258 4.23732 8.86516 4.50637C5.79624 4.35309 3.07545 2.89208 1.25428 0.672074C0.936275 1.21426 0.754254 1.84465 0.754254 2.51725C0.754254 3.79029 1.40622 4.91351 2.39688 5.57147C1.81043 5.55341 1.23685 5.39609 0.724084 5.11265V5.15903C0.724084 6.93727 1.99671 8.42002 3.68605 8.75724C3.37572 8.84175 3.05005 8.88589 2.71312 8.88589C2.47491 8.88589 2.24379 8.86349 2.01802 8.82128C2.48792 10.2788 3.85163 11.3397 5.46699 11.3697C4.20323 12.3543 2.61084 12.9412 0.881321 12.9412C0.583432 12.9412 0.289023 12.9235 0 12.8889C1.63438 13.9304 3.57495 14.5385 5.66031 14.5385C12.452 14.5385 16.1664 8.94643 16.1664 4.09696C16.1664 3.93775 16.1629 3.77973 16.1551 3.62228C16.8788 3.10205 17.5035 2.45791 18 1.72002Z" fill="#E8E8E8"/>
</svg>
