<svg width="48" height="48" viewBox="0 0 48 48" fill="none" xmlns="http://www.w3.org/2000/svg">
<rect width="48" height="48" rx="24" fill="#7BB3F5"/>
<path d="M34.8002 17.664C34.0057 18.0144 33.1524 18.2513 32.2551 18.3577C33.1708 17.8128 33.8723 16.9492 34.2035 15.9214C33.3337 16.4349 32.3818 16.7964 31.3891 16.9902C30.5812 16.1343 29.4292 15.6 28.1546 15.6C25.7083 15.6 23.7242 17.571 23.7242 20.0038C23.7242 20.3485 23.7633 20.6848 23.8384 21.0076C20.1557 20.8237 16.8907 19.0705 14.7053 16.4065C14.3237 17.0571 14.1053 17.8136 14.1053 18.6207C14.1053 20.1484 14.8877 21.4962 16.0765 22.2858C15.3727 22.2641 14.6844 22.0753 14.0691 21.7352V21.7908C14.0691 23.9247 15.5962 25.704 17.6235 26.1087C17.2511 26.2101 16.8602 26.2631 16.4559 26.2631C16.1701 26.2631 15.8927 26.2362 15.6218 26.1855C16.1857 27.9345 17.8221 29.2077 19.7606 29.2436C18.2441 30.4251 16.3332 31.1294 14.2578 31.1294C13.9003 31.1294 13.547 31.1082 13.2002 31.0667C15.1615 32.3165 17.4901 33.0462 19.9926 33.0462C28.1426 33.0462 32.5999 26.3357 32.5999 20.5164C32.5999 20.3253 32.5956 20.1357 32.5864 19.9467C33.4548 19.3225 34.2044 18.5495 34.8002 17.664Z" fill="white"/>
</svg>
