<svg width="24" height="24" viewBox="0 0 24 24" fill="none" xmlns="http://www.w3.org/2000/svg">
<path d="M12 2.85C12.623 2.85 13.232 3.03474 13.75 3.38087C14.2681 3.727 14.6718 4.21896 14.9102 4.79455C15.1486 5.37013 15.211 6.00349 15.0895 6.61453C14.9679 7.22557 14.6679 7.78685 14.2274 8.22739C13.7869 8.66792 13.2256 8.96793 12.6145 9.08947C12.0035 9.21102 11.3701 9.14864 10.7945 8.91022C10.219 8.67181 9.727 8.26806 9.38087 7.75005C9.03474 7.23203 8.85 6.62301 8.85 6C8.85 5.16457 9.18187 4.36335 9.77261 3.77261C10.3634 3.18187 11.1646 2.85 12 2.85ZM12 16.35C16.455 16.35 21.15 18.54 21.15 19.5V21.15H2.85V19.5C2.85 18.54 7.545 16.35 12 16.35ZM12 0C10.8133 0 9.65327 0.351894 8.66658 1.01118C7.67988 1.67047 6.91085 2.60754 6.45672 3.7039C6.0026 4.80026 5.88378 6.00666 6.11529 7.17054C6.3468 8.33443 6.91824 9.40353 7.75736 10.2426C8.59647 11.0818 9.66557 11.6532 10.8295 11.8847C11.9933 12.1162 13.1997 11.9974 14.2961 11.5433C15.3925 11.0892 16.3295 10.3201 16.9888 9.33342C17.6481 8.34673 18 7.18669 18 6C18 4.4087 17.3679 2.88258 16.2426 1.75736C15.1174 0.632141 13.5913 0 12 0ZM12 13.5C7.995 13.5 0 15.51 0 19.5V24H24V19.5C24 15.51 16.005 13.5 12 13.5Z" fill="white"/>
</svg>
