<svg width="25" height="24" viewBox="0 0 25 24" xmlns="http://www.w3.org/2000/svg">
<path d="M23.2368 19.579V20.8421C23.2348 21.5115 22.968 22.1529 22.4947 22.6263C22.0213 23.0996 21.3799 23.3664 20.7105 23.3684H3.02632C2.3563 23.3684 1.71372 23.1023 1.23994 22.6285C0.766165 22.1547 0.5 21.5121 0.5 20.8421V3.15791C0.5 2.48789 0.766165 1.84531 1.23994 1.37153C1.71372 0.897756 2.3563 0.631592 3.02632 0.631592H20.7105C21.3799 0.633591 22.0213 0.900398 22.4947 1.37374C22.968 1.84708 23.2348 2.4885 23.2368 3.15791V4.42107H11.8684C11.1984 4.42107 10.5558 4.68723 10.082 5.16101C9.60827 5.63478 9.3421 6.27736 9.3421 6.94738V17.0526C9.3421 17.7227 9.60827 18.3652 10.082 18.839C10.5558 19.3128 11.1984 19.579 11.8684 19.579H23.2368ZM11.8684 17.0526H24.5V6.94738H11.8684V17.0526ZM16.9211 13.8947C16.5463 13.8947 16.18 13.7836 15.8684 13.5754C15.5568 13.3672 15.314 13.0713 15.1705 12.7251C15.0271 12.3789 14.9896 11.9979 15.0627 11.6304C15.1358 11.2628 15.3163 10.9252 15.5813 10.6602C15.8463 10.3952 16.1839 10.2148 16.5514 10.1417C16.9189 10.0686 17.2999 10.1061 17.6461 10.2495C17.9924 10.3929 18.2883 10.6358 18.4965 10.9474C18.7047 11.2589 18.8158 11.6253 18.8158 12C18.8158 12.5025 18.6162 12.9845 18.2608 13.3398C17.9055 13.6951 17.4236 13.8947 16.9211 13.8947Z" fill="#8E8E8E"/>
<path d="M23.2368 19.579V20.8421C23.2348 21.5115 22.968 22.1529 22.4947 22.6263C22.0213 23.0996 21.3799 23.3664 20.7105 23.3684H3.02632C2.3563 23.3684 1.71372 23.1023 1.23994 22.6285C0.766165 22.1547 0.5 21.5121 0.5 20.8421V3.15791C0.5 2.48789 0.766165 1.84531 1.23994 1.37153C1.71372 0.897756 2.3563 0.631592 3.02632 0.631592H20.7105C21.3799 0.633591 22.0213 0.900398 22.4947 1.37374C22.968 1.84708 23.2348 2.4885 23.2368 3.15791V4.42107H11.8684C11.1984 4.42107 10.5558 4.68723 10.082 5.16101C9.60827 5.63478 9.3421 6.27736 9.3421 6.94738V17.0526C9.3421 17.7227 9.60827 18.3652 10.082 18.839C10.5558 19.3128 11.1984 19.579 11.8684 19.579H23.2368ZM11.8684 17.0526H24.5V6.94738H11.8684V17.0526ZM16.9211 13.8947C16.5463 13.8947 16.18 13.7836 15.8684 13.5754C15.5568 13.3672 15.314 13.0713 15.1705 12.7251C15.0271 12.3789 14.9896 11.9979 15.0627 11.6304C15.1358 11.2628 15.3163 10.9252 15.5813 10.6602C15.8463 10.3952 16.1839 10.2148 16.5514 10.1417C16.9189 10.0686 17.2999 10.1061 17.6461 10.2495C17.9924 10.3929 18.2883 10.6358 18.4965 10.9474C18.7047 11.2589 18.8158 11.6253 18.8158 12C18.8158 12.5025 18.6162 12.9845 18.2608 13.3398C17.9055 13.6951 17.4236 13.8947 16.9211 13.8947Z" fill="white"/>
<path d="M23.2368 19.579V20.8421C23.2348 21.5115 22.968 22.1529 22.4947 22.6263C22.0213 23.0996 21.3799 23.3664 20.7105 23.3684H3.02632C2.3563 23.3684 1.71372 23.1023 1.23994 22.6285C0.766165 22.1547 0.5 21.5121 0.5 20.8421V3.15791C0.5 2.48789 0.766165 1.84531 1.23994 1.37153C1.71372 0.897756 2.3563 0.631592 3.02632 0.631592H20.7105C21.3799 0.633591 22.0213 0.900398 22.4947 1.37374C22.968 1.84708 23.2348 2.4885 23.2368 3.15791V4.42107H11.8684C11.1984 4.42107 10.5558 4.68723 10.082 5.16101C9.60827 5.63478 9.3421 6.27736 9.3421 6.94738V17.0526C9.3421 17.7227 9.60827 18.3652 10.082 18.839C10.5558 19.3128 11.1984 19.579 11.8684 19.579H23.2368ZM11.8684 17.0526H24.5V6.94738H11.8684V17.0526ZM16.9211 13.8947C16.5463 13.8947 16.18 13.7836 15.8684 13.5754C15.5568 13.3672 15.314 13.0713 15.1705 12.7251C15.0271 12.3789 14.9896 11.9979 15.0627 11.6304C15.1358 11.2628 15.3163 10.9252 15.5813 10.6602C15.8463 10.3952 16.1839 10.2148 16.5514 10.1417C16.9189 10.0686 17.2999 10.1061 17.6461 10.2495C17.9924 10.3929 18.2883 10.6358 18.4965 10.9474C18.7047 11.2589 18.8158 11.6253 18.8158 12C18.8158 12.5025 18.6162 12.9845 18.2608 13.3398C17.9055 13.6951 17.4236 13.8947 16.9211 13.8947Z" fill="white"/>
</svg>
