<svg width="18" height="18" viewBox="0 0 18 18" fill="none" xmlns="http://www.w3.org/2000/svg">
<path d="M8.1 11.7H9.9V13.5H8.1V11.7ZM8.1 4.5H9.9V9.9H8.1V4.5ZM8.991 4.50041e-06C7.21136 0.00178415 5.47218 0.531137 3.99333 1.52115C2.51447 2.51117 1.36232 3.91739 0.682508 5.56209C0.00269908 7.20678 -0.174247 9.01609 0.174035 10.7613C0.522318 12.5066 1.38019 14.1094 2.63922 15.3671C3.89825 16.6249 5.50192 17.4812 7.2475 17.8277C8.99308 18.1743 10.8022 17.9955 12.4462 17.3141C14.0902 16.6326 15.4953 15.479 16.4839 13.9992C17.4724 12.5194 18 10.7797 18 9C18 7.81735 17.7669 6.64629 17.3141 5.55377C16.8612 4.46126 16.1975 3.4687 15.3608 2.63286C14.5241 1.79701 13.5309 1.13427 12.4379 0.682504C11.3449 0.230741 10.1737 -0.00117815 8.991 4.50041e-06ZM9 16.2C7.57598 16.2 6.18393 15.7777 4.9999 14.9866C3.81586 14.1954 2.89302 13.071 2.34807 11.7553C1.80312 10.4397 1.66054 8.99202 1.93835 7.59535C2.21616 6.19869 2.9019 4.91577 3.90884 3.90884C4.91577 2.9019 6.19869 2.21616 7.59535 1.93835C8.99202 1.66054 10.4397 1.80312 11.7553 2.34807C13.071 2.89302 14.1954 3.81586 14.9866 4.9999C15.7777 6.18393 16.2 7.57598 16.2 9C16.2 10.9096 15.4414 12.7409 14.0912 14.0912C12.7409 15.4414 10.9096 16.2 9 16.2Z" fill="#FF5A20"/>
</svg>
