<svg width="40" height="40" viewBox="0 0 40 40" fill="none" xmlns="http://www.w3.org/2000/svg">
<rect width="40" height="40" rx="20" fill="#A3A3A3"/>
<path d="M26.2378 14.1373C25.0905 13.6109 23.8602 13.2231 22.5739 13.0009C22.5505 12.9966 22.5271 13.0074 22.515 13.0288C22.3568 13.3102 22.1815 13.6773 22.0588 13.9659C20.6753 13.7588 19.2989 13.7588 17.9437 13.9659C17.821 13.6709 17.6394 13.3102 17.4804 13.0288C17.4684 13.0081 17.445 12.9974 17.4215 13.0009C16.1359 13.2224 14.9057 13.6102 13.7577 14.1373C13.7478 14.1416 13.7392 14.1487 13.7336 14.158C11.4 17.6443 10.7608 21.0449 11.0744 24.4033C11.0758 24.4197 11.085 24.4354 11.0978 24.4454C12.6374 25.5761 14.1288 26.2625 15.5925 26.7175C15.6159 26.7246 15.6407 26.716 15.6556 26.6967C16.0018 26.2239 16.3105 25.7254 16.5751 25.2011C16.5907 25.1704 16.5758 25.134 16.5439 25.1218C16.0543 24.9361 15.5882 24.7097 15.1398 24.4526C15.1043 24.4319 15.1015 24.3811 15.1341 24.3568C15.2285 24.2861 15.3229 24.2126 15.413 24.1383C15.4293 24.1247 15.452 24.1219 15.4711 24.1304C18.417 25.4754 21.6062 25.4754 24.5172 24.1304C24.5364 24.1212 24.5591 24.124 24.5761 24.1376C24.6662 24.2119 24.7606 24.2861 24.8557 24.3568C24.8883 24.3811 24.8862 24.4319 24.8507 24.4526C24.4023 24.7147 23.9361 24.9361 23.4459 25.1211C23.414 25.1333 23.3998 25.1704 23.4154 25.2011C23.6857 25.7246 23.9943 26.2232 24.3342 26.696C24.3484 26.716 24.3739 26.7246 24.3973 26.7175C25.8681 26.2625 27.3595 25.5761 28.8991 24.4454C28.9126 24.4354 28.9211 24.4204 28.9225 24.404C29.2978 20.5213 28.2939 17.1486 26.2612 14.1587C26.2562 14.1487 26.2477 14.1416 26.2378 14.1373ZM17.015 22.3584C16.1281 22.3584 15.3973 21.5441 15.3973 20.5442C15.3973 19.5442 16.114 18.73 17.015 18.73C17.9232 18.73 18.6469 19.5514 18.6327 20.5442C18.6327 21.5441 17.9161 22.3584 17.015 22.3584ZM22.9961 22.3584C22.1092 22.3584 21.3784 21.5441 21.3784 20.5442C21.3784 19.5442 22.095 18.73 22.9961 18.73C23.9042 18.73 24.6279 19.5514 24.6137 20.5442C24.6137 21.5441 23.9042 22.3584 22.9961 22.3584Z" fill="#E8E8E8"/>
</svg>
