<svg width="20" height="26" viewBox="0 0 20 26" fill="none" xmlns="http://www.w3.org/2000/svg">
<path d="M16.1787 10.4074C16.7762 9.08471 18.7662 8.94597 19.144 10.3473C19.9371 13.2887 20.0776 16.2867 18.9847 19.3667C16.5627 26.193 8.78946 26.655 4.23615 24.2191C0.397641 22.1733 -1.12159 17.5985 0.889477 14.0408C1.52559 12.915 2.24476 11.8262 2.94207 10.7295C5.22203 7.15247 5.91994 5.93311 6.52537 3.25331C6.85698 1.78553 8.56742 1.1248 9.58966 2.22904C10.6539 3.3787 11.5612 4.64088 12.2891 5.98975C12.9887 7.25666 13.4738 8.56981 13.7912 9.92528C14.0832 11.1725 15.6514 11.5748 16.1787 10.4074Z" fill="#FF4F17"/>
</svg>
