<svg width="40" height="40" viewBox="0 0 40 40" fill="none" xmlns="http://www.w3.org/2000/svg">
<rect width="40" height="40" rx="20" fill="#A3A3A3"/>
<path d="M20.0684 17.4765C19.5693 17.4765 19.0814 17.6245 18.6664 17.9018C18.2514 18.1791 17.928 18.5732 17.737 19.0343C17.546 19.4954 17.496 20.0028 17.5934 20.4923C17.6908 20.9818 17.9311 21.4314 18.284 21.7843C18.6369 22.1373 19.0866 22.3776 19.5761 22.475C20.0656 22.5723 20.573 22.5224 21.0341 22.3314C21.4952 22.1404 21.8893 21.8169 22.1666 21.4019C22.4438 20.987 22.5918 20.4991 22.5918 20C22.5906 19.3311 22.3244 18.6899 21.8514 18.217C21.3784 17.744 20.7373 17.4777 20.0684 17.4765Z" fill="#E8E8E8"/>
<path d="M23.1928 12H16.8072C15.5326 12.0012 14.3106 12.5081 13.4093 13.4093C12.5081 14.3106 12.0012 15.5326 12 16.8072V23.1928C12.0012 24.4674 12.5081 25.6894 13.4093 26.5907C14.3106 27.4919 15.5326 27.9988 16.8072 28H23.1928C24.4674 27.9988 25.6894 27.4919 26.5907 26.5907C27.4919 25.6894 27.9988 24.4674 28 23.1928V16.8072C27.9988 15.5326 27.4919 14.3106 26.5907 13.4093C25.6894 12.5081 24.4674 12.0012 23.1928 12V12ZM20.0678 23.9389C19.2888 23.9389 18.5272 23.7079 17.8795 23.2751C17.2317 22.8423 16.7269 22.2271 16.4287 21.5074C16.1306 20.7876 16.0526 19.9956 16.2046 19.2315C16.3566 18.4675 16.7317 17.7656 17.2826 17.2147C17.8334 16.6639 18.5353 16.2887 19.2994 16.1367C20.0635 15.9848 20.8555 16.0628 21.5752 16.3609C22.295 16.659 22.9101 17.1639 23.343 17.8116C23.7758 18.4594 24.0068 19.2209 24.0068 20C24.0056 21.0443 23.5902 22.0455 22.8518 22.7839C22.1133 23.5224 21.1121 23.9378 20.0678 23.9389ZM24.2374 16.7349C24.0512 16.7358 23.8689 16.6814 23.7136 16.5786C23.5583 16.4757 23.4371 16.3291 23.3652 16.1573C23.2933 15.9855 23.274 15.7963 23.3098 15.6135C23.3456 15.4307 23.4348 15.2627 23.5662 15.1307C23.6975 14.9987 23.8651 14.9087 24.0477 14.872C24.2303 14.8353 24.4197 14.8537 24.5918 14.9248C24.764 14.9958 24.9111 15.1164 25.0147 15.2712C25.1183 15.426 25.1735 15.608 25.1735 15.7942C25.1735 16.0429 25.0751 16.2815 24.8996 16.4578C24.7242 16.6341 24.4861 16.7337 24.2374 16.7349Z" fill="#E8E8E8"/>
</svg>
