<svg width="141" height="53" viewBox="0 0 141 53" fill="none" xmlns="http://www.w3.org/2000/svg">
<path d="M6.88931 36.1876C5.62301 36.1876 4.50745 36.0619 3.54264 35.8107C2.58789 35.5494 1.85424 35.2328 1.34168 34.8609C0.83918 34.4891 0.587928 34.1373 0.587928 33.8057C0.587928 33.5444 0.683404 33.2228 0.874355 32.8409C1.07536 32.459 1.31153 32.1324 1.58288 31.861C1.85424 31.5796 2.08036 31.4389 2.26126 31.4389C2.37181 31.4389 2.60799 31.5344 2.96979 31.7253C3.51249 32.0067 4.02505 32.2329 4.50745 32.4037C4.9999 32.5746 5.56271 32.66 6.19586 32.66C6.89936 32.66 7.49232 32.5243 7.97472 32.253C8.46717 31.9716 8.7134 31.4841 8.7134 30.7907C8.7134 30.3887 8.58777 30.0419 8.33652 29.7505C8.08527 29.459 7.76367 29.2128 7.37172 29.0118C6.97976 28.8108 6.44711 28.5746 5.77376 28.3033L4.58283 27.7907C3.85922 27.439 3.23612 27.0521 2.71352 26.6299C2.20096 26.2078 1.77886 25.6501 1.44721 24.9566C1.12561 24.2632 0.964805 23.4139 0.964805 22.4089C0.964805 21.1828 1.26631 20.1627 1.86931 19.3487C2.47231 18.5346 3.25622 17.9366 4.22102 17.5547C5.18583 17.1728 6.22098 16.9819 7.32649 16.9819C8.231 16.9819 9.05008 17.0774 9.78373 17.2683C10.5174 17.4492 11.0902 17.6854 11.5023 17.9768C11.9244 18.2683 12.1354 18.5598 12.1354 18.8512C12.1354 19.0924 12.055 19.404 11.8942 19.7859C11.7435 20.1577 11.5525 20.4843 11.3214 20.7657C11.0902 21.0471 10.8742 21.1878 10.6732 21.1878C10.5827 21.1878 10.4219 21.1376 10.1908 21.0371C9.81891 20.8863 9.44203 20.7657 9.06013 20.6753C8.68827 20.5748 8.231 20.5245 7.68829 20.5245C6.75364 20.5245 6.10541 20.6753 5.74361 20.9768C5.38181 21.2682 5.2009 21.615 5.2009 22.017C5.2009 22.4793 5.3215 22.8662 5.56271 23.1778C5.81396 23.4893 6.12551 23.7456 6.49736 23.9466C6.87926 24.1476 7.40689 24.3787 8.08025 24.64C9.0953 25.0722 9.92443 25.4842 10.5676 25.8762C11.2108 26.2581 11.7636 26.8108 12.2259 27.5345C12.6982 28.2581 12.9344 29.1827 12.9344 30.3083C12.9344 31.6851 12.643 32.8158 12.0601 33.7002C11.4872 34.5745 10.7435 35.2077 9.82896 35.5996C8.92445 35.9916 7.94457 36.1876 6.88931 36.1876ZM20.3061 36.0067C19.2308 36.0067 18.6931 35.7252 18.6931 35.1624V20.7054H14.4419C14.1605 20.7054 13.9545 20.5999 13.8239 20.3889C13.7033 20.1778 13.643 19.8361 13.643 19.3638V18.5497C13.643 18.0774 13.7033 17.7356 13.8239 17.5246C13.9545 17.3135 14.1605 17.208 14.4419 17.208H27.1201C27.4015 17.208 27.6025 17.3135 27.7231 17.5246C27.8537 17.7356 27.9191 18.0774 27.9191 18.5497V19.3638C27.9191 19.8361 27.8537 20.1778 27.7231 20.3889C27.6025 20.5999 27.4015 20.7054 27.1201 20.7054H22.8538V35.1624C22.8538 35.7252 22.3162 36.0067 21.2408 36.0067H20.3061ZM28.6879 36.0067C27.5924 36.0067 27.0447 35.8107 27.0447 35.4187C27.0447 35.3082 27.0799 35.1474 27.1502 34.9363L33.0597 17.7055C33.2004 17.3236 33.7079 17.1326 34.5822 17.1326H35.9692C36.8435 17.1326 37.351 17.3236 37.4917 17.7055L43.4012 34.9363C43.4514 35.1373 43.4765 35.2981 43.4765 35.4187C43.4765 35.6197 43.366 35.7705 43.1449 35.871C42.9338 35.9614 42.5972 36.0067 42.1349 36.0067H40.959C40.5369 36.0067 40.1952 35.9665 39.9339 35.8861C39.6826 35.7956 39.5269 35.6499 39.4666 35.4489L38.3812 32.1776H32.0647L30.9793 35.4489C30.8687 35.8207 30.4567 36.0067 29.7431 36.0067H28.6879ZM37.2355 28.6349L35.7129 23.8712C35.6224 23.63 35.542 23.3536 35.4717 23.0421C35.4114 22.7305 35.3561 22.434 35.3058 22.1526H35.2003L35.14 22.4843C35.0395 23.0773 34.9239 23.5396 34.7933 23.8712L33.2104 28.6349H37.2355ZM46.9438 36.0067C45.8685 36.0067 45.3308 35.7252 45.3308 35.1624V18.2633C45.3308 17.8914 45.4162 17.6251 45.5871 17.4643C45.7579 17.2934 46.0293 17.208 46.4011 17.208H51.6322C56.0743 17.208 58.2954 18.8814 58.2954 22.228C58.2954 23.2431 58.0089 24.1174 57.4361 24.8511C56.8733 25.5847 56.1145 26.1325 55.1597 26.4943V26.5998C55.4914 26.7405 55.8381 27.042 56.1999 27.5043C56.5718 27.9666 56.8682 28.4892 57.0893 29.0721L59.4561 34.9665C59.5365 35.2077 59.5767 35.3785 59.5767 35.479C59.5767 35.8308 59.0441 36.0067 57.9788 36.0067H56.8783C55.9838 36.0067 55.4663 35.8207 55.3256 35.4489L53.2 30.2178C52.999 29.8158 52.803 29.5043 52.612 29.2832C52.4311 29.0621 52.1749 28.8962 51.8432 28.7857C51.5116 28.6651 51.0643 28.6048 50.5015 28.6048H49.4614V35.1624C49.4614 35.7252 48.9237 36.0067 47.8483 36.0067H46.9438ZM51.994 25.0471C52.3558 25.0471 52.6975 24.9466 53.0191 24.7456C53.3407 24.5345 53.597 24.2531 53.7879 23.9014C53.9789 23.5496 54.0743 23.1627 54.0743 22.7406C54.0743 22.1175 53.8683 21.625 53.4562 21.2632C53.0542 20.8914 52.5065 20.7054 51.8131 20.7054H49.4614V25.0471H51.994ZM66.7374 36.1876C65.4711 36.1876 64.3555 36.0619 63.3907 35.8107C62.436 35.5494 61.7023 35.2328 61.1898 34.8609C60.6873 34.4891 60.436 34.1373 60.436 33.8057C60.436 33.5444 60.5315 33.2228 60.7224 32.8409C60.9234 32.459 61.1596 32.1324 61.431 31.861C61.7023 31.5796 61.9284 31.4389 62.1094 31.4389C62.2199 31.4389 62.4561 31.5344 62.8179 31.7253C63.3606 32.0067 63.8731 32.2329 64.3555 32.4037C64.848 32.5746 65.4108 32.66 66.0439 32.66C66.7475 32.66 67.3404 32.5243 67.8228 32.253C68.3153 31.9716 68.5615 31.4841 68.5615 30.7907C68.5615 30.3887 68.4359 30.0419 68.1846 29.7505C67.9334 29.459 67.6118 29.2128 67.2198 29.0118C66.8279 28.8108 66.2952 28.5746 65.6218 28.3033L64.4309 27.7907C63.7073 27.439 63.0842 27.0521 62.5616 26.6299C62.049 26.2078 61.6269 25.6501 61.2953 24.9566C60.9737 24.2632 60.8129 23.4139 60.8129 22.4089C60.8129 21.1828 61.1144 20.1627 61.7174 19.3487C62.3204 18.5346 63.1043 17.9366 64.0691 17.5547C65.0339 17.1728 66.0691 16.9819 67.1746 16.9819C68.0791 16.9819 68.8982 17.0774 69.6318 17.2683C70.3655 17.4492 70.9383 17.6854 71.3504 17.9768C71.7725 18.2683 71.9835 18.5598 71.9835 18.8512C71.9835 19.0924 71.9031 19.404 71.7423 19.7859C71.5916 20.1577 71.4006 20.4843 71.1695 20.7657C70.9383 21.0471 70.7222 21.1878 70.5212 21.1878C70.4308 21.1878 70.27 21.1376 70.0388 21.0371C69.667 20.8863 69.2901 20.7657 68.9082 20.6753C68.5364 20.5748 68.0791 20.5245 67.5364 20.5245C66.6017 20.5245 65.9535 20.6753 65.5917 20.9768C65.2299 21.2682 65.049 21.615 65.049 22.017C65.049 22.4793 65.1696 22.8662 65.4108 23.1778C65.662 23.4893 65.9736 23.7456 66.3454 23.9466C66.7274 24.1476 67.255 24.3787 67.9283 24.64C68.9434 25.0722 69.7725 25.4842 70.4157 25.8762C71.0589 26.2581 71.6117 26.8108 72.074 27.5345C72.5463 28.2581 72.7825 29.1827 72.7825 30.3083C72.7825 31.6851 72.4911 32.8158 71.9082 33.7002C71.3353 34.5745 70.5916 35.2077 69.677 35.5996C68.7725 35.9916 67.7927 36.1876 66.7374 36.1876ZM94.2645 36.0067C93.1691 36.0067 92.6213 35.8107 92.6213 35.4187C92.6213 35.3082 92.6565 35.1474 92.7268 34.9363L98.6363 17.7055C98.777 17.3236 99.2845 17.1326 100.159 17.1326H101.546C102.42 17.1326 102.928 17.3236 103.068 17.7055L108.978 34.9363C109.028 35.1373 109.053 35.2981 109.053 35.4187C109.053 35.6197 108.943 35.7705 108.722 35.871C108.51 35.9614 108.174 36.0067 107.711 36.0067H106.536C106.114 36.0067 105.772 35.9665 105.511 35.8861C105.259 35.7956 105.103 35.6499 105.043 35.4489L103.958 32.1776H97.6413L96.5559 35.4489C96.4454 35.8207 96.0333 36.0067 95.3198 36.0067H94.2645ZM102.812 28.6349L101.289 23.8712C101.199 23.63 101.119 23.3536 101.048 23.0421C100.988 22.7305 100.933 22.434 100.882 22.1526H100.777L100.717 22.4843C100.616 23.0773 100.501 23.5396 100.37 23.8712L98.787 28.6349H102.812ZM112.52 36.0067C111.445 36.0067 110.907 35.7252 110.907 35.1624V18.2633C110.907 17.8914 110.993 17.6251 111.164 17.4643C111.335 17.2934 111.606 17.208 111.978 17.208H117.209C121.651 17.208 123.872 18.8814 123.872 22.228C123.872 23.2431 123.586 24.1174 123.013 24.8511C122.45 25.5847 121.691 26.1325 120.736 26.4943V26.5998C121.068 26.7405 121.415 27.042 121.777 27.5043C122.148 27.9666 122.445 28.4892 122.666 29.0721L125.033 34.9665C125.113 35.2077 125.153 35.3785 125.153 35.479C125.153 35.8308 124.621 36.0067 123.555 36.0067H122.455C121.56 36.0067 121.043 35.8207 120.902 35.4489L118.777 30.2178C118.576 29.8158 118.38 29.5043 118.189 29.2832C118.008 29.0621 117.751 28.8962 117.42 28.7857C117.088 28.6651 116.641 28.6048 116.078 28.6048H115.038V35.1624C115.038 35.7252 114.5 36.0067 113.425 36.0067H112.52ZM117.571 25.0471C117.932 25.0471 118.274 24.9466 118.596 24.7456C118.917 24.5345 119.174 24.2531 119.365 23.9014C119.555 23.5496 119.651 23.1627 119.651 22.7406C119.651 22.1175 119.445 21.625 119.033 21.2632C118.631 20.8914 118.083 20.7054 117.39 20.7054H115.038V25.0471H117.571ZM132.314 36.0067C131.239 36.0067 130.701 35.7252 130.701 35.1624V20.7054H126.45C126.168 20.7054 125.962 20.5999 125.832 20.3889C125.711 20.1778 125.651 19.8361 125.651 19.3638V18.5497C125.651 18.0774 125.711 17.7356 125.832 17.5246C125.962 17.3135 126.168 17.208 126.45 17.208H139.128C139.409 17.208 139.61 17.3135 139.731 17.5246C139.862 17.7356 139.927 18.0774 139.927 18.5497V19.3638C139.927 19.8361 139.862 20.1778 139.731 20.3889C139.61 20.5999 139.409 20.7054 139.128 20.7054H134.862V35.1624C134.862 35.7252 134.324 36.0067 133.249 36.0067H132.314Z" fill="#A3A3A3"/>
<path d="M82.7644 18.7145C83.1383 17.8463 84.3693 17.8463 84.7432 18.7145L86.5848 22.9909C86.7408 23.353 87.0821 23.601 87.4747 23.6374L92.1108 24.0674C93.0521 24.1547 93.4326 25.3255 92.7223 25.9494L89.2244 29.0223C88.9282 29.2826 88.7978 29.6838 88.8845 30.0685L89.9082 34.6106C90.116 35.5328 89.1201 36.2564 88.3072 35.7737L84.3038 33.3965C83.9648 33.1952 83.5428 33.1952 83.2038 33.3965L79.2004 35.7737C78.3875 36.2564 77.3916 35.5328 77.5994 34.6106L78.6231 30.0685C78.7098 29.6838 78.5794 29.2826 78.2832 29.0223L74.7853 25.9494C74.0751 25.3255 74.4555 24.1547 75.3968 24.0674L80.0329 23.6374C80.4255 23.601 80.7668 23.353 80.9228 22.9909L82.7644 18.7145Z" fill="#A3A3A3"/>
</svg>
