<svg width="40" height="40" viewBox="0 0 40 40" fill="none" xmlns="http://www.w3.org/2000/svg">
<rect width="40" height="40" rx="20" fill="#A3A3A3"/>
<path d="M15.2048 14C18.6316 14 21.4093 16.7971 21.4093 20.2473C21.4093 23.6976 18.6314 26.4945 15.2048 26.4945C11.7782 26.4945 9 23.6976 9 20.2473C9 16.7971 11.778 14 15.2048 14ZM25.1133 14.366C26.8267 14.366 28.2157 16.9989 28.2157 20.2473H28.2159C28.2159 23.495 26.827 26.1287 25.1135 26.1287C23.4001 26.1287 22.0112 23.495 22.0112 20.2473C22.0112 16.9997 23.3999 14.366 25.1133 14.366ZM29.9089 14.9785C30.5114 14.9785 31 17.3374 31 20.2473C31 23.1564 30.5116 25.5162 29.9089 25.5162C29.3062 25.5162 28.818 23.1571 28.818 20.2473C28.818 17.3376 29.3064 14.9785 29.9089 14.9785Z" fill="#E8E8E8"/>
</svg>
