<svg width="254" height="454" viewBox="0 0 254 454" fill="none" xmlns="http://www.w3.org/2000/svg">
<g filter="url(#filter0_d_499_272)">
<rect x="27" y="27" width="200" height="400" rx="12" fill="white"/>
</g>
<path fill-rule="evenodd" clip-rule="evenodd" d="M199.683 40.3369C199.114 40.3369 198.64 40.7236 198.508 41.243L199.739 42.4532L200.878 41.3332C200.782 40.7684 200.285 40.3369 199.683 40.3369Z" fill="#A3A3A3"/>
<path fill-rule="evenodd" clip-rule="evenodd" d="M199.683 38.6247C198.64 38.6247 197.726 39.1564 197.199 39.9575L197.959 40.7031C198.272 40.0743 198.922 39.638 199.683 39.638C200.472 39.638 201.15 40.1057 201.447 40.774L202.209 40.0252C201.69 39.1868 200.754 38.6247 199.683 38.6247Z" fill="#A3A3A3"/>
<path opacity="0.5" fill-rule="evenodd" clip-rule="evenodd" d="M199.683 36.8166C198.134 36.8166 196.76 37.5419 195.883 38.663L196.647 39.4134C197.322 38.4801 198.429 37.8689 199.683 37.8689C200.966 37.8689 202.097 38.5062 202.768 39.4758L203.532 38.7254C202.657 37.5691 201.261 36.8166 199.683 36.8166Z" fill="#A3A3A3"/>
<path fill-rule="evenodd" clip-rule="evenodd" d="M213.115 41.4H208.346C207.896 41.4 207.53 41.0352 207.53 40.5851V38.4816C207.53 38.032 207.896 37.6667 208.346 37.6667H213.115C213.565 37.6667 213.93 38.032 213.93 38.4816V40.5851C213.93 41.0352 213.565 41.4 213.115 41.4Z" fill="#A3A3A3"/>
<path opacity="0.5" fill-rule="evenodd" clip-rule="evenodd" d="M217.668 41.0881C217.668 41.5548 217.289 41.9334 216.822 41.9334H207.846C207.38 41.9334 207.001 41.5548 207.001 41.0881V37.9788C207.001 37.5121 207.38 37.1334 207.846 37.1334H216.822C217.289 37.1334 217.668 37.5121 217.668 37.9788V41.0881ZM216.998 36.6001H207.67C207.006 36.6001 206.468 37.1388 206.468 37.8028V41.2641C206.468 41.9281 207.006 42.4668 207.67 42.4668H216.998C217.662 42.4668 218.201 41.9281 218.201 41.2641V37.8028C218.201 37.1388 217.662 36.6001 216.998 36.6001Z" fill="#A3A3A3"/>
<path opacity="0.5" fill-rule="evenodd" clip-rule="evenodd" d="M218.599 40.6V38.4667C219.04 38.4667 219.399 38.8251 219.399 39.2667V39.8C219.399 40.2422 219.04 40.6 218.599 40.6Z" fill="#A3A3A3"/>
<path opacity="0.5" fill-rule="evenodd" clip-rule="evenodd" d="M191.766 36.8169H192.256C192.594 36.8169 192.868 37.0916 192.868 37.4297V41.8404C192.868 42.1785 192.594 42.4532 192.256 42.4532H191.766C191.427 42.4532 191.153 42.1785 191.153 41.8404V37.4297C191.153 37.0916 191.427 36.8169 191.766 36.8169Z" fill="#A3A3A3"/>
<path fill-rule="evenodd" clip-rule="evenodd" d="M189.315 38.0422H189.806C190.144 38.0422 190.418 38.3163 190.418 38.655V41.8406C190.418 42.1787 190.144 42.4534 189.806 42.4534H189.315C188.977 42.4534 188.703 42.1787 188.703 41.8406V38.655C188.703 38.3163 188.977 38.0422 189.315 38.0422Z" fill="#A3A3A3"/>
<path fill-rule="evenodd" clip-rule="evenodd" d="M186.863 39.2674H187.353C187.692 39.2674 187.966 39.5416 187.966 39.8797V41.8402C187.966 42.1784 187.692 42.453 187.353 42.453H186.863C186.525 42.453 186.251 42.1784 186.251 41.8402V39.8797C186.251 39.5416 186.525 39.2674 186.863 39.2674Z" fill="#A3A3A3"/>
<path fill-rule="evenodd" clip-rule="evenodd" d="M184.413 40.0026H184.903C185.242 40.0026 185.515 40.2767 185.515 40.6148V41.8404C185.515 42.1786 185.242 42.4532 184.903 42.4532H184.413C184.075 42.4532 183.801 42.1786 183.801 41.8404V40.6148C183.801 40.2767 184.075 40.0026 184.413 40.0026Z" fill="#A3A3A3"/>
<path opacity="0.01" fill-rule="evenodd" clip-rule="evenodd" d="M27 48.3333H227V27H27V48.3333Z" fill="#A3A3A3" stroke="#A3A3A3" stroke-width="0.533333"/>
<path d="M37.5078 36.7793C36.293 36.7793 35.3984 37.5957 35.3984 38.7324V38.7402C35.3984 39.7988 36.1641 40.5801 37.25 40.5801C38.0117 40.5801 38.5742 40.1895 38.7969 39.6738H38.8203C38.8203 39.7363 38.8164 39.7949 38.8125 39.8535C38.7734 40.9199 38.3945 41.7871 37.4883 41.7871C36.9844 41.7871 36.6406 41.5371 36.4883 41.1504L36.4766 41.1152H35.4766L35.4844 41.1582C35.6602 42.0098 36.4414 42.6113 37.4844 42.6113C38.9219 42.6113 39.7852 41.498 39.7852 39.6348V39.627C39.7852 37.6504 38.75 36.7793 37.5078 36.7793ZM37.5078 39.8027C36.8672 39.8027 36.3906 39.3457 36.3906 38.7051V38.6973C36.3906 38.0879 36.8945 37.6035 37.5195 37.6035C38.1523 37.6035 38.6445 38.0918 38.6445 38.7168V38.7207C38.6445 39.3496 38.1523 39.8027 37.5078 39.8027ZM41.0805 38.8262C41.3969 38.8262 41.643 38.5762 41.643 38.2598C41.643 37.9434 41.3969 37.6973 41.0805 37.6973C40.7641 37.6973 40.5141 37.9434 40.5141 38.2598C40.5141 38.5762 40.7641 38.8262 41.0805 38.8262ZM41.0805 41.6934C41.3969 41.6934 41.643 41.4434 41.643 41.127C41.643 40.8105 41.3969 40.5645 41.0805 40.5645C40.7641 40.5645 40.5141 40.8105 40.5141 41.127C40.5141 41.4434 40.7641 41.6934 41.0805 41.6934ZM45.1454 42.5137H46.1063V41.4316H46.872V40.6035H46.1063V36.877H44.6727L42.3329 40.5723V41.4316H45.1454V42.5137ZM43.2391 40.627V40.5996L45.1376 37.6387H45.161V40.627H43.2391ZM48.9525 42.5137H49.9407V36.877H48.9446L47.472 37.9121V38.8379L48.929 37.8379H48.9525V42.5137Z" fill="#A3A3A3"/>
<defs>
<filter id="filter0_d_499_272" x="0" y="0" width="254" height="454" filterUnits="userSpaceOnUse" color-interpolation-filters="sRGB">
<feFlood flood-opacity="0" result="BackgroundImageFix"/>
<feColorMatrix in="SourceAlpha" type="matrix" values="0 0 0 0 0 0 0 0 0 0 0 0 0 0 0 0 0 0 127 0" result="hardAlpha"/>
<feOffset/>
<feGaussianBlur stdDeviation="13.5"/>
<feComposite in2="hardAlpha" operator="out"/>
<feColorMatrix type="matrix" values="0 0 0 0 0 0 0 0 0 0 0 0 0 0 0 0 0 0 0.3 0"/>
<feBlend mode="normal" in2="BackgroundImageFix" result="effect1_dropShadow_499_272"/>
<feBlend mode="normal" in="SourceGraphic" in2="effect1_dropShadow_499_272" result="shape"/>
</filter>
</defs>
</svg>
