<svg width="40" height="40" viewBox="0 0 40 40" fill="none" xmlns="http://www.w3.org/2000/svg">
<rect width="40" height="40" rx="20" fill="#A3A3A3"/>
<path d="M29 14.72C28.3379 15.012 27.6268 15.2094 26.8791 15.2981C27.6422 14.844 28.2268 14.1244 28.5028 13.2679C27.7779 13.6957 26.9846 13.997 26.1574 14.1585C25.4842 13.4453 24.5241 13 23.462 13C21.4234 13 19.77 14.6425 19.77 16.6698C19.77 16.9571 19.8026 17.2373 19.8652 17.5064C16.7962 17.3531 14.0754 15.8921 12.2543 13.6721C11.9363 14.2143 11.7543 14.8447 11.7543 15.5172C11.7543 16.7903 12.4062 17.9135 13.3969 18.5715C12.8104 18.5534 12.2368 18.3961 11.7241 18.1127V18.159C11.7241 19.9373 12.9967 21.42 14.686 21.7572C14.3757 21.8417 14.05 21.8859 13.7131 21.8859C13.4749 21.8859 13.2438 21.8635 13.018 21.8213C13.4879 23.2788 14.8516 24.3397 16.467 24.3697C15.2032 25.3543 13.6108 25.9412 11.8813 25.9412C11.5834 25.9412 11.289 25.9235 11 25.8889C12.6344 26.9304 14.5749 27.5385 16.6603 27.5385C23.452 27.5385 27.1664 21.9464 27.1664 17.097C27.1664 16.9378 27.1629 16.7797 27.1551 16.6223C27.8788 16.102 28.5035 15.4579 29 14.72Z" fill="#E8E8E8"/>
</svg>
